<svg version="1.1" id="Layer_1" xmlns="http://www.w3.org/2000/svg" xmlns:xlink="http://www.w3.org/1999/xlink" x="0px" y="0px"
	 width="100%" viewBox="0 0 902 714" enable-background="new 0 0 902 714" xml:space="preserve">
<path fill="#FEFEFE" opacity="1.000000" stroke="none" 
	d="
M903.000000,253.000000 
	C903.000000,407.333252 903.000000,561.166504 903.000000,714.999817 
	C602.333557,714.999878 301.667114,714.999878 1.000488,714.999939 
	C1.000325,477.000336 1.000325,239.000656 1.000163,1.000743 
	C301.666199,1.000495 602.332397,1.000495 902.999268,1.000248 
	C903.000000,84.833336 903.000000,168.666672 903.000000,253.000000 
M90.722038,129.909958 
	C90.722038,129.909958 90.469696,129.582947 89.918625,129.912674 
	C88.973679,131.102066 88.028740,132.291443 86.825897,133.559875 
	C86.647484,133.685486 86.608315,133.845230 86.194389,134.365784 
	C86.121170,134.555130 86.047958,134.744492 85.447563,135.165176 
	C85.142647,135.643463 84.837730,136.121765 84.688248,137.014740 
	C84.688248,137.014740 84.514664,136.602554 83.963203,136.938141 
	C80.280716,141.941803 76.598228,146.945450 72.997101,151.982956 
	C72.997101,151.982956 72.940880,151.915100 72.359970,152.249832 
	C35.978161,202.758865 14.122858,258.828186 7.702172,320.839020 
	C1.327668,382.403839 8.834044,442.083527 31.999456,499.603088 
	C40.276325,520.154541 50.082253,539.947998 62.980312,558.033142 
	C62.980312,558.033142 62.878834,558.076111 63.011555,558.759338 
	C65.985359,562.871765 68.959167,566.984192 71.991272,571.022705 
	C71.991272,571.022705 71.903648,571.057068 72.026527,571.693787 
	C72.985313,572.838257 73.944099,573.982788 74.976692,575.032104 
	C74.976692,575.032104 74.869781,575.087524 75.042213,575.751526 
	C78.678642,580.192444 82.315079,584.633423 85.997620,589.009521 
	C85.997620,589.009521 85.925919,589.043884 86.110413,589.687744 
	C88.050583,591.825317 89.990753,593.962830 91.984894,596.017395 
	C91.984894,596.017395 91.897682,596.064087 92.101929,596.705322 
	C94.522263,599.286804 96.942596,601.868286 99.472244,604.475220 
	C99.472244,604.475220 99.487137,604.586487 99.721245,605.081665 
	C100.138962,605.415283 100.556679,605.748901 101.239594,606.690125 
	C105.135254,610.467712 109.030922,614.245239 113.198868,618.637512 
	C116.115341,621.138794 119.031822,623.640076 122.120621,626.585693 
	C122.326683,626.858215 122.600388,627.002258 123.238159,627.614990 
	C125.474739,629.439026 127.711319,631.263123 129.985840,633.006897 
	C129.985840,633.006897 129.913330,633.058105 130.202148,633.647583 
	C131.784317,634.793030 133.366470,635.938477 134.984848,637.003784 
	C134.984848,637.003784 134.915573,637.058044 135.219147,637.638428 
	C136.805023,638.774170 138.390900,639.909973 139.995056,640.996582 
	C139.995056,640.996582 139.952347,641.027222 140.251526,641.597717 
	C141.487366,642.423157 142.723206,643.248596 143.986526,644.001526 
	C143.986526,644.001526 143.924606,644.048218 144.250671,644.629150 
	C146.481918,646.116333 148.713165,647.603516 150.979034,649.004578 
	C150.979034,649.004578 150.908447,649.064819 151.249100,649.642639 
	C156.154388,652.782776 161.059677,655.922913 165.984741,658.995605 
	C165.984741,658.995605 165.933594,659.043701 166.306747,659.604675 
	C202.541031,681.953674 241.370102,697.676270 283.471466,704.621033 
	C294.063568,706.368225 304.920868,706.507568 316.117737,707.691040 
	C316.417297,707.513306 316.716888,707.335510 317.692108,706.944336 
	C318.145844,706.807617 318.599579,706.670837 319.290619,707.307251 
	C322.342346,707.846741 325.393829,708.856445 328.445862,708.858276 
	C479.270782,708.949951 630.095703,708.965576 780.920654,708.932617 
	C787.056885,708.931274 793.215332,708.622253 799.325195,708.048767 
	C825.975098,705.547241 849.178467,695.441833 867.679260,675.802856 
	C893.022034,648.901001 903.181519,616.969543 895.154175,580.825745 
	C888.751160,551.995361 880.099426,523.654846 872.148682,495.179871 
	C858.609375,446.690552 844.914795,398.244141 831.138428,349.821503 
	C818.861572,306.669128 806.361877,263.580200 794.005615,220.450317 
	C784.670349,187.865250 775.091736,155.345261 766.204285,122.637909 
	C758.184631,93.124283 743.468994,67.994019 720.932068,47.200920 
	C693.331665,21.736076 660.271118,9.570360 623.491699,8.330561 
	C588.036621,7.135406 552.507935,8.125698 516.076416,8.048161 
	C507.531952,8.030334 498.986908,7.955479 490.443634,8.048707 
	C488.954285,8.064959 487.472626,8.789507 485.103088,9.158126 
	C479.289703,8.757911 473.477356,8.030208 467.662720,8.011076 
	C432.171783,7.894309 396.678741,8.144911 361.189301,7.881970 
	C303.717896,7.456163 249.150406,19.504814 197.734467,45.299355 
	C179.416077,54.489395 161.864120,64.971985 145.971451,77.979210 
	C145.971451,77.979210 145.925659,77.881592 145.291443,78.015144 
	C144.159332,78.985565 143.027237,79.955986 141.978165,80.984024 
	C141.978165,80.984024 141.933838,80.893188 141.292892,81.050308 
	C139.819321,82.335373 138.345764,83.620438 136.970276,84.970306 
	C136.970276,84.970306 136.912003,84.868210 136.256699,85.056702 
	C129.147781,91.363411 122.038849,97.670128 114.325317,104.250031 
	C109.878555,108.814293 105.431786,113.378555 100.366043,118.204773 
	C97.865959,121.118523 95.365875,124.032280 92.419968,127.120949 
	C92.146484,127.327255 91.999374,127.601387 91.448425,128.154709 
	C91.135681,128.621582 90.822945,129.088470 90.722038,129.909958 
z"/>
<path fill="#14488A" opacity="1.000000" stroke="none" 
	d="
M85.974747,134.933838 
	C86.047958,134.744492 86.121170,134.555130 86.535629,134.198242 
	C86.876869,134.030685 87.028671,133.957275 87.384964,133.932373 
	C88.650726,132.465958 89.560211,131.024445 90.469696,129.582947 
	C90.469696,129.582947 90.722038,129.909958 90.945732,129.751999 
	C91.439163,129.043808 91.708900,128.493576 91.978645,127.943336 
	C91.999374,127.601387 92.146484,127.327255 92.997780,127.023956 
	C96.045403,123.932243 98.515213,120.937523 100.985016,117.942810 
	C105.431786,113.378555 109.878555,108.814293 114.997192,104.122955 
	C120.267143,100.337654 125.001099,96.834343 129.413544,92.964447 
	C132.164169,90.552048 134.429108,87.585869 136.912003,84.868210 
	C136.912003,84.868210 136.970276,84.970306 137.297424,84.968536 
	C139.061005,83.608910 140.497421,82.251045 141.933838,80.893188 
	C141.933838,80.893188 141.978165,80.984024 142.312744,80.980400 
	C143.740112,79.945045 144.832886,78.913315 145.925659,77.881592 
	C145.925659,77.881592 145.971451,77.979210 146.304749,77.976944 
	C148.662323,76.922188 150.756851,75.984764 152.699707,74.798889 
	C167.388535,65.833168 181.793137,56.366180 196.782578,47.937996 
	C214.150864,38.172268 232.749084,30.952948 251.930557,25.665091 
	C268.172791,21.187517 284.614136,17.090315 301.220947,14.376903 
	C316.691376,11.849171 332.481262,10.423217 348.156830,10.175452 
	C385.311462,9.588194 422.483582,10.209221 459.644958,9.901040 
	C480.459290,9.728428 500.551819,12.772447 519.955933,20.356524 
	C521.216919,20.849373 522.827576,20.447556 524.276184,20.510670 
	C524.276794,20.559444 524.233337,20.646776 524.324036,20.987339 
	C525.291321,21.542683 526.167847,21.757462 527.024170,21.987743 
	C527.003845,22.003250 527.011841,21.952812 527.174377,22.212738 
	C527.908569,22.637213 528.480164,22.801764 529.028381,22.983822 
	C529.004944,23.001329 529.015564,22.943830 529.176697,23.205988 
	C529.911621,23.632238 530.485474,23.796333 531.032410,23.980385 
	C531.005554,24.000340 531.032471,23.939068 531.073120,24.292799 
	C533.435913,25.744967 535.758057,26.843403 538.042725,27.965492 
	C538.005310,27.989143 538.051575,27.913580 538.088135,28.272240 
	C539.778931,29.398798 541.433289,30.166695 543.046875,30.959747 
	C543.006165,30.984905 543.058472,30.904734 543.096069,31.266235 
	C544.136780,32.067684 545.139832,32.507633 546.420166,32.990219 
	C547.132507,33.340794 547.567566,33.648731 548.111450,34.192986 
	C548.511414,34.604076 548.802673,34.778847 549.053223,34.965157 
	C549.012512,34.976696 549.058289,34.905605 549.090576,35.260902 
	C550.094666,36.076218 551.066345,36.536228 552.301514,37.096733 
	C553.059570,37.751225 553.554321,38.305225 554.069092,39.225914 
	C555.394104,40.398746 556.699158,41.204891 558.228882,42.096405 
	C558.735107,42.366524 558.919556,42.621593 559.113953,43.187828 
	C559.513062,43.611408 559.804993,43.794144 560.312988,44.057522 
	C560.800354,44.319153 560.967407,44.569637 561.125793,45.137245 
	C561.509583,45.576775 561.797974,45.768669 562.050232,45.973053 
	C562.014160,45.985542 562.039795,45.913662 562.135803,46.157303 
	C562.519104,46.585609 562.806458,46.770271 563.056274,46.968048 
	C563.018860,46.981163 563.044495,46.906109 563.140137,47.150948 
	C563.524414,47.580521 563.813110,47.765263 564.062988,47.962875 
	C564.024170,47.975742 564.049744,47.898129 564.143616,48.144501 
	C564.526428,48.576691 564.815430,48.762512 565.065186,48.961079 
	C565.025940,48.973820 565.051514,48.895439 565.144653,49.142342 
	C565.526794,49.575539 565.815796,49.761833 566.065552,49.960808 
	C566.026306,49.973495 566.051941,49.895065 566.144653,50.141960 
	C566.525818,50.575802 566.814148,50.762745 567.063599,50.962326 
	C567.024658,50.974960 567.050476,50.897251 567.143066,51.143761 
	C567.523071,51.577740 567.810547,51.765209 568.059753,51.965324 
	C568.021484,51.977970 568.047546,51.901695 568.140564,52.147491 
	C568.520447,52.580521 568.807373,52.767750 569.056763,52.967796 
	C569.019226,52.980614 569.044495,52.905510 569.141479,53.153111 
	C569.528992,53.590309 569.819458,53.779903 570.323853,54.062447 
	C570.807556,54.345814 570.968201,54.604137 571.014404,55.303192 
	C573.375122,58.426987 575.741150,61.177956 578.070374,63.955551 
	C578.033508,63.982170 578.055054,63.893810 578.138428,64.140900 
	C578.498718,64.585350 578.775696,64.782722 579.025574,64.988365 
	C578.998474,64.996635 579.030823,64.950157 579.021973,65.313400 
	C579.707825,66.431023 580.402588,67.185394 581.056824,67.966583 
	C581.016296,67.993408 581.066467,67.910187 581.047852,68.282715 
	C582.036438,69.767265 583.043640,70.879288 584.288330,72.140953 
	C584.700317,72.815605 584.874695,73.340622 585.038086,74.234718 
	C585.709717,75.394951 586.392334,76.186096 587.316284,77.128632 
	C587.718933,77.817963 587.880127,78.355896 588.031494,79.286682 
	C588.459961,81.273476 588.585327,83.048218 589.385315,84.433228 
	C596.945374,97.521461 601.164001,111.637535 603.419678,126.540901 
	C607.115295,150.957825 605.691223,174.715759 595.618042,197.549408 
	C588.680542,213.275360 581.661499,228.966049 574.571167,244.623703 
	C567.290405,260.701904 559.878418,276.720703 552.524231,292.765625 
	C542.931763,313.693756 533.401978,334.650940 523.729675,355.542145 
	C514.091248,376.360291 504.245697,397.082611 494.610046,417.902069 
	C485.642120,437.278687 476.778259,456.704163 468.004852,476.169556 
	C466.610504,479.263214 465.933502,482.680145 464.586182,486.030548 
	C463.458801,487.302429 462.408020,488.394348 461.925873,489.696808 
	C459.603241,495.971344 457.433868,502.302643 455.229309,508.722839 
	C455.248474,508.831909 455.075012,508.969604 454.804443,509.170349 
	C454.431335,509.797729 454.328766,510.224365 454.229614,510.893616 
	C454.160126,511.465790 453.992676,511.736938 453.375854,511.966125 
	C451.749176,513.571167 450.102234,514.984314 449.264069,516.775757 
	C441.727875,532.883484 434.396179,549.086792 426.880798,565.204346 
	C418.932526,582.250366 410.917755,599.266235 402.799561,616.231934 
	C397.807220,626.665039 392.464294,636.930603 387.486298,647.370422 
	C385.382263,651.782898 383.811432,656.449646 381.999115,661.000427 
	C382.000000,661.000000 381.999939,660.997498 381.650024,661.031494 
	C380.498596,661.605042 379.526245,661.998962 378.922363,662.707031 
	C373.730164,668.794800 368.579865,674.918945 363.488434,681.091064 
	C362.805725,681.918762 362.521149,683.074951 362.027252,684.043091 
	C362.002319,684.007141 362.074707,684.056213 361.701538,684.036865 
	C357.232056,687.031677 353.135742,690.045776 349.021545,693.029541 
	C349.003662,692.999268 349.057037,693.045349 348.671478,693.024414 
	C346.856018,694.005676 345.426117,695.007874 343.889465,696.107544 
	C343.782715,696.204956 343.493591,696.204529 343.077209,696.148682 
	C340.949677,696.649780 339.210175,697.132629 337.531952,697.775452 
	C325.172180,702.509766 313.253052,707.552551 299.104767,705.289978 
	C280.607147,702.332031 262.203369,699.226685 244.348389,693.588013 
	C218.977814,685.575928 194.783279,674.838684 171.960556,661.077454 
	C170.187424,660.008362 167.953400,659.703674 165.933594,659.043701 
	C165.933594,659.043701 165.984741,658.995605 165.951965,658.673950 
	C160.915604,655.256409 155.912033,652.160645 150.908447,649.064819 
	C150.908447,649.064819 150.979034,649.004578 150.946213,648.689453 
	C148.583801,646.932312 146.254211,645.490234 143.924622,644.048218 
	C143.924606,644.048218 143.986526,644.001526 143.950989,643.673706 
	C142.594406,642.572937 141.273376,641.800049 139.952362,641.027222 
	C139.952347,641.027222 139.995056,640.996582 139.961838,640.660767 
	C138.257599,639.236023 136.586594,638.147034 134.915573,637.058044 
	C134.915573,637.058044 134.984848,637.003784 134.951065,636.680908 
	C133.249298,635.257996 131.581314,634.158081 129.913330,633.058105 
	C129.913330,633.058105 129.985840,633.006897 129.955231,632.691528 
	C127.596977,630.590088 125.269356,628.803955 122.941727,627.017822 
	C122.600388,627.002258 122.326683,626.858215 122.024437,626.007996 
	C118.927689,622.961121 115.927132,620.492004 112.926575,618.022827 
	C109.030922,614.245239 105.135254,610.467712 101.084457,606.055176 
	C100.448593,605.142334 99.967857,604.864441 99.487137,604.586487 
	C99.487137,604.586487 99.472244,604.475220 99.578903,604.116821 
	C97.089600,601.193665 94.493637,598.628906 91.897675,596.064087 
	C91.897682,596.064087 91.984894,596.017395 91.980499,595.686523 
	C89.959366,593.251770 87.942635,591.147827 85.925911,589.043884 
	C85.925919,589.043884 85.997620,589.009521 85.991333,588.670288 
	C82.279945,583.916626 78.574852,579.502075 74.869766,575.087524 
	C74.869781,575.087524 74.976692,575.032104 74.970978,574.703369 
	C73.944717,573.268738 72.924187,572.162903 71.903648,571.057068 
	C71.903648,571.057068 71.991272,571.022705 71.986374,570.681030 
	C68.947258,566.251648 65.913040,562.163879 62.878826,558.076111 
	C62.878834,558.076111 62.980312,558.033142 62.976227,557.694092 
	C62.570042,556.105957 62.350224,554.758667 61.738052,553.622742 
	C54.524578,540.237671 46.190258,527.336975 40.255634,513.411804 
	C32.248657,494.624115 25.195881,475.314728 19.409344,455.734009 
	C15.173656,441.401093 13.217637,426.333466 10.994414,411.481232 
	C7.707829,389.525208 6.179818,367.493011 7.766106,345.186340 
	C8.893763,329.329041 10.331833,313.604248 12.811028,297.885712 
	C16.829887,272.405396 24.208746,247.965530 33.964897,224.221252 
	C43.693707,200.543533 56.152550,178.299484 70.784317,157.275528 
	C71.856651,155.734726 72.238182,153.713150 72.940880,151.915100 
	C72.940880,151.915100 72.997101,151.982956 73.309906,151.950653 
	C76.267815,148.915421 79.090508,146.046127 81.489166,142.857819 
	C82.855377,141.041840 83.529099,138.704895 84.514664,136.602554 
	C84.514664,136.602554 84.688248,137.014740 84.940155,136.808716 
	C85.452957,136.046402 85.713852,135.490112 85.974747,134.933838 
M428.025604,189.456680 
	C398.546173,172.773468 366.674225,166.616470 333.200165,168.986008 
	C274.372681,173.150223 227.463226,199.373703 193.948334,247.857590 
	C166.870224,287.029755 159.051300,331.068176 164.854370,377.964691 
	C173.505539,447.877625 225.222961,507.946533 293.057068,526.601990 
	C322.807648,534.783875 352.768982,536.447388 383.027863,529.857605 
	C385.980286,529.214661 388.931885,528.976135 390.707153,525.351929 
	C401.471619,503.375977 412.565613,481.561646 423.516632,459.676849 
	C425.719513,455.274536 427.781036,450.801483 429.831085,446.521057 
	C425.244019,443.256470 421.078857,440.292206 416.916046,437.328308 
	C378.914520,472.930145 311.272156,476.414062 268.389740,435.977753 
	C225.886978,395.899353 219.335434,330.264130 253.396881,282.971527 
	C269.285248,260.911346 290.919037,246.386154 317.346863,240.443466 
	C354.327545,232.127777 387.930481,240.415085 417.133820,264.429321 
	C432.882294,247.879257 448.319489,231.656342 464.694427,214.447937 
	C452.237396,205.942490 440.445770,197.891357 428.025604,189.456680 
z"/>
<path fill="#C2C5C7" opacity="1.000000" stroke="none" 
	d="
M343.493591,696.204529 
	C343.493591,696.204529 343.782715,696.204956 344.223694,696.066895 
	C346.128784,694.967712 347.592926,694.006531 349.057037,693.045349 
	C349.057037,693.045349 349.003662,692.999268 349.368622,692.973450 
	C353.847290,689.983826 357.960999,687.020020 362.074707,684.056213 
	C362.074707,684.056213 362.002319,684.007141 362.351868,683.954041 
	C369.134247,676.266479 375.567108,668.631958 381.999939,660.997498 
	C381.999939,660.997498 382.000000,661.000000 382.275146,660.809082 
	C391.013672,643.638184 399.650604,626.742065 407.899750,609.658752 
	C420.348816,583.877747 432.527283,557.966003 445.300415,532.098022 
	C469.604584,532.079346 493.429565,532.135803 517.252563,531.942322 
	C519.105896,531.927307 521.929443,530.624939 522.632629,529.133789 
	C527.594910,518.610168 532.116699,507.879089 536.785522,497.217041 
	C550.658203,465.536530 564.500000,433.842377 578.419006,402.182251 
	C589.662048,376.608948 600.977966,351.067657 612.309143,325.533264 
	C615.453369,318.447906 618.767334,311.437927 622.601440,303.091583 
	C637.740112,337.976227 652.362427,371.670990 667.268311,406.019165 
	C651.583679,406.019165 636.939880,406.092407 622.297974,405.957703 
	C619.348267,405.930542 617.974670,406.843872 616.851440,409.676941 
	C610.602173,425.439209 604.087219,441.096161 597.647400,456.782654 
	C595.411926,462.227905 593.131348,467.654572 590.537231,473.893402 
	C593.301453,473.893402 595.089172,473.892792 596.876953,473.893463 
	C628.532227,473.905273 660.187805,473.980255 691.842468,473.848297 
	C695.736694,473.832062 697.655518,474.931213 699.216614,478.702148 
	C706.020691,495.138214 713.296814,511.378326 720.298828,527.733521 
	C721.625244,530.831787 723.336609,532.197083 726.999207,532.162476 
	C748.489563,531.959351 769.982788,532.074890 791.475098,532.056946 
	C792.894958,532.055725 794.314697,531.838745 796.391541,531.668152 
	C795.716187,529.563782 795.365662,527.987000 794.723022,526.540039 
	C781.020508,495.687408 767.196838,464.888306 753.577637,433.998993 
	C734.661133,391.095032 715.965637,348.093567 697.040588,305.193420 
	C679.657043,265.787811 662.029907,226.489502 644.724243,187.049973 
	C643.205566,183.588974 641.337097,182.842575 637.990967,182.870834 
	C627.333679,182.960815 616.674194,182.785446 606.025269,182.313690 
	C606.564819,178.496765 607.253052,175.094635 607.597717,171.658051 
	C609.316650,154.518600 611.260437,137.279419 606.520813,120.371452 
	C603.231873,108.638756 599.231750,97.071663 594.888123,85.682755 
	C592.744446,80.062164 589.700012,74.551613 586.022034,69.796646 
	C577.463074,58.731560 569.128723,47.360069 558.026428,38.570023 
	C548.715332,31.198120 539.545288,23.647436 528.131836,19.416565 
	C522.930237,17.488358 517.333801,15.231869 517.011597,8.155854 
	C552.507935,8.125698 588.036621,7.135406 623.491699,8.330561 
	C660.271118,9.570360 693.331665,21.736076 720.932068,47.200920 
	C743.468994,67.994019 758.184631,93.124283 766.204285,122.637909 
	C775.091736,155.345261 784.670349,187.865250 794.005615,220.450317 
	C806.361877,263.580200 818.861572,306.669128 831.138428,349.821503 
	C844.914795,398.244141 858.609375,446.690552 872.148682,495.179871 
	C880.099426,523.654846 888.751160,551.995361 895.154175,580.825745 
	C903.181519,616.969543 893.022034,648.901001 867.679260,675.802856 
	C849.178467,695.441833 825.975098,705.547241 799.325195,708.048767 
	C793.215332,708.622253 787.056885,708.931274 780.920654,708.932617 
	C630.095703,708.965576 479.270782,708.949951 328.445862,708.858276 
	C325.393829,708.856445 322.342346,707.846741 319.428040,706.700439 
	C327.541504,702.797241 335.517548,699.500916 343.493591,696.204529 
z"/>
<path fill="#2F537E" opacity="1.000000" stroke="none" 
	d="
M72.650421,152.082458 
	C72.238182,153.713150 71.856651,155.734726 70.784317,157.275528 
	C56.152550,178.299484 43.693707,200.543533 33.964897,224.221252 
	C24.208746,247.965530 16.829887,272.405396 12.811028,297.885712 
	C10.331833,313.604248 8.893763,329.329041 7.766106,345.186340 
	C6.179818,367.493011 7.707829,389.525208 10.994414,411.481232 
	C13.217637,426.333466 15.173656,441.401093 19.409344,455.734009 
	C25.195881,475.314728 32.248657,494.624115 40.255634,513.411804 
	C46.190258,527.336975 54.524578,540.237671 61.738052,553.622742 
	C62.350224,554.758667 62.570042,556.105957 62.941719,557.737061 
	C50.082253,539.947998 40.276325,520.154541 31.999456,499.603088 
	C8.834044,442.083527 1.327668,382.403839 7.702172,320.839020 
	C14.122858,258.828186 35.978161,202.758865 72.650421,152.082458 
z"/>
<path fill="#2F537E" opacity="1.000000" stroke="none" 
	d="
M524.275574,20.461895 
	C522.827576,20.447556 521.216919,20.849373 519.955933,20.356524 
	C500.551819,12.772447 480.459290,9.728428 459.644958,9.901040 
	C422.483582,10.209221 385.311462,9.588194 348.156830,10.175452 
	C332.481262,10.423217 316.691376,11.849171 301.220947,14.376903 
	C284.614136,17.090315 268.172791,21.187517 251.930557,25.665091 
	C232.749084,30.952948 214.150864,38.172268 196.782578,47.937996 
	C181.793137,56.366180 167.388535,65.833168 152.699707,74.798889 
	C150.756851,75.984764 148.662323,76.922188 146.261139,77.945251 
	C161.864120,64.971985 179.416077,54.489395 197.734467,45.299355 
	C249.150406,19.504814 303.717896,7.456163 361.189301,7.881970 
	C396.678741,8.144911 432.171783,7.894309 467.662720,8.011076 
	C473.477356,8.030208 479.289703,8.757911 485.829346,9.431446 
	C499.505371,11.970490 512.444763,14.272602 524.275574,20.461895 
z"/>
<path fill="#C2C9D1" opacity="1.000000" stroke="none" 
	d="
M524.276184,20.510670 
	C512.444763,14.272602 499.505371,11.970490 486.271515,9.445843 
	C487.472626,8.789507 488.954285,8.064959 490.443634,8.048707 
	C498.986908,7.955479 507.531952,8.030334 516.544006,8.102007 
	C517.333801,15.231869 522.930237,17.488358 528.131836,19.416565 
	C539.545288,23.647436 548.715332,31.198120 558.026428,38.570023 
	C569.128723,47.360069 577.463074,58.731560 586.022034,69.796646 
	C589.700012,74.551613 592.744446,80.062164 594.888123,85.682755 
	C599.231750,97.071663 603.231873,108.638756 606.520813,120.371452 
	C611.260437,137.279419 609.316650,154.518600 607.597717,171.658051 
	C607.253052,175.094635 606.564819,178.496765 605.671143,182.402222 
	C604.581848,182.943451 603.856384,182.997223 603.087891,182.649933 
	C604.357666,174.636658 606.322266,167.069260 606.848999,159.403046 
	C607.976624,142.994186 606.668030,126.683174 601.942932,110.834595 
	C598.608215,99.649582 595.089539,88.488205 588.041260,78.893829 
	C587.880127,78.355896 587.718933,77.817963 587.271362,76.807007 
	C586.339661,75.511200 585.694336,74.688400 585.049072,73.865616 
	C584.874695,73.340622 584.700317,72.815605 584.231567,71.817917 
	C582.980286,70.200226 582.023376,69.055214 581.066467,67.910194 
	C581.066467,67.910187 581.016296,67.993408 581.003906,67.653175 
	C580.338013,66.525345 579.684387,65.737747 579.030823,64.950150 
	C579.030823,64.950157 578.998474,64.996635 578.949951,64.736549 
	C578.619324,64.282249 578.337158,64.088028 578.055054,63.893806 
	C578.055054,63.893810 578.033508,63.982170 578.006836,63.616768 
	C575.660034,60.477699 573.339844,57.704029 571.019714,54.930359 
	C570.968201,54.604137 570.807556,54.345814 570.229858,53.812363 
	C569.629578,53.281387 569.337036,53.093437 569.044495,52.905502 
	C569.044495,52.905510 569.019226,52.980614 568.967346,52.719246 
	C568.626160,52.272488 568.336853,52.087093 568.047546,51.901695 
	C568.047546,51.901695 568.021484,51.977970 567.970703,51.716118 
	C567.630127,51.268593 567.340332,51.082924 567.050476,50.897255 
	C567.050476,50.897251 567.024658,50.974960 566.974182,50.712891 
	C566.633118,50.265572 566.342529,50.080326 566.051941,49.895073 
	C566.051941,49.895065 566.026306,49.973495 565.975464,49.711506 
	C565.633606,49.264820 565.342590,49.080124 565.051514,48.895432 
	C565.051514,48.895439 565.025940,48.973820 564.974731,48.712044 
	C564.632263,48.266224 564.341003,48.082180 564.049744,47.898132 
	C564.049744,47.898129 564.024170,47.975742 563.971924,47.714386 
	C563.627930,47.270718 563.336243,47.088402 563.044495,46.906097 
	C563.044495,46.906109 563.018860,46.981163 562.963928,46.721512 
	C562.619263,46.279121 562.329529,46.096386 562.039795,45.913658 
	C562.039795,45.913662 562.014160,45.985542 561.957581,45.723625 
	C561.610779,45.271008 561.320557,45.080307 561.030334,44.889610 
	C560.967407,44.569637 560.800354,44.319153 560.208679,43.813568 
	C559.594421,43.308311 559.300598,43.127647 559.006775,42.946983 
	C558.919556,42.621593 558.735107,42.366524 558.088745,41.801666 
	C556.498962,40.567444 555.274048,39.713322 554.049072,38.859215 
	C553.554321,38.305225 553.059570,37.751225 552.156982,36.813995 
	C550.852173,35.922382 549.955200,35.413994 549.058289,34.905605 
	C549.058289,34.905605 549.012512,34.976696 548.952515,34.720974 
	C548.595825,34.295723 548.299255,34.126194 548.002625,33.956665 
	C547.567566,33.648731 547.132507,33.340794 546.271118,32.701309 
	C544.915955,31.881422 543.987244,31.393078 543.058472,30.904734 
	C543.058472,30.904734 543.006165,30.984905 542.895508,30.658829 
	C541.207031,29.526361 539.629333,28.719969 538.051575,27.913578 
	C538.051575,27.913580 538.005310,27.989143 537.886963,27.661366 
	C535.523254,26.202084 533.277893,25.070576 531.032471,23.939068 
	C531.032471,23.939068 531.005554,24.000340 530.873779,23.718945 
	C530.166504,23.272978 529.591064,23.108404 529.015564,22.943832 
	C529.015564,22.943830 529.004944,23.001329 528.868835,22.724209 
	C528.159119,22.282328 527.585449,22.117567 527.011841,21.952808 
	C527.011841,21.952812 527.003845,22.003250 526.842346,21.718037 
	C525.864990,21.170809 525.049194,20.908796 524.233337,20.646780 
	C524.233337,20.646776 524.276794,20.559444 524.276184,20.510670 
z"/>
<path fill="#2F537E" opacity="1.000000" stroke="none" 
	d="
M343.077209,696.148682 
	C335.517548,699.500916 327.541504,702.797241 319.309387,706.313843 
	C318.599579,706.670837 318.145844,706.807617 317.118774,706.966919 
	C316.249054,707.121643 315.952698,707.253784 315.656311,707.385864 
	C304.920868,706.507568 294.063568,706.368225 283.471466,704.621033 
	C241.370102,697.676270 202.541031,681.953674 166.120178,659.324219 
	C167.953400,659.703674 170.187424,660.008362 171.960556,661.077454 
	C194.783279,674.838684 218.977814,685.575928 244.348389,693.588013 
	C262.203369,699.226685 280.607147,702.332031 299.104767,705.289978 
	C313.253052,707.552551 325.172180,702.509766 337.531952,697.775452 
	C339.210175,697.132629 340.949677,696.649780 343.077209,696.148682 
z"/>
<path fill="#2F537E" opacity="1.000000" stroke="none" 
	d="
M136.584351,84.962456 
	C134.429108,87.585869 132.164169,90.552048 129.413544,92.964447 
	C125.001099,96.834343 120.267143,100.337654 115.299484,103.986359 
	C122.038849,97.670128 129.147781,91.363411 136.584351,84.962456 
z"/>
<path fill="#2F537E" opacity="1.000000" stroke="none" 
	d="
M84.238930,136.770355 
	C83.529099,138.704895 82.855377,141.041840 81.489166,142.857819 
	C79.090508,146.046127 76.267815,148.915421 73.269226,151.933731 
	C76.598228,146.945450 80.280716,141.941803 84.238930,136.770355 
z"/>
<path fill="#2F537E" opacity="1.000000" stroke="none" 
	d="
M74.955986,575.419556 
	C78.574852,579.502075 82.279945,583.916626 85.968277,588.702759 
	C82.315079,584.633423 78.678642,580.192444 74.955986,575.419556 
z"/>
<path fill="#2F537E" opacity="1.000000" stroke="none" 
	d="
M151.078766,649.353760 
	C155.912033,652.160645 160.915604,655.256409 165.942078,658.707642 
	C161.059677,655.922913 156.154388,652.782776 151.078766,649.353760 
z"/>
<path fill="#2F537E" opacity="1.000000" stroke="none" 
	d="
M62.945187,558.417725 
	C65.913040,562.163879 68.947258,566.251648 71.957230,570.718018 
	C68.959167,566.984192 65.985359,562.871765 62.945187,558.417725 
z"/>
<path fill="#2F537E" opacity="1.000000" stroke="none" 
	d="
M100.675529,118.073792 
	C98.515213,120.937523 96.045403,123.932243 93.220688,126.936493 
	C95.365875,124.032280 97.865959,121.118523 100.675529,118.073792 
z"/>
<path fill="#2F537E" opacity="1.000000" stroke="none" 
	d="
M113.062714,618.330200 
	C115.927132,620.492004 118.927689,622.961121 121.938278,625.785828 
	C119.031822,623.640076 116.115341,621.138794 113.062714,618.330200 
z"/>
<path fill="#2F537E" opacity="1.000000" stroke="none" 
	d="
M91.999802,596.384705 
	C94.493637,598.628906 97.089600,601.193665 99.524246,604.104126 
	C96.942596,601.868286 94.522263,599.286804 91.999802,596.384705 
z"/>
<path fill="#2F537E" opacity="1.000000" stroke="none" 
	d="
M123.089943,627.316406 
	C125.269356,628.803955 127.596977,630.590088 129.936249,632.731689 
	C127.711319,631.263123 125.474739,629.439026 123.089943,627.316406 
z"/>
<path fill="#2F537E" opacity="1.000000" stroke="none" 
	d="
M86.018158,589.365845 
	C87.942635,591.147827 89.959366,593.251770 91.953506,595.728027 
	C89.990753,593.962830 88.050583,591.825317 86.018158,589.365845 
z"/>
<path fill="#2F537E" opacity="1.000000" stroke="none" 
	d="
M144.087646,644.338684 
	C146.254211,645.490234 148.583801,646.932312 150.928894,648.732544 
	C148.713165,647.603516 146.481918,646.116333 144.087646,644.338684 
z"/>
<path fill="#2F537E" opacity="1.000000" stroke="none" 
	d="
M130.057739,633.352844 
	C131.581314,634.158081 133.249298,635.257996 134.932953,636.720947 
	C133.366470,635.938477 131.784317,634.793030 130.057739,633.352844 
z"/>
<path fill="#2F537E" opacity="1.000000" stroke="none" 
	d="
M141.613373,80.971741 
	C140.497421,82.251045 139.061005,83.608910 137.248383,84.936142 
	C138.345764,83.620438 139.819321,82.335373 141.613373,80.971741 
z"/>
<path fill="#2F537E" opacity="1.000000" stroke="none" 
	d="
M135.067352,637.348267 
	C136.586594,638.147034 138.257599,639.236023 139.952698,640.685364 
	C138.390900,639.909973 136.805023,638.774170 135.067352,637.348267 
z"/>
<path fill="#2F537E" opacity="1.000000" stroke="none" 
	d="
M90.194160,129.747803 
	C89.560211,131.024445 88.650726,132.465958 87.387604,133.811829 
	C87.033966,133.716202 87.083809,133.480835 87.083801,133.480835 
	C88.028740,132.291443 88.973679,131.102066 90.194160,129.747803 
z"/>
<path fill="#2F537E" opacity="1.000000" stroke="none" 
	d="
M145.608551,77.948364 
	C144.832886,78.913315 143.740112,79.945045 142.271240,80.951584 
	C143.027237,79.955986 144.159332,78.985565 145.608551,77.948364 
z"/>
<path fill="#2F537E" opacity="1.000000" stroke="none" 
	d="
M140.101944,641.312500 
	C141.273376,641.800049 142.594406,642.572937 143.937225,643.709961 
	C142.723206,643.248596 141.487366,642.423157 140.101944,641.312500 
z"/>
<path fill="#2F537E" opacity="1.000000" stroke="none" 
	d="
M71.965088,571.375427 
	C72.924187,572.162903 73.944717,573.268738 74.934067,574.750916 
	C73.944099,573.982788 72.985313,572.838257 71.965088,571.375427 
z"/>
<path fill="#2F537E" opacity="1.000000" stroke="none" 
	d="
M85.711151,135.049500 
	C85.713852,135.490112 85.452957,136.046402 84.862442,136.601364 
	C84.837730,136.121765 85.142647,135.643463 85.711151,135.049500 
z"/>
<path fill="#2F537E" opacity="1.000000" stroke="none" 
	d="
M91.713531,128.049026 
	C91.708900,128.493576 91.439163,129.043808 90.839813,129.574707 
	C90.822945,129.088470 91.135681,128.621582 91.713531,128.049026 
z"/>
<path fill="#2F537E" opacity="1.000000" stroke="none" 
	d="
M99.604187,604.834106 
	C99.967857,604.864441 100.448593,605.142334 100.951859,605.751343 
	C100.556679,605.748901 100.138962,605.415283 99.604187,604.834106 
z"/>
<path fill="#C2C5C7" opacity="1.000000" stroke="none" 
	d="
M315.887024,707.538452 
	C315.952698,707.253784 316.249054,707.121643 316.780945,707.073608 
	C316.716888,707.335510 316.417297,707.513306 315.887024,707.538452 
z"/>
<path fill="#2F537E" opacity="1.000000" stroke="none" 
	d="
M86.954849,133.520355 
	C87.083809,133.480835 87.033966,133.716202 87.031319,133.836731 
	C87.028671,133.957275 86.876869,134.030685 86.792633,134.034912 
	C86.608315,133.845230 86.647484,133.685486 86.954849,133.520355 
z"/>
<path fill="#FEFEFE" opacity="1.000000" stroke="none" 
	d="
M603.130981,183.050995 
	C603.856384,182.997223 604.581848,182.943451 605.661377,182.801147 
	C616.674194,182.785446 627.333679,182.960815 637.990967,182.870834 
	C641.337097,182.842575 643.205566,183.588974 644.724243,187.049973 
	C662.029907,226.489502 679.657043,265.787811 697.040588,305.193420 
	C715.965637,348.093567 734.661133,391.095032 753.577637,433.998993 
	C767.196838,464.888306 781.020508,495.687408 794.723022,526.540039 
	C795.365662,527.987000 795.716187,529.563782 796.391541,531.668152 
	C794.314697,531.838745 792.894958,532.055725 791.475098,532.056946 
	C769.982788,532.074890 748.489563,531.959351 726.999207,532.162476 
	C723.336609,532.197083 721.625244,530.831787 720.298828,527.733521 
	C713.296814,511.378326 706.020691,495.138214 699.216614,478.702148 
	C697.655518,474.931213 695.736694,473.832062 691.842468,473.848297 
	C660.187805,473.980255 628.532227,473.905273 596.876953,473.893463 
	C595.089172,473.892792 593.301453,473.893402 590.537231,473.893402 
	C593.131348,467.654572 595.411926,462.227905 597.647400,456.782654 
	C604.087219,441.096161 610.602173,425.439209 616.851440,409.676941 
	C617.974670,406.843872 619.348267,405.930542 622.297974,405.957703 
	C636.939880,406.092407 651.583679,406.019165 667.268311,406.019165 
	C652.362427,371.670990 637.740112,337.976227 622.601440,303.091583 
	C618.767334,311.437927 615.453369,318.447906 612.309143,325.533264 
	C600.977966,351.067657 589.662048,376.608948 578.419006,402.182251 
	C564.500000,433.842377 550.658203,465.536530 536.785522,497.217041 
	C532.116699,507.879089 527.594910,518.610168 522.632629,529.133789 
	C521.929443,530.624939 519.105896,531.927307 517.252563,531.942322 
	C493.429565,532.135803 469.604584,532.079346 445.350739,531.724854 
	C447.857849,524.892273 450.794281,518.421021 453.730713,511.949707 
	C453.992676,511.736938 454.160126,511.465790 454.497192,510.691040 
	C454.865906,509.820404 454.970459,509.394989 455.075012,508.969604 
	C455.075012,508.969604 455.248474,508.831909 455.510101,508.480804 
	C459.087219,500.751709 462.402679,493.373688 465.930176,485.706848 
	C488.045746,437.770966 510.018860,390.155792 531.828735,342.465942 
	C546.743408,309.853241 561.517883,277.175629 576.187439,244.451889 
	C585.330017,224.057281 594.160400,203.522720 603.130981,183.050995 
z"/>
<path fill="#FCFDFE" opacity="1.000000" stroke="none" 
	d="
M428.339905,189.648468 
	C440.445770,197.891357 452.237396,205.942490 464.694427,214.447937 
	C448.319489,231.656342 432.882294,247.879257 417.133820,264.429321 
	C387.930481,240.415085 354.327545,232.127777 317.346863,240.443466 
	C290.919037,246.386154 269.285248,260.911346 253.396881,282.971527 
	C219.335434,330.264130 225.886978,395.899353 268.389740,435.977753 
	C311.272156,476.414062 378.914520,472.930145 416.914856,437.328125 
	C421.078857,440.292206 425.244019,443.256470 429.831085,446.521057 
	C427.781036,450.801483 425.719513,455.274536 423.516632,459.676849 
	C412.565613,481.561646 401.471619,503.375977 390.707153,525.351929 
	C388.931885,528.976135 385.980286,529.214661 383.027863,529.857605 
	C352.768982,536.447388 322.807648,534.783875 293.057068,526.601990 
	C225.222961,507.946533 173.505539,447.877625 164.854370,377.964691 
	C159.051300,331.068176 166.870224,287.029755 193.948334,247.857590 
	C227.463226,199.373703 274.372681,173.150223 333.200165,168.986008 
	C366.674225,166.616470 398.546173,172.773468 428.339905,189.648468 
z"/>
<path fill="#2F537E" opacity="1.000000" stroke="none" 
	d="
M603.087891,182.649933 
	C594.160400,203.522720 585.330017,224.057281 576.187439,244.451889 
	C561.517883,277.175629 546.743408,309.853241 531.828735,342.465942 
	C510.018860,390.155792 488.045746,437.770966 465.731537,485.700012 
	C465.320831,485.982025 464.924835,485.947601 464.924866,485.947601 
	C465.933502,482.680145 466.610504,479.263214 468.004852,476.169556 
	C476.778259,456.704163 485.642120,437.278687 494.610046,417.902069 
	C504.245697,397.082611 514.091248,376.360291 523.729675,355.542145 
	C533.401978,334.650940 542.931763,313.693756 552.524231,292.765625 
	C559.878418,276.720703 567.290405,260.701904 574.571167,244.623703 
	C581.661499,228.966049 588.680542,213.275360 595.618042,197.549408 
	C605.691223,174.715759 607.115295,150.957825 603.419678,126.540901 
	C601.164001,111.637535 596.945374,97.521461 589.385315,84.433228 
	C588.585327,83.048218 588.459961,81.273476 588.031494,79.286682 
	C595.089539,88.488205 598.608215,99.649582 601.942932,110.834595 
	C606.668030,126.683174 607.976624,142.994186 606.848999,159.403046 
	C606.322266,167.069260 604.357666,174.636658 603.087891,182.649933 
z"/>
<path fill="#2F537E" opacity="1.000000" stroke="none" 
	d="
M453.375854,511.966125 
	C450.794281,518.421021 447.857849,524.892273 444.871094,531.736694 
	C432.527283,557.966003 420.348816,583.877747 407.899750,609.658752 
	C399.650604,626.742065 391.013672,643.638184 382.274292,660.809448 
	C383.811432,656.449646 385.382263,651.782898 387.486298,647.370422 
	C392.464294,636.930603 397.807220,626.665039 402.799561,616.231934 
	C410.917755,599.266235 418.932526,582.250366 426.880798,565.204346 
	C434.396179,549.086792 441.727875,532.883484 449.264069,516.775757 
	C450.102234,514.984314 451.749176,513.571167 453.375854,511.966125 
z"/>
<path fill="#2F537E" opacity="1.000000" stroke="none" 
	d="
M381.650024,661.031494 
	C375.567108,668.631958 369.134247,676.266479 362.376801,683.989990 
	C362.521149,683.074951 362.805725,681.918762 363.488434,681.091064 
	C368.579865,674.918945 373.730164,668.794800 378.922363,662.707031 
	C379.526245,661.998962 380.498596,661.605042 381.650024,661.031494 
z"/>
<path fill="#2F537E" opacity="1.000000" stroke="none" 
	d="
M464.586182,486.030548 
	C464.924835,485.947601 465.320831,485.982025 465.519470,485.988861 
	C462.402679,493.373688 459.087219,500.751709 455.490936,508.371765 
	C457.433868,502.302643 459.603241,495.971344 461.925873,489.696808 
	C462.408020,488.394348 463.458801,487.302429 464.586182,486.030548 
z"/>
<path fill="#2F537E" opacity="1.000000" stroke="none" 
	d="
M361.701538,684.036865 
	C357.960999,687.020020 353.847290,689.983826 349.386505,693.003723 
	C353.135742,690.045776 357.232056,687.031677 361.701538,684.036865 
z"/>
<path fill="#2F537E" opacity="1.000000" stroke="none" 
	d="
M571.014404,55.303188 
	C573.339844,57.704029 575.660034,60.477699 578.043701,63.590149 
	C575.741150,61.177956 573.375122,58.426987 571.014404,55.303188 
z"/>
<path fill="#2F537E" opacity="1.000000" stroke="none" 
	d="
M531.073120,24.292799 
	C533.277893,25.070576 535.523254,26.202084 537.924438,27.637714 
	C535.758057,26.843403 533.435913,25.744967 531.073120,24.292799 
z"/>
<path fill="#2F537E" opacity="1.000000" stroke="none" 
	d="
M348.671478,693.024414 
	C347.592926,694.006531 346.128784,694.967712 344.330444,695.969482 
	C345.426117,695.007874 346.856018,694.005676 348.671478,693.024414 
z"/>
<path fill="#2F537E" opacity="1.000000" stroke="none" 
	d="
M538.088135,28.272240 
	C539.629333,28.719969 541.207031,29.526361 542.936157,30.633671 
	C541.433289,30.166695 539.778931,29.398798 538.088135,28.272240 
z"/>
<path fill="#2F537E" opacity="1.000000" stroke="none" 
	d="
M581.047852,68.282722 
	C582.023376,69.055214 582.980286,70.200226 583.994019,71.668274 
	C583.043640,70.879288 582.036438,69.767265 581.047852,68.282722 
z"/>
<path fill="#2F537E" opacity="1.000000" stroke="none" 
	d="
M554.069092,39.225903 
	C555.274048,39.713322 556.498962,40.567444 557.864075,41.716301 
	C556.699158,41.204891 555.394104,40.398746 554.069092,39.225903 
z"/>
<path fill="#2F537E" opacity="1.000000" stroke="none" 
	d="
M543.096069,31.266235 
	C543.987244,31.393078 544.915955,31.881422 545.993774,32.658676 
	C545.139832,32.507633 544.136780,32.067684 543.096069,31.266235 
z"/>
<path fill="#2F537E" opacity="1.000000" stroke="none" 
	d="
M585.038086,74.234711 
	C585.694336,74.688400 586.339661,75.511200 587.029907,76.655617 
	C586.392334,76.186096 585.709717,75.394951 585.038086,74.234711 
z"/>
<path fill="#2F537E" opacity="1.000000" stroke="none" 
	d="
M579.021973,65.313400 
	C579.684387,65.737747 580.338013,66.525345 581.044434,67.626358 
	C580.402588,67.185394 579.707825,66.431023 579.021973,65.313400 
z"/>
<path fill="#2F537E" opacity="1.000000" stroke="none" 
	d="
M549.090576,35.260902 
	C549.955200,35.413994 550.852173,35.922382 551.893555,36.713501 
	C551.066345,36.536228 550.094666,36.076218 549.090576,35.260902 
z"/>
<path fill="#2F537E" opacity="1.000000" stroke="none" 
	d="
M524.324036,20.987343 
	C525.049194,20.908796 525.864990,21.170809 526.862671,21.702530 
	C526.167847,21.757462 525.291321,21.542683 524.324036,20.987343 
z"/>
<path fill="#2F537E" opacity="1.000000" stroke="none" 
	d="
M529.176697,23.205990 
	C529.591064,23.108404 530.166504,23.272978 530.900635,23.698990 
	C530.485474,23.796333 529.911621,23.632238 529.176697,23.205990 
z"/>
<path fill="#2F537E" opacity="1.000000" stroke="none" 
	d="
M527.174377,22.212734 
	C527.585449,22.117567 528.159119,22.282328 528.892273,22.706703 
	C528.480164,22.801764 527.908569,22.637213 527.174377,22.212734 
z"/>
<path fill="#2F537E" opacity="1.000000" stroke="none" 
	d="
M548.111450,34.192986 
	C548.299255,34.126194 548.595825,34.295723 548.993164,34.709435 
	C548.802673,34.778847 548.511414,34.604076 548.111450,34.192986 
z"/>
<path fill="#2F537E" opacity="1.000000" stroke="none" 
	d="
M559.113953,43.187828 
	C559.300598,43.127647 559.594421,43.308311 559.992554,43.732925 
	C559.804993,43.794144 559.513062,43.611408 559.113953,43.187828 
z"/>
<path fill="#2F537E" opacity="1.000000" stroke="none" 
	d="
M561.125793,45.137238 
	C561.320557,45.080307 561.610779,45.271008 561.993652,45.711136 
	C561.797974,45.768669 561.509583,45.576775 561.125793,45.137238 
z"/>
<path fill="#2F537E" opacity="1.000000" stroke="none" 
	d="
M562.135803,46.157299 
	C562.329529,46.096386 562.619263,46.279121 563.001343,46.708397 
	C562.806458,46.770271 562.519104,46.585609 562.135803,46.157299 
z"/>
<path fill="#2F537E" opacity="1.000000" stroke="none" 
	d="
M563.140137,47.150932 
	C563.336243,47.088402 563.627930,47.270718 564.010681,47.701519 
	C563.813110,47.765263 563.524414,47.580521 563.140137,47.150932 
z"/>
<path fill="#2F537E" opacity="1.000000" stroke="none" 
	d="
M564.143616,48.144501 
	C564.341003,48.082180 564.632263,48.266224 565.013916,48.699303 
	C564.815430,48.762512 564.526428,48.576691 564.143616,48.144501 
z"/>
<path fill="#2F537E" opacity="1.000000" stroke="none" 
	d="
M565.144653,49.142334 
	C565.342590,49.080124 565.633606,49.264820 566.014771,49.698822 
	C565.815796,49.761833 565.526794,49.575539 565.144653,49.142334 
z"/>
<path fill="#2F537E" opacity="1.000000" stroke="none" 
	d="
M566.144653,50.141972 
	C566.342529,50.080326 566.633118,50.265572 567.013123,50.700253 
	C566.814148,50.762745 566.525818,50.575802 566.144653,50.141972 
z"/>
<path fill="#2F537E" opacity="1.000000" stroke="none" 
	d="
M567.143066,51.143764 
	C567.340332,51.082924 567.630127,51.268593 568.009033,51.703468 
	C567.810547,51.765209 567.523071,51.577740 567.143066,51.143764 
z"/>
<path fill="#2F537E" opacity="1.000000" stroke="none" 
	d="
M568.140564,52.147491 
	C568.336853,52.087093 568.626160,52.272488 569.004883,52.706429 
	C568.807373,52.767750 568.520447,52.580521 568.140564,52.147491 
z"/>
<path fill="#2F537E" opacity="1.000000" stroke="none" 
	d="
M569.141479,53.153099 
	C569.337036,53.093437 569.629578,53.281387 570.015991,53.719414 
	C569.819458,53.779903 569.528992,53.590309 569.141479,53.153099 
z"/>
<path fill="#2F537E" opacity="1.000000" stroke="none" 
	d="
M578.138428,64.140900 
	C578.337158,64.088028 578.619324,64.282249 578.977051,64.728279 
	C578.775696,64.782722 578.498718,64.585350 578.138428,64.140900 
z"/>
<path fill="#2F537E" opacity="1.000000" stroke="none" 
	d="
M454.804443,509.170349 
	C454.970459,509.394989 454.865906,509.820404 454.493774,510.448395 
	C454.328766,510.224365 454.431335,509.797729 454.804443,509.170349 
z"/>
</svg>