<svg version="1.1" id="Layer_1" xmlns="http://www.w3.org/2000/svg" xmlns:xlink="http://www.w3.org/1999/xlink" x="0px" y="0px"
	 width="100%" viewBox="0 0 576 433" enable-background="new 0 0 576 433" xml:space="preserve">
<path fill="#000000" opacity="1.000000" stroke="none" 
	d="
M352.000000,434.000000 
	C234.666687,434.000000 117.833389,434.000000 1.000063,434.000000 
	C1.000042,289.666718 1.000042,145.333466 1.000021,1.000140 
	C192.999893,1.000093 384.999786,1.000093 576.999756,1.000047 
	C576.999878,145.333191 576.999878,289.666382 576.999939,433.999786 
	C502.166656,434.000000 427.333344,434.000000 352.000000,434.000000 
M276.874329,49.507004 
	C276.572479,49.407944 276.270630,49.308884 275.459167,48.978043 
	C275.020752,48.634731 274.582336,48.291416 273.963623,47.373814 
	C273.606201,47.291416 273.248779,47.209019 272.489105,47.066433 
	C272.489105,47.066433 272.087433,47.002831 271.768188,46.347038 
	C270.178467,45.890144 268.588776,45.433250 266.995575,45.005630 
	C266.995575,45.005630 267.022522,44.993912 266.716064,44.350098 
	C264.810150,43.561501 262.904205,42.772903 260.996338,42.004673 
	C260.996338,42.004673 261.016144,42.000107 260.746338,41.384682 
	C259.810150,40.996750 258.873993,40.608814 257.547241,40.085217 
	C257.547241,40.085217 257.149353,39.972813 256.965637,39.420776 
	C256.624115,39.332352 256.282562,39.243931 255.313354,39.105999 
	C254.895203,39.070831 254.477036,39.035664 253.729324,38.363842 
	C252.144012,37.976143 250.558716,37.588444 248.521454,37.067307 
	C248.521454,37.067307 248.058670,36.978462 247.698517,36.362961 
	C245.447433,35.649357 243.196335,34.935753 240.204666,34.039333 
	C234.216675,32.062679 228.264999,28.581221 222.232803,28.435553 
	C211.091675,28.166517 200.676605,23.124445 189.222687,24.848776 
	C181.519012,26.008526 173.413834,24.334990 165.641129,25.240685 
	C153.230331,26.686815 140.644653,28.161032 128.683304,31.560131 
	C112.629364,36.122234 97.138885,42.588963 83.316650,52.382832 
	C69.852859,61.922722 56.872776,71.702957 46.220734,84.777946 
	C37.196632,95.854706 29.091211,107.272942 22.612698,119.894508 
	C12.038465,140.495453 7.444163,162.649704 7.233624,185.600784 
	C7.143801,195.392517 8.234560,205.375244 10.262587,214.959320 
	C12.646176,226.223709 15.417699,237.712036 20.226927,248.080002 
	C26.300678,261.174072 34.613770,273.164001 44.430206,284.047150 
	C55.208454,295.996643 67.200737,306.443512 80.845100,314.827820 
	C92.524773,322.004944 96.135628,330.944519 90.759377,343.541321 
	C83.661682,360.171539 76.285233,376.682953 69.006088,393.235535 
	C65.685272,400.786987 62.310551,408.314728 58.357662,416.178284 
	C57.871960,417.424805 57.386257,418.671295 56.974342,420.001221 
	C56.974342,420.001221 56.909809,419.917023 56.327335,420.150848 
	C56.175987,420.744232 56.024639,421.337585 55.941116,421.907745 
	C55.941116,421.907745 55.862827,421.913666 55.246647,422.247101 
	C54.692085,424.285461 54.137527,426.323792 53.582966,428.362152 
	C54.010521,428.732178 54.438076,429.102173 54.865635,429.472168 
	C70.626282,420.002869 86.386932,410.533539 102.832603,400.921417 
	C114.093819,394.225281 125.382996,387.575653 136.608871,380.820801 
	C149.496582,373.065979 162.133789,364.867493 175.276031,357.575928 
	C180.854797,354.480682 185.780899,349.333038 193.680145,349.625488 
	C195.095993,349.030548 196.511841,348.435608 198.456085,347.888367 
	C198.631226,347.912933 198.806366,347.937531 199.131577,348.381775 
	C199.434265,348.261963 199.736969,348.142151 199.998306,347.996246 
	C199.998306,347.996246 200.003937,348.044769 200.510742,348.000183 
	C200.673828,347.954071 200.836899,347.907928 201.749893,347.938782 
	C202.500443,347.892761 203.250977,347.846741 204.775131,347.590424 
	C209.804459,346.318359 215.269119,345.906219 219.785126,343.620117 
	C236.266739,335.276794 252.353348,326.157562 268.739319,317.619568 
	C283.534821,309.910278 298.608978,302.735840 313.408356,295.033661 
	C326.401184,288.271667 339.183380,281.104950 352.785889,274.030487 
	C367.428436,266.404449 382.051819,258.741364 396.718658,251.162323 
	C412.610443,242.950256 428.582581,234.892914 444.441833,226.618927 
	C453.423065,221.933319 462.248047,216.948227 471.857666,212.003708 
	C482.818024,206.278732 493.812317,200.617050 504.710327,194.775772 
	C506.915283,193.593933 508.756317,191.733124 510.765137,190.185318 
	C508.674347,188.519852 506.603180,186.828506 504.473328,185.214554 
	C504.121063,184.947601 503.512268,185.019119 502.998047,184.992889 
	C502.998047,184.992889 503.059143,184.976074 502.815430,184.306976 
	C498.884735,182.191833 494.954041,180.076691 490.999512,177.999832 
	C490.999512,177.999832 491.036530,177.974579 490.747864,177.341873 
	C489.160309,176.569244 487.572754,175.796616 486.000488,174.999786 
	C486.000488,174.999786 485.977417,175.016312 485.719086,174.376099 
	C482.145386,172.238831 478.571655,170.101562 474.995667,168.005371 
	C474.995667,168.005371 475.036285,167.998840 474.786621,167.381897 
	C473.830994,166.999191 472.875336,166.616470 471.502380,166.088074 
	C471.502380,166.088074 471.068665,166.002579 470.776062,165.363785 
	C469.185364,164.560226 467.594666,163.756683 465.995300,163.005005 
	C465.995300,163.005005 466.047852,163.003250 465.887207,162.490631 
	C465.589935,162.309509 465.292633,162.128387 464.994843,162.002502 
	C464.994843,162.002502 465.048676,161.990173 464.766418,161.355484 
	C463.176910,160.558334 461.587402,159.761200 459.995178,159.005035 
	C459.995178,159.005035 460.035797,158.999008 459.764099,158.346191 
	C457.184143,156.877457 454.604218,155.408707 451.998383,153.995651 
	C451.998383,153.995651 452.054230,153.970413 451.803741,153.310532 
	C449.197235,151.869354 446.590729,150.428177 443.993530,149.007599 
	C443.993530,149.007599 444.014526,149.016022 443.714508,148.383545 
	C439.135864,145.906158 434.557251,143.428757 429.831451,140.517334 
	C429.656281,140.239517 429.405914,140.079117 428.755615,139.409393 
	C426.501862,138.262421 424.248108,137.115433 421.991699,136.005661 
	C421.991699,136.005661 422.028839,136.009216 421.876923,135.499222 
	C421.562378,135.415375 421.247803,135.331528 420.488495,135.121506 
	C420.488495,135.121506 420.035492,135.029266 419.746521,134.376709 
	C417.500275,133.229797 415.254028,132.082886 412.878296,130.507584 
	C412.716309,130.234985 412.480377,130.065094 411.892059,129.340088 
	C406.927948,126.549500 401.963867,123.758904 396.994934,121.006393 
	C396.994934,121.006393 397.033356,121.006836 396.875641,120.497360 
	C396.559875,120.406372 396.244110,120.315384 395.494232,120.093277 
	C395.494232,120.093277 395.049011,120.007011 394.883148,119.499123 
	C394.587585,119.319122 394.291992,119.139114 393.993988,119.001625 
	C393.993988,119.001625 394.034546,118.988892 393.821320,118.364014 
	C392.906586,117.878571 391.991821,117.393120 390.993530,116.949615 
	C390.993530,116.949615 391.082123,116.927971 390.888458,116.255890 
	C389.275909,115.472878 387.663330,114.689873 386.012390,113.962891 
	C386.012390,113.962891 386.080170,113.967354 385.916321,113.441437 
	C385.591949,113.350037 385.267548,113.258644 384.511780,113.065582 
	C384.511780,113.065582 384.075348,112.988258 383.788147,112.428566 
	C383.190704,112.271065 382.593231,112.113564 381.991089,112.009155 
	C381.991089,112.009155 382.042419,111.994827 381.866425,111.521408 
	C381.570129,111.422180 381.273804,111.322945 380.459717,110.982391 
	C379.997009,110.656303 379.534332,110.330215 378.894012,109.500587 
	C378.580383,109.400070 378.266785,109.299553 377.527435,109.070824 
	C377.527435,109.070824 377.088745,108.998711 376.890198,108.499550 
	C376.572784,108.396149 376.255341,108.292747 375.449249,107.954712 
	C375.020996,107.632011 374.592743,107.309311 373.904572,106.333832 
	C372.905853,105.953087 371.907166,105.572350 370.465973,105.086678 
	C370.465973,105.086678 370.016571,105.017044 369.736847,104.390175 
	C368.151703,103.596466 366.566528,102.802757 364.797241,101.560394 
	C364.607025,101.276527 364.344971,101.098297 363.761200,100.356277 
	C362.513428,99.884659 361.265625,99.413040 359.999481,98.998482 
	C359.999481,98.998482 360.059052,98.991638 359.895172,98.481857 
	C359.597595,98.304428 359.300018,98.126999 358.994385,98.002487 
	C358.994385,98.002487 359.044525,97.983810 358.792511,97.347443 
	C357.826477,96.958733 356.860474,96.570030 355.489441,96.075363 
	C355.489441,96.075363 355.076355,96.007248 354.788239,95.377197 
	C353.202209,94.559914 351.616211,93.742630 350.009094,92.986946 
	C350.009094,92.986946 350.074219,92.986359 349.914368,92.469780 
	C349.613312,92.292847 349.312286,92.115913 349.004272,91.997742 
	C349.004272,91.997742 349.053406,91.964722 348.719299,91.366631 
	C347.481720,90.908012 346.244110,90.449394 345.000000,90.000000 
	C345.000000,90.000000 345.008118,89.992867 344.778931,89.373962 
	C343.863708,88.891228 342.948456,88.408493 342.006775,87.984398 
	C342.006775,87.984398 342.070831,87.978416 341.914642,87.452782 
	C341.592773,87.368927 341.270935,87.285072 340.476990,87.105087 
	C340.476990,87.105087 340.003082,87.018364 339.781006,86.383858 
	C338.867981,85.891479 337.954987,85.399101 337.009399,84.971130 
	C337.009399,84.971130 337.077972,84.948624 336.791718,84.309296 
	C334.541504,83.187798 332.291290,82.066307 330.001648,80.993027 
	C330.001648,80.993027 330.061859,80.977097 329.915405,80.429070 
	C329.579498,80.346123 329.243561,80.263168 328.458466,80.088768 
	C328.458466,80.088768 328.003845,80.030212 327.766418,79.387749 
	C326.818909,78.987328 325.871399,78.586906 324.499573,78.063545 
	C324.499573,78.063545 324.064087,77.989357 323.876282,77.495987 
	C323.579041,77.328857 323.281830,77.161728 322.816650,76.551521 
	C322.638184,76.270752 322.388336,76.087067 321.921478,75.452179 
	C321.587921,75.363586 321.254395,75.274994 320.501312,75.093956 
	C320.501312,75.093956 320.081635,75.002243 319.911224,74.472862 
	C319.583740,74.377045 319.256226,74.281227 318.429565,73.968079 
	C317.999756,73.643578 317.569946,73.319077 316.891876,72.311829 
	C313.940399,70.849022 310.988892,69.386215 308.002838,67.983635 
	C308.002838,67.983635 308.066864,67.956703 307.825928,67.281601 
	C306.355042,66.690117 304.884125,66.098625 303.542236,65.408310 
	C303.542236,65.408310 303.464966,65.265358 303.097321,64.740082 
	C301.390533,63.834705 299.683777,62.929325 298.000000,62.000381 
	C298.000000,62.000381 297.975098,62.020500 297.839874,61.552307 
	C297.638641,61.214146 297.355347,61.118210 296.349457,61.095730 
	C295.268860,60.393089 294.188263,59.690445 292.931274,58.446095 
	C292.595642,58.354923 292.260040,58.263756 291.527710,58.077286 
	C291.527710,58.077286 291.129547,57.988308 290.877258,57.308052 
	C288.597107,56.186195 286.316925,55.064335 283.995880,53.986279 
	C283.995880,53.986279 284.054108,53.972393 283.891968,53.461632 
	C283.574890,53.371647 283.257843,53.281662 282.501465,53.080044 
	C282.501465,53.080044 282.054321,53.005501 281.874878,52.522465 
	C281.572601,52.424267 281.270325,52.326065 280.508606,52.089527 
	C280.508606,52.089527 280.035736,52.008167 279.867249,51.529629 
	C279.570557,51.431107 279.273895,51.332581 278.525421,51.089680 
	C278.525421,51.089680 278.059662,51.000202 277.887787,50.496059 
	C277.593048,50.316391 277.298279,50.136723 276.993744,50.006565 
	C276.993744,50.006565 277.042206,49.992630 276.874329,49.507004 
M418.915314,276.015076 
	C426.291382,272.710083 433.667450,269.405060 441.673584,266.005646 
	C442.149567,265.683838 442.625549,265.362030 443.846802,264.988617 
	C448.579285,262.693085 453.311768,260.397552 458.806458,258.021606 
	C475.369019,250.676849 491.931580,243.332108 509.208893,235.670395 
	C498.931946,253.301025 489.137634,270.103699 479.343323,286.906403 
	C481.538544,286.884186 482.968048,286.403931 483.862579,285.431549 
	C493.192719,275.289246 502.284760,264.924408 511.739868,254.901474 
	C526.844177,238.890076 542.191772,223.108353 557.397766,207.192490 
	C562.167419,202.200119 566.818237,197.093994 571.510925,192.028336 
	C572.860840,190.571121 574.513306,189.185562 571.419250,187.667282 
	C567.696655,185.840530 564.117310,183.724457 560.427490,181.827805 
	C543.970215,173.368164 527.474060,164.984055 511.033569,156.491974 
	C495.064087,148.243179 479.125488,139.933899 463.211548,131.578384 
	C453.133881,126.287170 443.161011,120.796059 433.077850,115.515465 
	C421.219238,109.305061 409.315186,103.180161 397.382660,97.112923 
	C393.010498,94.889854 388.500549,92.937836 383.773651,90.199142 
	C369.537811,82.791313 355.364197,75.260544 341.045288,68.016930 
	C330.718597,62.792908 320.128845,58.089821 309.787140,52.894215 
	C301.758026,48.860443 293.930817,44.424702 285.287018,40.007572 
	C272.184387,33.106857 259.081757,26.206142 245.979111,19.305426 
	C245.675034,19.860838 245.370956,20.416250 245.066879,20.971661 
	C258.337860,28.332602 271.608856,35.693542 285.166016,43.703590 
	C297.178558,50.674755 309.187286,57.652573 321.204620,64.615448 
	C337.686188,74.164909 354.161682,83.724976 370.666077,93.234856 
	C376.927094,96.842453 383.261108,100.323311 389.895081,104.425468 
	C394.175537,107.041985 398.417542,109.724060 402.743347,112.263290 
	C418.801544,121.689407 434.862091,131.112106 450.970062,140.452789 
	C466.605164,149.519302 482.383728,158.341217 497.942322,167.536102 
	C511.229156,175.388397 524.293396,183.617386 537.660522,191.804977 
	C531.890747,194.596558 526.052368,197.277084 520.343018,200.209061 
	C497.605713,211.885605 474.893311,223.610916 452.209839,235.391586 
	C447.707428,237.729904 443.373138,240.391861 438.229004,243.002426 
	C435.098755,244.679916 432.004547,246.429138 428.832123,248.022598 
	C414.240112,255.351990 399.600952,262.587830 385.026337,269.951508 
	C364.433624,280.355774 343.895599,290.868225 323.310028,301.286621 
	C307.754913,309.159088 292.132385,316.898529 276.592987,324.801666 
	C255.511246,335.523590 234.465668,346.316956 213.431732,357.132446 
	C193.584076,367.338043 173.771576,377.612000 153.261749,387.948181 
	C152.166031,388.607056 151.070312,389.265930 149.358063,389.991669 
	C148.889267,390.283051 148.420471,390.574463 147.209045,390.963593 
	C121.290962,403.945557 95.372879,416.927521 69.454796,429.909485 
	C69.607834,430.298309 69.760872,430.687164 69.913910,431.075989 
	C71.091843,430.812592 72.351349,430.734344 73.434937,430.256866 
	C82.942711,426.067139 92.416191,421.799591 101.905563,417.567993 
	C112.768311,412.723907 123.651459,407.925262 134.497955,403.045135 
	C141.749985,399.782257 148.953537,396.411652 156.926682,393.019409 
	C163.464050,390.308075 170.062790,387.734436 176.524643,384.853699 
	C186.599884,380.362030 196.557877,375.608124 206.610886,371.065643 
	C216.409409,366.638153 226.271912,362.352478 236.093399,357.975494 
	C246.597580,353.294281 257.079437,348.562988 267.584747,343.884216 
	C275.052185,340.558411 282.554321,337.310333 290.019470,333.979431 
	C300.425415,329.336395 310.803101,324.629944 321.208618,319.985901 
	C328.545227,316.711578 335.924652,313.532837 343.255157,310.244995 
	C353.746979,305.539154 364.231659,300.816315 374.682831,296.021118 
	C387.808685,289.998749 400.897614,283.895966 414.718170,277.976776 
	C415.868073,277.338928 417.017944,276.701080 418.915314,276.015076 
z"/>
<path fill="#197BB9" opacity="1.000000" stroke="none" 
	d="
M395.049011,120.007019 
	C395.049011,120.007011 395.494232,120.093277 395.866455,120.328934 
	C396.466705,120.778206 396.731598,120.925621 397.033356,121.006836 
	C397.033356,121.006836 396.994934,121.006393 397.001526,121.315506 
	C397.345795,122.400833 397.683472,123.177040 398.120056,124.070694 
	C398.218994,124.188141 398.641174,124.253105 398.641174,124.253105 
	C398.641174,124.253105 398.988159,123.973289 399.330811,124.034920 
	C401.445068,125.078133 403.216705,126.059708 405.013672,127.410004 
	C407.705933,129.505447 410.372864,131.232178 413.278381,132.982407 
	C413.516937,133.005890 413.994202,133.051453 414.096619,133.362366 
	C415.130920,134.112900 416.062805,134.552521 417.374359,134.999969 
	C418.514526,135.014954 419.275024,135.022110 420.035492,135.029266 
	C420.035492,135.029266 420.488495,135.121506 420.864380,135.351715 
	C421.468292,135.788589 421.731171,135.931030 422.028839,136.009216 
	C422.028839,136.009216 421.991699,136.005661 422.064880,136.339035 
	C424.452148,137.793655 426.766235,138.914886 429.080322,140.036133 
	C429.405914,140.079117 429.656281,140.239517 429.992798,141.065887 
	C434.087585,145.367569 438.018921,149.124634 444.014526,149.016022 
	C444.014526,149.016022 443.993530,149.007599 444.048553,149.359741 
	C445.289337,153.865524 449.002594,153.300354 452.054230,153.970413 
	C452.054230,153.970413 451.998383,153.995651 452.060486,154.317993 
	C454.760315,156.093231 457.398041,157.546112 460.035797,158.999008 
	C460.035797,158.999008 459.995178,159.005035 460.067047,159.341599 
	C461.775513,160.448837 463.412079,161.219498 465.048676,161.990173 
	C465.048676,161.990173 464.994843,162.002502 465.124207,162.193619 
	C465.518372,162.590912 465.783112,162.797073 466.047852,163.003235 
	C466.047852,163.003250 465.995300,163.005005 466.091095,163.317749 
	C467.814148,164.421188 469.441406,165.211884 471.068665,166.002579 
	C471.068665,166.002579 471.502380,166.088074 471.844391,166.457001 
	C473.136353,167.216904 474.086334,167.607864 475.036285,167.998840 
	C475.036285,167.998840 474.995667,168.005371 475.058899,168.328659 
	C478.740540,170.773407 482.358978,172.894867 485.977417,175.016327 
	C485.977417,175.016312 486.000488,174.999786 486.092407,175.342651 
	C487.801727,176.448532 489.419128,177.211563 491.036530,177.974579 
	C491.036530,177.974579 490.999512,177.999832 491.074829,178.329056 
	C495.119812,180.764206 499.089478,182.870148 503.059143,184.976074 
	C503.059143,184.976074 502.998047,184.992889 503.057037,185.294708 
	C504.182648,186.966370 505.249268,188.336197 507.025055,190.616776 
	C498.265015,194.906311 489.737396,198.792328 481.506317,203.228470 
	C477.046600,205.632019 473.092316,208.973358 468.528870,211.917816 
	C460.104309,215.604874 452.060852,219.265823 443.747345,222.929688 
	C443.297668,222.945343 443.118073,222.958069 442.672485,223.024002 
	C441.956726,223.355347 441.506989,223.633469 440.670471,223.942749 
	C435.257355,226.038040 430.233398,228.107910 425.204254,230.165161 
	C405.780609,238.110764 386.355347,246.052322 366.697601,253.764374 
	C364.536133,250.453079 362.413788,247.474899 360.725525,244.268173 
	C358.297546,239.656296 356.215729,234.863327 353.930359,230.174835 
	C351.472412,225.132309 351.832336,224.153702 356.692657,221.748566 
	C357.783875,221.208557 358.745728,220.117279 359.410278,219.056274 
	C361.963074,214.980484 364.373993,210.815735 366.831238,206.680222 
	C367.926941,204.836121 368.899933,203.004730 365.671692,201.962921 
	C365.477203,201.918121 365.099823,201.787903 364.909180,201.449356 
	C362.997894,200.743256 361.278107,200.059967 359.556458,200.055191 
	C330.459229,199.974243 301.361755,199.962051 272.264435,200.000916 
	C270.496674,200.003281 268.729614,200.559662 266.741272,200.914413 
	C266.520325,200.970566 266.066559,201.015533 265.712799,201.072784 
	C260.300812,206.397964 258.477600,213.079956 257.091370,220.312653 
	C257.345734,221.525208 257.633484,222.392654 257.921234,223.260117 
	C258.628784,222.549545 259.336334,221.838974 260.366577,221.123718 
	C261.119537,221.124466 261.549774,221.129913 262.218201,221.424881 
	C269.634369,221.518188 276.812378,221.321960 284.385925,221.117035 
	C285.833221,221.126007 286.884888,221.143677 288.115417,221.505432 
	C290.010132,222.228333 291.721741,222.909851 293.442719,222.934402 
	C301.599823,223.050888 309.761200,223.087433 317.917450,222.945541 
	C321.766296,222.878616 324.175873,224.509491 325.719757,227.923370 
	C329.589996,236.481308 333.419678,245.062622 337.572632,253.483170 
	C338.329834,255.018433 340.539703,255.837265 342.315613,257.033142 
	C342.552216,257.079468 343.009613,257.232117 343.266602,257.409912 
	C344.337341,257.735565 345.151093,257.883392 346.078613,258.341400 
	C347.488007,259.449341 348.783600,260.247131 349.833130,261.292633 
	C341.207092,265.138214 332.849396,268.789001 324.442474,272.322754 
	C307.125031,279.601990 289.768311,286.787842 272.452026,294.069824 
	C255.295654,301.284576 238.285965,308.863678 220.999008,315.748291 
	C200.791962,323.795868 180.496521,331.282043 163.241089,345.332916 
	C144.566345,360.539490 125.123878,374.802979 106.023560,389.487244 
	C96.689850,396.663025 87.372780,403.860443 78.036255,411.035400 
	C78.024338,411.022766 78.031326,411.035706 77.713669,411.072174 
	C76.600235,411.747528 75.804459,412.386444 75.006165,413.012024 
	C75.003647,412.998688 75.025444,413.016113 74.699677,413.068329 
	C73.253754,414.105072 72.133591,415.089569 70.773499,416.294189 
	C69.031158,417.349426 67.528755,418.184540 65.809555,419.140625 
	C65.318207,419.456085 65.092331,419.696381 64.695251,420.001038 
	C64.475357,420.019623 64.035484,420.055725 63.689095,420.042175 
	C58.141068,418.885620 61.134525,415.664703 62.079151,413.627625 
	C64.019058,409.444397 67.101051,405.742523 68.707939,401.464966 
	C70.898399,395.633911 71.680115,389.157806 77.391731,387.162537 
	C77.391731,384.372650 76.847382,382.373474 77.476898,380.863800 
	C83.072021,367.445679 88.848595,354.102783 94.627190,340.761780 
	C97.607689,333.880707 95.594254,323.040436 89.830780,318.465302 
	C81.198524,311.612915 71.915695,305.546204 63.570999,298.375641 
	C56.164085,292.010925 49.515968,284.730530 42.832596,277.574432 
	C40.533772,275.113007 39.236710,271.740875 37.311230,268.900513 
	C33.804211,263.727173 29.678871,258.905365 26.728390,253.441727 
	C23.869980,248.148605 22.738468,241.914886 19.826962,236.660294 
	C14.664697,227.343582 12.552012,217.428085 12.353558,206.886169 
	C13.467587,203.510666 14.230008,200.249374 14.993085,196.584961 
	C14.984916,195.103546 14.976089,194.025269 14.983782,192.545197 
	C19.638746,164.061462 29.932467,138.517929 47.842976,116.066635 
	C68.055748,90.729393 93.636345,73.001038 123.947479,62.454666 
	C149.083206,53.709019 175.176758,48.741863 201.908981,52.185722 
	C219.317078,54.428368 236.862808,57.203266 253.686707,62.037273 
	C285.823364,71.271072 314.690002,88.403397 344.776611,102.553864 
	C354.984131,107.354706 364.905365,112.764305 375.255432,118.073845 
	C377.371429,119.120766 379.189423,119.989563 381.007446,120.858360 
	C381.191986,120.595779 381.376526,120.333199 381.561066,120.070610 
	C381.019806,119.383308 380.478516,118.696007 380.288574,117.858223 
	C384.098938,118.128960 387.557922,118.550163 391.393677,118.985138 
	C392.525116,118.995567 393.279816,118.992233 394.034546,118.988892 
	C394.034546,118.988892 393.993988,119.001625 394.123657,119.198349 
	C394.518555,119.599052 394.783783,119.803040 395.049011,120.007019 
M286.217896,149.219330 
	C286.217896,149.219330 286.650574,149.291077 286.650574,149.291077 
	C286.650574,149.291077 287.028656,149.042740 287.505066,149.045593 
	C287.505066,149.045593 287.981018,149.023911 287.999634,149.000549 
	C287.999634,149.000549 287.975555,149.016785 288.140930,149.422043 
	C288.292419,149.678436 288.491364,149.890289 288.892639,150.453018 
	C288.892639,150.453018 288.983185,150.867981 288.976807,151.660217 
	C291.186707,156.569992 293.207642,161.577591 295.679443,166.351761 
	C297.095856,169.087479 299.244812,171.443939 301.006744,174.003403 
	C301.006744,174.003403 301.033844,173.944275 300.986511,174.767044 
	C301.063477,179.559372 302.499054,183.615280 307.007141,186.004257 
	C307.007141,186.004257 307.028381,185.946655 306.989777,186.788696 
	C307.924011,188.482544 308.763123,191.573517 309.807800,191.644653 
	C316.849915,192.124146 323.935547,191.963455 331.638519,191.791611 
	C331.562286,189.845123 332.055084,187.643433 331.315491,185.994461 
	C327.180939,176.776047 322.845856,167.643494 318.395935,158.571564 
	C310.959381,143.410919 303.387787,128.316513 295.864777,113.198318 
	C294.390411,110.235474 292.442474,108.855568 288.704712,109.424194 
	C284.147583,110.117470 279.426025,109.659088 274.791016,109.947174 
	C273.026062,110.056862 270.054596,110.521309 269.817413,111.408257 
	C269.293182,113.368439 269.728790,115.874237 270.537842,117.843124 
	C272.332947,122.211525 274.362488,126.524132 276.737701,130.602509 
	C279.234924,134.890366 282.246643,138.878586 284.997101,143.001785 
	C284.997101,143.001785 285.006470,142.966263 284.978912,143.723236 
	C285.000427,144.479263 285.021942,145.235275 285.056000,146.503357 
	C285.063690,146.673920 285.071381,146.844482 285.142548,147.575974 
	C285.429047,148.049561 285.715576,148.523148 286.217896,149.219330 
M388.391266,124.458229 
	C388.935272,124.704491 389.479279,124.950745 390.404968,125.703423 
	C391.886536,126.723724 393.368103,127.744034 394.849670,128.764343 
	C395.183228,128.272903 395.516785,127.781464 395.850372,127.290024 
	C393.897949,126.194885 391.945557,125.099754 389.335724,123.985931 
	C388.897614,123.983284 388.459473,123.980637 387.728546,123.379608 
	C386.585663,122.623833 385.442780,121.868057 384.299896,121.112274 
	C384.069794,121.649895 383.839691,122.187515 383.609558,122.725136 
	C385.069519,123.155769 386.529480,123.586411 388.391266,124.458229 
M232.865707,239.901047 
	C237.818237,230.607819 242.996918,221.426651 247.670609,211.995224 
	C254.791489,197.625397 261.613373,183.106094 268.436523,168.591187 
	C269.682343,165.941010 270.328430,163.008881 271.884399,159.950226 
	C275.465637,156.839798 276.410309,153.272308 273.962921,148.976913 
	C271.018341,143.808975 268.071838,138.637100 265.326447,133.362686 
	C263.831573,130.490723 262.349823,130.547028 260.524750,132.842789 
	C259.602142,134.003342 258.661682,135.202148 258.019257,136.524521 
	C253.759476,145.292892 249.719925,154.170715 245.339035,162.877213 
	C238.414261,176.639267 231.152390,190.232086 224.263901,204.011856 
	C216.352921,219.837051 208.621948,235.754135 201.053589,251.745239 
	C200.415497,253.093475 201.599319,255.303955 202.653397,257.534088 
	C208.945724,257.671936 215.239319,257.923920 221.529297,257.852875 
	C222.810913,257.838440 224.725586,256.930023 225.243561,255.885712 
	C227.784943,250.761871 229.953201,245.452957 232.865707,239.901047 
M193.012955,220.439606 
	C186.944962,227.050461 179.915863,232.383377 171.629379,235.862213 
	C160.847870,240.388535 149.690460,240.534744 138.185745,239.135147 
	C125.517853,237.594025 115.070778,231.489166 107.335121,222.401688 
	C92.259277,204.691299 90.480446,184.064911 97.928192,162.335098 
	C101.701218,151.326767 109.342125,143.236038 118.698608,137.394302 
	C128.210999,131.455231 139.180115,129.441727 150.720947,129.904144 
	C166.222427,130.525223 179.499512,135.341949 190.102905,146.925018 
	C190.659271,147.532806 192.621536,147.809357 193.130493,147.351700 
	C196.789139,144.062073 200.351440,140.643585 203.671814,137.016525 
	C204.393494,136.228195 204.652054,133.838165 204.046524,133.185654 
	C190.446533,118.530151 173.260254,111.032211 153.585419,110.176888 
	C144.868942,109.797951 135.810043,111.147789 127.307938,113.299042 
	C110.940094,117.440536 97.068863,126.366379 87.411140,140.316681 
	C74.199074,159.401169 69.389015,180.312714 75.451431,203.446075 
	C80.681549,223.403473 91.547028,238.730255 109.406433,249.016357 
	C120.734955,255.541016 132.747284,259.620972 146.080460,259.109528 
	C150.655823,258.934021 155.479965,260.471222 159.801910,259.498901 
	C167.733871,257.714417 175.532318,255.031662 183.087280,251.982193 
	C188.223923,249.908890 193.447311,247.533279 195.519714,241.249039 
	C197.070786,236.545654 199.717667,232.203644 202.077988,227.280731 
	C199.352264,224.958984 196.493423,222.523849 193.012955,220.439606 
M400.524567,130.917084 
	C399.788361,130.380524 399.052155,129.843948 398.315948,129.307373 
	C398.095123,129.703781 397.874298,130.100189 397.653473,130.496597 
	C398.479584,130.777802 399.305664,131.058990 400.524567,130.917084 
M92.510872,352.457611 
	C93.154648,352.515320 93.798424,352.573059 94.442200,352.630768 
	C94.418823,352.053253 94.395447,351.475769 94.372070,350.898254 
	C93.798569,351.240265 93.225067,351.582275 92.510872,352.457611 
z"/>
<path fill="#BDBDBD" opacity="1.000000" stroke="none" 
	d="
M384.053436,90.862175 
	C388.500549,92.937836 393.010498,94.889854 397.382660,97.112923 
	C409.315186,103.180161 421.219238,109.305061 433.077850,115.515465 
	C443.161011,120.796059 453.133881,126.287170 463.211548,131.578384 
	C479.125488,139.933899 495.064087,148.243179 511.033569,156.491974 
	C527.474060,164.984055 543.970215,173.368164 560.427490,181.827805 
	C564.117310,183.724457 567.696655,185.840530 571.419250,187.667282 
	C574.513306,189.185562 572.860840,190.571121 571.510925,192.028336 
	C566.818237,197.093994 562.167419,202.200119 557.397766,207.192490 
	C542.191772,223.108353 526.844177,238.890076 511.739868,254.901474 
	C502.284760,264.924408 493.192719,275.289246 483.862579,285.431549 
	C482.968048,286.403931 481.538544,286.884186 479.343323,286.906403 
	C489.137634,270.103699 498.931946,253.301025 509.208893,235.670395 
	C491.931580,243.332108 475.369019,250.676849 458.182190,257.832306 
	C456.705261,257.428680 455.852631,257.214355 454.727295,256.829071 
	C453.303040,255.772095 452.151520,254.886047 450.910614,253.679840 
	C449.547485,252.573120 448.273743,251.786560 446.861572,250.806580 
	C446.515717,250.369141 446.274658,250.164749 445.828247,249.712097 
	C443.770996,248.282806 441.885498,247.141403 439.947876,245.676102 
	C439.584290,244.536331 439.272827,243.720459 438.961334,242.904572 
	C443.373138,240.391861 447.707428,237.729904 452.209839,235.391586 
	C474.893311,223.610916 497.605713,211.885605 520.343018,200.209061 
	C526.052368,197.277084 531.890747,194.596558 537.660522,191.804977 
	C524.293396,183.617386 511.229156,175.388397 497.942322,167.536102 
	C482.383728,158.341217 466.605164,149.519302 450.970062,140.452789 
	C434.862091,131.112106 418.801544,121.689407 402.743347,112.263290 
	C398.417542,109.724060 394.175537,107.041985 389.805664,103.722977 
	C390.127136,99.033966 387.177399,98.496880 384.376740,97.884666 
	C380.343842,97.003105 377.653351,95.070000 377.783203,90.862175 
	C380.155396,90.862175 382.104401,90.862175 384.053436,90.862175 
z"/>
<path fill="#126097" opacity="1.000000" stroke="none" 
	d="
M366.930664,253.995392 
	C386.355347,246.052322 405.780609,238.110764 425.204254,230.165161 
	C430.233398,228.107910 435.257355,226.038040 440.568237,224.282166 
	C437.660492,226.610138 434.600830,228.889343 431.251343,230.601669 
	C420.573395,236.060410 409.795624,241.324417 399.038788,246.627853 
	C395.933807,248.158722 392.704803,249.446289 389.643860,251.056717 
	C378.542145,256.897583 367.454498,262.767548 356.449707,268.787628 
	C354.719818,269.733948 353.446106,271.514191 351.580872,272.942566 
	C348.130920,274.161530 344.907074,275.055756 342.021759,276.587677 
	C334.002075,280.845581 326.196350,285.507385 318.165466,289.742920 
	C311.739014,293.132233 305.044495,296.010040 298.578888,299.328949 
	C286.828796,305.360474 275.166107,311.562134 263.456116,317.671997 
	C253.483871,322.875183 243.570389,328.198425 233.494293,333.192993 
	C223.978928,337.909607 215.235748,344.626343 203.692566,345.146301 
	C202.582611,345.765808 201.782135,346.361877 200.779907,347.102051 
	C200.319107,347.463715 200.127701,347.729919 200.003937,348.044769 
	C200.003937,348.044769 199.998306,347.996246 199.754974,347.984558 
	C199.334915,347.969269 199.158203,347.965668 198.981506,347.962097 
	C198.806366,347.937531 198.631226,347.912933 197.939545,347.677429 
	C195.964005,347.623199 194.504990,347.779907 192.753525,347.767883 
	C188.451096,348.883179 184.049011,349.495789 180.499588,351.568481 
	C165.764206,360.173279 151.344604,369.316620 136.694519,378.070496 
	C125.517899,384.748871 114.147034,391.101746 102.935295,397.722534 
	C101.969925,398.292603 101.550385,399.786987 100.502747,400.889832 
	C94.414612,403.846313 88.731598,406.827667 82.966736,409.641296 
	C81.457779,410.377716 79.694595,410.593292 78.048172,411.048065 
	C87.372780,403.860443 96.689850,396.663025 106.023560,389.487244 
	C125.123878,374.802979 144.566345,360.539490 163.241089,345.332916 
	C180.496521,331.282043 200.791962,323.795868 220.999008,315.748291 
	C238.285965,308.863678 255.295654,301.284576 272.452026,294.069824 
	C289.768311,286.787842 307.125031,279.601990 324.442474,272.322754 
	C332.849396,268.789001 341.207092,265.138214 350.195923,261.264587 
	C352.527222,259.998718 354.249634,259.008606 356.422363,258.009888 
	C359.798859,258.001282 362.725037,258.001282 365.612335,258.001282 
	C366.129791,256.428925 366.530212,255.212143 366.930664,253.995392 
z"/>
<path fill="#247CB0" opacity="1.000000" stroke="none" 
	d="
M391.016907,118.971375 
	C387.557922,118.550163 384.098938,118.128960 379.986450,117.718918 
	C377.881042,117.159370 376.429047,116.588646 374.677795,115.850998 
	C343.124603,97.257477 311.935486,78.719482 280.574524,60.477001 
	C271.968750,55.471081 263.148590,50.583954 253.909225,46.963062 
	C223.859634,35.186699 192.727631,30.218349 160.442276,34.002823 
	C140.230515,36.372040 120.943115,42.048298 102.867577,51.250198 
	C85.089188,60.300835 69.506409,72.374634 56.021774,87.249489 
	C40.198143,104.704491 28.741426,124.582611 21.858736,146.997421 
	C18.945045,156.486420 17.322193,166.371796 14.876772,175.807236 
	C13.920309,173.895447 13.199710,172.253418 12.479112,170.611404 
	C11.292069,174.169327 11.963835,177.540787 11.166309,180.518768 
	C8.758824,189.508331 10.505480,198.218201 12.001948,207.000366 
	C12.552012,217.428085 14.664697,227.343582 19.826962,236.660294 
	C22.738468,241.914886 23.869980,248.148605 26.728390,253.441727 
	C29.678871,258.905365 33.804211,263.727173 37.311230,268.900513 
	C39.236710,271.740875 40.533772,275.113007 42.832596,277.574432 
	C49.515968,284.730530 56.164085,292.010925 63.570999,298.375641 
	C71.915695,305.546204 81.198524,311.612915 89.830780,318.465302 
	C95.594254,323.040436 97.607689,333.880707 94.627190,340.761780 
	C88.848595,354.102783 83.072021,367.445679 77.476898,380.863800 
	C76.847382,382.373474 77.391731,384.372650 77.391731,387.162537 
	C71.680115,389.157806 70.898399,395.633911 68.707939,401.464966 
	C67.101051,405.742523 64.019058,409.444397 62.079151,413.627625 
	C61.134525,415.664703 58.141068,418.885620 63.502533,420.320984 
	C62.288902,421.700317 60.952255,422.838257 59.533855,423.863068 
	C57.055847,425.653412 56.117523,424.390594 55.862827,421.913666 
	C55.862827,421.913666 55.941116,421.907745 56.135635,421.732483 
	C56.523369,421.010498 56.716587,420.463776 56.909805,419.917023 
	C56.909809,419.917023 56.974342,420.001221 57.284393,419.867188 
	C58.049728,418.439819 58.505009,417.146545 58.960281,415.853241 
	C62.310551,408.314728 65.685272,400.786987 69.006088,393.235535 
	C76.285233,376.682953 83.661682,360.171539 90.759377,343.541321 
	C96.135628,330.944519 92.524773,322.004944 80.845100,314.827820 
	C67.200737,306.443512 55.208454,295.996643 44.430206,284.047150 
	C34.613770,273.164001 26.300678,261.174072 20.226927,248.080002 
	C15.417699,237.712036 12.646176,226.223709 10.262587,214.959320 
	C8.234560,205.375244 7.143801,195.392517 7.233624,185.600784 
	C7.444163,162.649704 12.038465,140.495453 22.612698,119.894508 
	C29.091211,107.272942 37.196632,95.854706 46.220734,84.777946 
	C56.872776,71.702957 69.852859,61.922722 83.316650,52.382832 
	C97.138885,42.588963 112.629364,36.122234 128.683304,31.560131 
	C140.644653,28.161032 153.230331,26.686815 165.641129,25.240685 
	C173.413834,24.334990 181.519012,26.008526 189.222687,24.848776 
	C200.676605,23.124445 211.091675,28.166517 222.232803,28.435553 
	C228.264999,28.581221 234.216675,32.062679 240.716705,34.446640 
	C243.505402,35.562119 245.782028,36.270290 248.058670,36.978462 
	C248.058670,36.978462 248.521454,37.067307 248.899033,37.453857 
	C250.870697,38.227104 252.464798,38.613800 254.058884,39.000500 
	C254.477036,39.035664 254.895203,39.070831 255.803818,39.302429 
	C256.546539,39.715961 256.831543,39.873947 257.149353,39.972813 
	C257.149353,39.972813 257.547241,40.085217 257.868958,40.449646 
	C259.132507,41.209419 260.074310,41.604763 261.016144,42.000107 
	C261.016144,42.000107 260.996338,42.004673 261.101257,42.327881 
	C263.144928,43.432034 265.083740,44.212971 267.022522,44.993912 
	C267.022522,44.993912 266.995575,45.005630 267.194977,45.291496 
	C268.958740,46.052517 270.523071,46.527676 272.087433,47.002831 
	C272.087433,47.002831 272.489105,47.066433 272.870544,47.276115 
	C273.549286,47.639904 273.846588,47.794006 274.143921,47.948105 
	C274.582336,48.291416 275.020752,48.634731 275.867432,49.258102 
	C276.498779,49.744328 276.754303,49.895817 277.042206,49.992630 
	C277.042206,49.992630 276.993744,50.006565 277.132690,50.195206 
	C277.534302,50.589298 277.796967,50.794754 278.059662,51.000206 
	C278.059662,51.000202 278.525421,51.089680 278.902527,51.323959 
	C279.500183,51.761143 279.752197,51.911121 280.035736,52.008167 
	C280.035736,52.008167 280.508606,52.089527 280.894043,52.322315 
	C281.506012,52.759884 281.764282,52.910019 282.054321,53.005501 
	C282.054321,53.005501 282.501465,53.080044 282.880646,53.302078 
	C283.490753,53.733501 283.755524,53.882931 284.054108,53.972393 
	C284.054108,53.972393 283.995880,53.986279 284.090942,54.306335 
	C286.500549,55.747028 288.815033,56.867668 291.129547,57.988308 
	C291.129547,57.988308 291.527710,58.077286 291.896667,58.298294 
	C292.511841,58.737434 292.792511,58.893600 293.107666,58.987801 
	C294.188263,59.690445 295.268860,60.393089 296.806946,61.339684 
	C297.468872,61.782001 297.705780,61.927624 297.975098,62.020500 
	C297.975098,62.020500 298.000000,62.000381 298.085022,62.341278 
	C299.934998,63.543240 301.699982,64.404297 303.464966,65.265358 
	C303.464966,65.265358 303.542236,65.408310 303.572784,65.802254 
	C305.091187,66.783035 306.579010,67.369865 308.066864,67.956703 
	C308.066864,67.956703 308.002838,67.983635 308.098206,68.292122 
	C311.175751,70.065262 314.157959,71.529907 317.140137,72.994560 
	C317.569946,73.319077 317.999756,73.643578 318.845459,74.248344 
	C319.502258,74.742844 319.775665,74.900719 320.081635,75.002243 
	C320.081635,75.002243 320.501312,75.093956 320.874573,75.313538 
	C321.485229,75.751503 321.758331,75.907288 322.067108,76.000465 
	C322.388336,76.087067 322.638184,76.270752 323.043732,76.976234 
	C323.493683,77.653084 323.758118,77.849220 324.064087,77.989357 
	C324.064087,77.989357 324.499573,78.063545 324.838470,78.424820 
	C326.119537,79.200798 327.061676,79.615501 328.003845,80.030212 
	C328.003845,80.030212 328.458466,80.088768 328.848145,80.305603 
	C329.478699,80.735306 329.753357,80.886856 330.061859,80.977097 
	C330.061859,80.977097 330.001648,80.993027 330.032288,81.358017 
	C330.817139,86.243423 334.376160,84.663864 337.077972,84.948624 
	C337.077972,84.948624 337.009399,84.971130 337.105347,85.267990 
	C338.135254,86.049355 339.069153,86.533859 340.003082,87.018356 
	C340.003082,87.018364 340.476990,87.105087 340.874451,87.318176 
	C341.506165,87.737610 341.772461,87.886665 342.070831,87.978416 
	C342.070831,87.978416 342.006775,87.984398 342.102478,88.281731 
	C343.134857,89.050331 344.071472,89.521599 345.008118,89.992867 
	C345.008118,89.992867 345.000000,90.000000 345.117981,90.327934 
	C346.508423,91.092155 347.780914,91.528442 349.053406,91.964722 
	C349.053406,91.964722 349.004272,91.997742 349.140442,92.184662 
	C349.542511,92.576515 349.808350,92.781441 350.074219,92.986359 
	C350.074219,92.986359 350.009094,92.986946 350.105347,93.296402 
	C351.826538,94.406319 353.451447,95.206779 355.076355,96.007248 
	C355.076355,96.007248 355.489441,96.075363 355.828339,96.428070 
	C357.126343,97.181793 358.085419,97.582802 359.044525,97.983810 
	C359.044525,97.983810 358.994385,98.002487 359.133026,98.188873 
	C359.534119,98.580719 359.796600,98.786179 360.059052,98.991638 
	C360.059052,98.991638 359.999481,98.998482 360.112976,99.307266 
	C361.488007,100.085938 362.749542,100.555817 364.011047,101.025696 
	C364.344971,101.098297 364.607025,101.276527 364.987732,102.116913 
	C366.791016,103.454636 368.403809,104.235832 370.016571,105.017044 
	C370.016571,105.017044 370.465973,105.086678 370.827026,105.445786 
	C372.180206,106.198807 373.172363,106.592712 374.164490,106.986618 
	C374.592743,107.309311 375.020996,107.632011 375.859009,108.243317 
	C376.509308,108.745117 376.782654,108.900719 377.088745,108.998711 
	C377.088745,108.998711 377.527435,109.070824 377.901001,109.303642 
	C378.507904,109.747475 378.773590,109.903366 379.071625,110.004135 
	C379.534332,110.330215 379.997009,110.656303 380.870270,111.265823 
	C381.502411,111.752945 381.756287,111.901474 382.042419,111.994827 
	C382.042419,111.994827 381.991089,112.009155 382.195831,112.205200 
	C382.958832,112.596916 383.517090,112.792587 384.075348,112.988258 
	C384.075348,112.988258 384.511780,113.065582 384.890778,113.285805 
	C385.506531,113.718452 385.776642,113.872231 386.080170,113.967354 
	C386.080170,113.967354 386.012390,113.962891 386.106262,114.280518 
	C387.827454,115.374741 389.454803,116.151352 391.082123,116.927963 
	C391.082123,116.927971 390.993530,116.949615 391.007751,117.272400 
	C391.020264,118.053917 391.018585,118.512642 391.016907,118.971375 
z"/>
<path fill="#BBBBBC" opacity="1.000000" stroke="none" 
	d="
M438.595154,242.953506 
	C439.272827,243.720459 439.584290,244.536331 439.651337,245.755234 
	C438.937927,246.772171 438.468964,247.386078 437.708313,248.170074 
	C434.611115,249.893433 431.805573,251.446716 428.667969,252.853302 
	C422.116974,252.106827 418.331604,257.437378 412.699829,259.176025 
	C408.478394,261.042450 406.565979,266.325348 400.596466,264.876556 
	C398.627716,264.398743 395.022095,267.593292 393.467712,269.963196 
	C392.828766,270.937256 395.581055,274.197388 396.890808,276.356964 
	C397.399139,277.195099 398.049530,278.158325 398.876831,278.537628 
	C399.884766,278.999786 401.219391,279.231842 402.286896,278.995392 
	C406.220154,278.124237 410.101379,277.018341 414.001770,276.305237 
	C414.001709,277.015778 414.002075,277.421844 414.002441,277.827881 
	C400.897614,283.895966 387.808685,289.998749 374.682831,296.021118 
	C364.231659,300.816315 353.746979,305.539154 343.255157,310.244995 
	C335.924652,313.532837 328.545227,316.711578 321.208618,319.985901 
	C310.803101,324.629944 300.425415,329.336395 290.019470,333.979431 
	C282.554321,337.310333 275.052185,340.558411 267.584747,343.884216 
	C257.079437,348.562988 246.597580,353.294281 236.093399,357.975494 
	C226.271912,362.352478 216.409409,366.638153 206.610886,371.065643 
	C196.557877,375.608124 186.599884,380.362030 176.524643,384.853699 
	C170.062790,387.734436 163.464050,390.308075 156.278931,392.814575 
	C155.068665,391.025116 154.506134,389.440491 153.943604,387.855896 
	C173.771576,377.612000 193.584076,367.338043 213.431732,357.132446 
	C234.465668,346.316956 255.511246,335.523590 276.592987,324.801666 
	C292.132385,316.898529 307.754913,309.159088 323.310028,301.286621 
	C343.895599,290.868225 364.433624,280.355774 385.026337,269.951508 
	C399.600952,262.587830 414.240112,255.351990 428.832123,248.022598 
	C432.004547,246.429138 435.098755,244.679916 438.595154,242.953506 
z"/>
<path fill="#BBBCBC" opacity="1.000000" stroke="none" 
	d="
M383.913544,90.530655 
	C382.104401,90.862175 380.155396,90.862175 377.783203,90.862175 
	C377.653351,95.070000 380.343842,97.003105 384.376740,97.884666 
	C387.177399,98.496880 390.127136,99.033966 389.639038,103.441208 
	C383.261108,100.323311 376.927094,96.842453 370.666077,93.234856 
	C354.161682,83.724976 337.686188,74.164909 321.204620,64.615448 
	C309.187286,57.652573 297.178558,50.674755 285.254303,43.156052 
	C285.566345,41.794884 285.790131,40.981255 286.013885,40.167625 
	C293.930817,44.424702 301.758026,48.860443 309.787140,52.894215 
	C320.128845,58.089821 330.718597,62.792908 341.045288,68.016930 
	C355.364197,75.260544 369.537811,82.791313 383.913544,90.530655 
z"/>
<path fill="#BCBCBC" opacity="1.000000" stroke="none" 
	d="
M429.000000,253.000000 
	C431.805573,251.446716 434.611115,249.893433 438.047699,248.320038 
	C441.119141,248.866638 443.559570,249.433319 446.000000,250.000000 
	C446.274658,250.164749 446.515717,250.369141 446.950958,251.126740 
	C448.452545,252.426880 449.726257,253.213440 451.000000,254.375000 
	C451.000000,255.500000 451.000000,256.250000 450.667908,257.098022 
	C448.223877,258.463989 446.111938,259.731995 443.697510,260.865692 
	C442.415802,260.814362 441.436615,260.897369 440.457428,260.980377 
	C440.970276,261.986206 441.483093,262.992035 442.151245,264.200714 
	C442.571564,264.615784 442.836548,264.828003 443.101532,265.040222 
	C442.625549,265.362030 442.149567,265.683838 441.036011,265.803436 
	C433.700012,262.939148 428.113861,267.795837 421.939331,268.694977 
	C419.653168,269.027863 417.961853,273.445801 415.666412,276.000732 
	C414.889771,276.000732 414.445984,276.000732 414.002197,276.000732 
	C410.101379,277.018341 406.220154,278.124237 402.286896,278.995392 
	C401.219391,279.231842 399.884766,278.999786 398.876831,278.537628 
	C398.049530,278.158325 397.399139,277.195099 396.890808,276.356964 
	C395.581055,274.197388 392.828766,270.937256 393.467712,269.963196 
	C395.022095,267.593292 398.627716,264.398743 400.596466,264.876556 
	C406.565979,266.325348 408.478394,261.042450 412.796082,259.505676 
	C416.288940,264.138641 420.679504,262.581146 424.371033,261.384735 
	C427.911163,260.237396 429.516571,256.942413 429.000000,253.000000 
M431.591431,258.124725 
	C431.839020,258.145447 432.086639,258.166199 432.334198,258.186951 
	C432.337921,258.046722 432.341614,257.906494 432.345337,257.766266 
	C432.096771,257.775543 431.848206,257.784821 431.591431,258.124725 
z"/>
<path fill="#2E6081" opacity="1.000000" stroke="none" 
	d="
M204.002045,345.122894 
	C215.235748,344.626343 223.978928,337.909607 233.494293,333.192993 
	C243.570389,328.198425 253.483871,322.875183 263.456116,317.671997 
	C275.166107,311.562134 286.828796,305.360474 298.578888,299.328949 
	C305.044495,296.010040 311.739014,293.132233 318.165466,289.742920 
	C326.196350,285.507385 334.002075,280.845581 342.021759,276.587677 
	C344.907074,275.055756 348.130920,274.161530 351.605713,273.245056 
	C352.026978,273.714874 352.042786,273.915924 352.058624,274.117004 
	C339.183380,281.104950 326.401184,288.271667 313.408356,295.033661 
	C298.608978,302.735840 283.534821,309.910278 268.739319,317.619568 
	C252.353348,326.157562 236.266739,335.276794 219.785126,343.620117 
	C215.269119,345.906219 209.804459,346.318359 204.388062,347.359436 
	C204.001328,346.459930 204.001678,345.791412 204.002045,345.122894 
z"/>
<path fill="#2E6284" opacity="1.000000" stroke="none" 
	d="
M352.422241,274.073730 
	C352.042786,273.915924 352.026978,273.714874 351.986328,273.211304 
	C353.446106,271.514191 354.719818,269.733948 356.449707,268.787628 
	C367.454498,262.767548 378.542145,256.897583 389.643860,251.056717 
	C392.704803,249.446289 395.933807,248.158722 399.038788,246.627853 
	C409.795624,241.324417 420.573395,236.060410 431.251343,230.601669 
	C434.600830,228.889343 437.660492,226.610138 440.955017,224.250977 
	C441.506989,223.633469 441.956726,223.355347 442.792511,223.144836 
	C443.458160,223.117218 443.737762,223.021988 444.017395,222.926758 
	C452.060852,219.265823 460.104309,215.604874 468.900757,211.965851 
	C470.150330,212.024521 470.646851,212.061264 471.143402,212.098022 
	C462.248047,216.948227 453.423065,221.933319 444.441833,226.618927 
	C428.582581,234.892914 412.610443,242.950256 396.718658,251.162323 
	C382.051819,258.741364 367.428436,266.404449 352.422241,274.073730 
z"/>
<path fill="#B6B6B8" opacity="1.000000" stroke="none" 
	d="
M153.602676,387.902039 
	C154.506134,389.440491 155.068665,391.025116 155.904984,392.849487 
	C148.953537,396.411652 141.749985,399.782257 134.497955,403.045135 
	C123.651459,407.925262 112.768311,412.723907 101.905563,417.567993 
	C92.416191,421.799591 82.942711,426.067139 73.434937,430.256866 
	C72.351349,430.734344 71.091843,430.812592 69.913910,431.075989 
	C69.760872,430.687164 69.607834,430.298309 69.454796,429.909485 
	C95.372879,416.927521 121.290962,403.945557 147.607574,391.236511 
	C148.276611,392.044800 148.547089,392.580170 148.817566,393.115540 
	C149.203262,392.051971 149.588928,390.988403 149.974609,389.924835 
	C151.070312,389.265930 152.166031,388.607056 153.602676,387.902039 
M139.472183,396.497375 
	C139.472183,396.497375 139.515167,396.480682 139.472183,396.497375 
z"/>
<path fill="#2D6181" opacity="1.000000" stroke="none" 
	d="
M100.877289,400.852020 
	C101.550385,399.786987 101.969925,398.292603 102.935295,397.722534 
	C114.147034,391.101746 125.517899,384.748871 136.694519,378.070496 
	C151.344604,369.316620 165.764206,360.173279 180.499588,351.568481 
	C184.049011,349.495789 188.451096,348.883179 192.739380,348.073364 
	C193.011124,348.953339 193.004562,349.359131 192.997986,349.764923 
	C185.780899,349.333038 180.854797,354.480682 175.276031,357.575928 
	C162.133789,364.867493 149.496582,373.065979 136.608871,380.820801 
	C125.382996,387.575653 114.093819,394.225281 102.171593,400.945312 
	C101.299484,400.930145 101.088379,400.891083 100.877289,400.852020 
z"/>
<path fill="#2F6182" opacity="1.000000" stroke="none" 
	d="
M100.502739,400.889832 
	C101.088379,400.891083 101.299484,400.930145 101.829086,401.016724 
	C86.386932,410.533539 70.626282,420.002869 54.865635,429.472168 
	C54.438076,429.102173 54.010521,428.732178 53.582966,428.362152 
	C54.137527,426.323792 54.692085,424.285461 55.554737,422.080383 
	C56.117523,424.390594 57.055847,425.653412 59.533855,423.863068 
	C60.952255,422.838257 62.288902,421.700317 63.848927,420.334534 
	C64.035484,420.055725 64.475357,420.019623 64.914886,419.882172 
	C65.630348,419.551178 65.854324,419.309509 66.026344,419.019684 
	C67.528755,418.184540 69.031158,417.349426 71.130043,416.266846 
	C72.826164,415.018311 73.925804,414.017212 75.025444,413.016113 
	C75.025444,413.016113 75.003647,412.998688 75.344849,412.997742 
	C76.467812,412.343079 77.249573,411.689392 78.031326,411.035706 
	C78.031326,411.035706 78.024338,411.022766 78.036255,411.035400 
	C79.694595,410.593292 81.457779,410.377716 82.966736,409.641296 
	C88.731598,406.827667 94.414612,403.846313 100.502739,400.889832 
z"/>
<path fill="#397A9D" opacity="1.000000" stroke="none" 
	d="
M471.500549,212.050873 
	C470.646851,212.061264 470.150330,212.024521 469.281891,211.939728 
	C473.092316,208.973358 477.046600,205.632019 481.506317,203.228470 
	C489.737396,198.792328 498.265015,194.906311 507.025055,190.616776 
	C505.249268,188.336197 504.182648,186.966370 503.069031,185.265381 
	C503.512268,185.019119 504.121063,184.947601 504.473328,185.214554 
	C506.603180,186.828506 508.674347,188.519852 510.765137,190.185318 
	C508.756317,191.733124 506.915283,193.593933 504.710327,194.775772 
	C493.812317,200.617050 482.818024,206.278732 471.500549,212.050873 
z"/>
<path fill="#ADB0B0" opacity="1.000000" stroke="none" 
	d="
M285.650452,40.087601 
	C285.790131,40.981255 285.566345,41.794884 285.111206,42.831497 
	C271.608856,35.693542 258.337860,28.332602 245.066879,20.971661 
	C245.370956,20.416250 245.675034,19.860838 245.979111,19.305426 
	C259.081757,26.206142 272.184387,33.106857 285.650452,40.087601 
z"/>
<path fill="#BBBBBC" opacity="1.000000" stroke="none" 
	d="
M415.999268,276.000732 
	C417.961853,273.445801 419.653168,269.027863 421.939331,268.694977 
	C428.113861,267.795837 433.700012,262.939148 440.720978,265.850647 
	C433.667450,269.405060 426.291382,272.710083 418.180420,276.020813 
	C416.963440,276.017914 416.481354,276.009338 415.999268,276.000732 
z"/>
<path fill="#BBBBBC" opacity="1.000000" stroke="none" 
	d="
M444.000000,261.000000 
	C446.111938,259.731995 448.223877,258.463989 450.958191,257.229492 
	C452.720367,257.175354 453.860199,257.087677 455.000000,257.000000 
	C455.852631,257.214355 456.705261,257.428680 457.801086,257.872498 
	C453.311768,260.397552 448.579285,262.693085 443.474182,265.014404 
	C442.836548,264.828003 442.571564,264.615784 442.351379,263.966064 
	C442.930786,262.685730 443.465393,261.842865 444.000000,261.000000 
z"/>
<path fill="#397A9D" opacity="1.000000" stroke="none" 
	d="
M398.021149,123.953247 
	C397.683472,123.177040 397.345795,122.400833 397.003967,121.296471 
	C401.963867,123.758904 406.927948,126.549500 411.657349,129.657089 
	C409.277893,128.996490 407.133087,128.018875 404.988312,127.041290 
	C403.216705,126.059708 401.445068,125.078133 399.089142,124.027519 
	C398.504822,123.958488 398.021149,123.953247 398.021149,123.953247 
z"/>
<path fill="#397A9D" opacity="1.000000" stroke="none" 
	d="
M443.864502,148.699783 
	C438.018921,149.124634 434.087585,145.367569 430.066406,141.282898 
	C434.557251,143.428757 439.135864,145.906158 443.864502,148.699783 
z"/>
<path fill="#397A9D" opacity="1.000000" stroke="none" 
	d="
M485.848267,174.696213 
	C482.358978,172.894867 478.740540,170.773407 475.060059,168.308121 
	C478.571655,170.101562 482.145386,172.238831 485.848267,174.696213 
z"/>
<path fill="#397A9D" opacity="1.000000" stroke="none" 
	d="
M502.937286,184.641525 
	C499.089478,182.870148 495.119812,180.764206 491.086731,178.309921 
	C494.954041,180.076691 498.884735,182.191833 502.937286,184.641525 
z"/>
<path fill="#397A9D" opacity="1.000000" stroke="none" 
	d="
M451.928986,153.640472 
	C449.002594,153.300354 445.289337,153.865524 444.043884,149.349457 
	C446.590729,150.428177 449.197235,151.869354 451.928986,153.640472 
z"/>
<path fill="#247CB0" opacity="1.000000" stroke="none" 
	d="
M405.013672,127.409996 
	C407.133087,128.018875 409.277893,128.996490 411.796600,129.986023 
	C412.480377,130.065094 412.716309,130.234985 412.942993,131.059464 
	C413.018402,132.060532 413.029083,132.509735 413.039795,132.958923 
	C410.372864,131.232178 407.705933,129.505447 405.013672,127.409996 
z"/>
<path fill="#397A9D" opacity="1.000000" stroke="none" 
	d="
M459.899963,158.672607 
	C457.398041,157.546112 454.760315,156.093231 452.073425,154.290146 
	C454.604218,155.408707 457.184143,156.877457 459.899963,158.672607 
z"/>
<path fill="#397A9D" opacity="1.000000" stroke="none" 
	d="
M317.015991,72.653191 
	C314.157959,71.529907 311.175751,70.065262 308.115479,68.262009 
	C310.988892,69.386215 313.940399,70.849022 317.015991,72.653191 
z"/>
<path fill="#397A9D" opacity="1.000000" stroke="none" 
	d="
M336.934845,84.628960 
	C334.376160,84.663864 330.817139,86.243423 330.052002,81.333908 
	C332.291290,82.066307 334.541504,83.187798 336.934845,84.628960 
z"/>
<path fill="#397A9D" opacity="1.000000" stroke="none" 
	d="
M428.917969,139.722763 
	C426.766235,138.914886 424.452148,137.793655 422.066223,136.320435 
	C424.248108,137.115433 426.501862,138.262421 428.917969,139.722763 
z"/>
<path fill="#397A9D" opacity="1.000000" stroke="none" 
	d="
M413.278381,132.982407 
	C413.029083,132.509735 413.018402,132.060532 413.007751,131.273651 
	C415.254028,132.082886 417.500275,133.229797 419.890991,134.702988 
	C419.275024,135.022110 418.514526,135.014954 417.209900,134.732574 
	C415.775238,133.988724 414.884705,133.520081 413.994202,133.051453 
	C413.994202,133.051453 413.516937,133.005890 413.278381,132.982407 
z"/>
<path fill="#36789D" opacity="1.000000" stroke="none" 
	d="
M291.003418,57.648178 
	C288.815033,56.867668 286.500549,55.747028 284.111389,54.284431 
	C286.316925,55.064335 288.597107,56.186195 291.003418,57.648178 
z"/>
<path fill="#397A9D" opacity="1.000000" stroke="none" 
	d="
M303.281128,65.002716 
	C301.699982,64.404297 299.934998,63.543240 298.073486,62.353062 
	C299.683777,62.929325 301.390533,63.834705 303.281128,65.002716 
z"/>
<path fill="#36789D" opacity="1.000000" stroke="none" 
	d="
M247.878601,36.670712 
	C245.782028,36.270290 243.505402,35.562119 241.087006,34.538048 
	C243.196335,34.935753 245.447433,35.649357 247.878601,36.670712 
z"/>
<path fill="#36789D" opacity="1.000000" stroke="none" 
	d="
M266.869293,44.672005 
	C265.083740,44.212971 263.144928,43.432034 261.102234,42.317699 
	C262.904205,42.772903 264.810150,43.561501 266.869293,44.672005 
z"/>
<path fill="#397A9D" opacity="1.000000" stroke="none" 
	d="
M490.892212,177.658234 
	C489.419128,177.211563 487.801727,176.448532 486.084778,175.354752 
	C487.572754,175.796616 489.160309,176.569244 490.892212,177.658234 
z"/>
<path fill="#397A9D" opacity="1.000000" stroke="none" 
	d="
M470.922363,165.683182 
	C469.441406,165.211884 467.814148,164.421188 466.095428,163.291824 
	C467.594666,163.756683 469.185364,164.560226 470.922363,165.683182 
z"/>
<path fill="#397A9D" opacity="1.000000" stroke="none" 
	d="
M464.907532,161.672821 
	C463.412079,161.219498 461.775513,160.448837 460.068420,159.321106 
	C461.587402,159.761200 463.176910,160.558334 464.907532,161.672821 
z"/>
<path fill="#397A9D" opacity="1.000000" stroke="none" 
	d="
M354.932312,95.692215 
	C353.451447,95.206779 351.826538,94.406319 350.115906,93.265594 
	C351.616211,93.742630 353.202209,94.559914 354.932312,95.692215 
z"/>
<path fill="#397A9D" opacity="1.000000" stroke="none" 
	d="
M390.985291,116.591927 
	C389.454803,116.151352 387.827454,115.374741 386.125458,114.252502 
	C387.663330,114.689873 389.275909,115.472878 390.985291,116.591927 
z"/>
<path fill="#397A9D" opacity="1.000000" stroke="none" 
	d="
M369.876709,104.703606 
	C368.403809,104.235832 366.791016,103.454636 365.079834,102.341248 
	C366.566528,102.802757 368.151703,103.596466 369.876709,104.703606 
z"/>
<path fill="#2E6081" opacity="1.000000" stroke="none" 
	d="
M193.339066,349.695190 
	C193.004562,349.359131 193.011124,348.953339 193.031830,348.242065 
	C194.504990,347.779907 195.964005,347.623199 197.675354,347.653564 
	C196.511841,348.435608 195.095993,349.030548 193.339066,349.695190 
z"/>
<path fill="#2D6181" opacity="1.000000" stroke="none" 
	d="
M203.692566,345.146301 
	C204.001678,345.791412 204.001328,346.459930 204.001251,347.464600 
	C203.250977,347.846741 202.500443,347.892761 201.371552,347.674316 
	C200.993195,347.409851 200.981689,346.957977 200.981689,346.957947 
	C201.782135,346.361877 202.582611,345.765808 203.692566,345.146301 
z"/>
<path fill="#36789D" opacity="1.000000" stroke="none" 
	d="
M253.894104,38.682171 
	C252.464798,38.613800 250.870697,38.227104 249.125000,37.520576 
	C250.558716,37.588444 252.144012,37.976143 253.894104,38.682171 
z"/>
<path fill="#BBBBBC" opacity="1.000000" stroke="none" 
	d="
M149.666336,389.958252 
	C149.588928,390.988403 149.203262,392.051971 148.817566,393.115540 
	C148.547089,392.580170 148.276611,392.044800 147.978897,391.187653 
	C148.420471,390.574463 148.889267,390.283051 149.666336,389.958252 
z"/>
<path fill="#BEBEBE" opacity="1.000000" stroke="none" 
	d="
M415.666412,276.000732 
	C416.481354,276.009338 416.963440,276.017914 417.806702,276.044861 
	C417.017944,276.701080 415.868073,277.338928 414.360291,277.902344 
	C414.002075,277.421844 414.001709,277.015778 414.001770,276.305237 
	C414.445984,276.000732 414.889771,276.000732 415.666412,276.000732 
z"/>
<path fill="#397A9D" opacity="1.000000" stroke="none" 
	d="
M307.946411,67.619156 
	C306.579010,67.369865 305.091187,66.783035 303.508301,65.851669 
	C304.884125,66.098625 306.355042,66.690117 307.946411,67.619156 
z"/>
<path fill="#397A9D" opacity="1.000000" stroke="none" 
	d="
M363.886108,100.690987 
	C362.749542,100.555817 361.488007,100.085938 360.122192,99.278732 
	C361.265625,99.413040 362.513428,99.884659 363.886108,100.690987 
z"/>
<path fill="#36789D" opacity="1.000000" stroke="none" 
	d="
M271.927795,46.674934 
	C270.523071,46.527676 268.958740,46.052517 267.196716,45.276855 
	C268.588776,45.433250 270.178467,45.890144 271.927795,46.674934 
z"/>
<path fill="#2F6182" opacity="1.000000" stroke="none" 
	d="
M58.658974,416.015747 
	C58.505009,417.146545 58.049728,418.439819 57.247501,419.825470 
	C57.386257,418.671295 57.871960,417.424805 58.658974,416.015747 
z"/>
<path fill="#397A9D" opacity="1.000000" stroke="none" 
	d="
M348.886353,91.665680 
	C347.780914,91.528442 346.508423,91.092155 345.121216,90.323318 
	C346.244110,90.449394 347.481720,90.908012 348.886353,91.665680 
z"/>
<path fill="#397A9D" opacity="1.000000" stroke="none" 
	d="
M327.885132,79.708984 
	C327.061676,79.615501 326.119537,79.200798 325.050629,78.486282 
	C325.871399,78.586906 326.818909,78.987328 327.885132,79.708984 
z"/>
<path fill="#397A9D" opacity="1.000000" stroke="none" 
	d="
M339.892029,86.701111 
	C339.069153,86.533859 338.135254,86.049355 337.121643,85.235794 
	C337.954987,85.399101 338.867981,85.891479 339.892029,86.701111 
z"/>
<path fill="#397A9D" opacity="1.000000" stroke="none" 
	d="
M474.911438,167.690369 
	C474.086334,167.607864 473.136353,167.216904 472.053040,166.529846 
	C472.875336,166.616470 473.830994,166.999191 474.911438,167.690369 
z"/>
<path fill="#397A9D" opacity="1.000000" stroke="none" 
	d="
M344.893524,89.683411 
	C344.071472,89.521599 343.134857,89.050331 342.115723,88.252411 
	C342.948456,88.408493 343.863708,88.891228 344.893524,89.683411 
z"/>
<path fill="#397A9D" opacity="1.000000" stroke="none" 
	d="
M391.393646,118.985138 
	C391.018585,118.512642 391.020264,118.053917 391.049500,117.251427 
	C391.991821,117.393120 392.906586,117.878571 393.927917,118.676453 
	C393.279816,118.992233 392.525116,118.995567 391.393646,118.985138 
z"/>
<path fill="#397A9D" opacity="1.000000" stroke="none" 
	d="
M358.918518,97.665627 
	C358.085419,97.582802 357.126343,97.181793 356.030823,96.481049 
	C356.860474,96.570030 357.826477,96.958733 358.918518,97.665627 
z"/>
<path fill="#397A9D" opacity="1.000000" stroke="none" 
	d="
M374.034546,106.660225 
	C373.172363,106.592712 372.180206,106.198807 371.048279,105.498253 
	C371.907166,105.572350 372.905853,105.953087 374.034546,106.660225 
z"/>
<path fill="#36789D" opacity="1.000000" stroke="none" 
	d="
M260.881226,41.692394 
	C260.074310,41.604763 259.132507,41.209419 258.064240,40.517479 
	C258.873993,40.608814 259.810150,40.996750 260.881226,41.692394 
z"/>
<path fill="#2F6182" opacity="1.000000" stroke="none" 
	d="
M56.618568,420.033936 
	C56.716587,420.463776 56.523369,421.010498 56.101723,421.744110 
	C56.024639,421.337585 56.175987,420.744232 56.618568,420.033936 
z"/>
<path fill="#397A9D" opacity="1.000000" stroke="none" 
	d="
M383.931763,112.708412 
	C383.517090,112.792587 382.958832,112.596916 382.198181,112.178650 
	C382.593231,112.113564 383.190704,112.271065 383.931763,112.708412 
z"/>
<path fill="#397A9D" opacity="1.000000" stroke="none" 
	d="
M421.952881,135.754211 
	C421.731171,135.931030 421.468292,135.788589 421.086731,135.414795 
	C421.247803,135.331528 421.562378,135.415375 421.952881,135.754211 
z"/>
<path fill="#36789D" opacity="1.000000" stroke="none" 
	d="
M257.057495,39.696793 
	C256.831543,39.873947 256.546539,39.715961 256.117676,39.327183 
	C256.282562,39.243931 256.624115,39.332352 257.057495,39.696793 
z"/>
<path fill="#397A9D" opacity="1.000000" stroke="none" 
	d="
M378.982819,109.752365 
	C378.773590,109.903366 378.507904,109.747475 378.113861,109.367752 
	C378.266785,109.299553 378.580383,109.400070 378.982819,109.752365 
z"/>
<path fill="#2E6081" opacity="1.000000" stroke="none" 
	d="
M200.779907,347.102051 
	C200.981689,346.957977 200.993195,347.409851 200.996582,347.635834 
	C200.836899,347.907928 200.673828,347.954071 200.257339,348.022461 
	C200.127701,347.729919 200.319107,347.463715 200.779907,347.102051 
z"/>
<path fill="#2E6081" opacity="1.000000" stroke="none" 
	d="
M199.056549,348.171936 
	C199.158203,347.965668 199.334915,347.969269 199.775650,347.997589 
	C199.736969,348.142151 199.434265,348.261963 199.056549,348.171936 
z"/>
<path fill="#397A9D" opacity="1.000000" stroke="none" 
	d="
M381.954407,111.758118 
	C381.756287,111.901474 381.502411,111.752945 381.129150,111.386482 
	C381.273804,111.322945 381.570129,111.422180 381.954407,111.758118 
z"/>
<path fill="#397A9D" opacity="1.000000" stroke="none" 
	d="
M385.998230,113.704391 
	C385.776642,113.872231 385.506531,113.718452 385.106476,113.336639 
	C385.267548,113.258644 385.591949,113.350037 385.998230,113.704391 
z"/>
<path fill="#397A9D" opacity="1.000000" stroke="none" 
	d="
M394.966064,119.753067 
	C394.783783,119.803040 394.518555,119.599052 394.124878,119.177094 
	C394.291992,119.139114 394.587585,119.319122 394.966064,119.753067 
z"/>
<path fill="#397A9D" opacity="1.000000" stroke="none" 
	d="
M396.954498,120.752098 
	C396.731598,120.925621 396.466705,120.778206 396.083496,120.394501 
	C396.244110,120.315384 396.559875,120.406372 396.954498,120.752098 
z"/>
<path fill="#36789D" opacity="1.000000" stroke="none" 
	d="
M279.951477,51.768898 
	C279.752197,51.911121 279.500183,51.761143 279.128418,51.396145 
	C279.273895,51.332581 279.570557,51.431107 279.951477,51.768898 
z"/>
<path fill="#397A9D" opacity="1.000000" stroke="none" 
	d="
M321.994293,75.726318 
	C321.758331,75.907288 321.485229,75.751503 321.084351,75.359756 
	C321.254395,75.274994 321.587921,75.363586 321.994293,75.726318 
z"/>
<path fill="#397A9D" opacity="1.000000" stroke="none" 
	d="
M323.970184,77.742676 
	C323.758118,77.849220 323.493683,77.653084 323.127686,77.197769 
	C323.281830,77.161728 323.579041,77.328857 323.970184,77.742676 
z"/>
<path fill="#397A9D" opacity="1.000000" stroke="none" 
	d="
M297.907471,61.786404 
	C297.705780,61.927624 297.468872,61.782001 297.127197,61.424065 
	C297.355347,61.118210 297.638641,61.214146 297.907471,61.786404 
z"/>
<path fill="#36789D" opacity="1.000000" stroke="none" 
	d="
M293.019470,58.716949 
	C292.792511,58.893600 292.511841,58.737434 292.095032,58.345947 
	C292.260040,58.263756 292.595642,58.354923 293.019470,58.716949 
z"/>
<path fill="#397A9D" opacity="1.000000" stroke="none" 
	d="
M329.988647,80.703079 
	C329.753357,80.886856 329.478699,80.735306 329.072754,80.351334 
	C329.243561,80.263168 329.579498,80.346123 329.988647,80.703079 
z"/>
<path fill="#36789D" opacity="1.000000" stroke="none" 
	d="
M283.973022,53.717010 
	C283.755524,53.882931 283.490753,53.733501 283.100281,53.357891 
	C283.257843,53.281662 283.574890,53.371647 283.973022,53.717010 
z"/>
<path fill="#36789D" opacity="1.000000" stroke="none" 
	d="
M281.964600,52.763985 
	C281.764282,52.910019 281.506012,52.759884 281.123779,52.391487 
	C281.270325,52.326065 281.572601,52.424267 281.964600,52.763985 
z"/>
<path fill="#397A9D" opacity="1.000000" stroke="none" 
	d="
M319.996429,74.737549 
	C319.775665,74.900719 319.502258,74.742844 319.095032,74.357010 
	C319.256226,74.281227 319.583740,74.377045 319.996429,74.737549 
z"/>
<path fill="#397A9D" opacity="1.000000" stroke="none" 
	d="
M341.992737,87.715599 
	C341.772461,87.886665 341.506165,87.737610 341.110504,87.366241 
	C341.270935,87.285072 341.592773,87.368927 341.992737,87.715599 
z"/>
<path fill="#36789D" opacity="1.000000" stroke="none" 
	d="
M277.973724,50.748135 
	C277.796967,50.794754 277.534302,50.589298 277.137573,50.170448 
	C277.298279,50.136723 277.593048,50.316391 277.973724,50.748135 
z"/>
<path fill="#397A9D" opacity="1.000000" stroke="none" 
	d="
M349.994293,92.728073 
	C349.808350,92.781441 349.542511,92.576515 349.143921,92.155289 
	C349.312286,92.115913 349.613312,92.292847 349.994293,92.728073 
z"/>
<path fill="#397A9D" opacity="1.000000" stroke="none" 
	d="
M359.977112,98.736755 
	C359.796600,98.786179 359.534119,98.580719 359.137054,98.162415 
	C359.300018,98.126999 359.597595,98.304428 359.977112,98.736755 
z"/>
<path fill="#36789D" opacity="1.000000" stroke="none" 
	d="
M276.958252,49.749817 
	C276.754303,49.895817 276.498779,49.744328 276.122253,49.373993 
	C276.270630,49.308884 276.572479,49.407944 276.958252,49.749817 
z"/>
<path fill="#36789D" opacity="1.000000" stroke="none" 
	d="
M274.053772,47.660961 
	C273.846588,47.794006 273.549286,47.639904 273.071655,47.306213 
	C273.248779,47.209019 273.606201,47.291416 274.053772,47.660961 
z"/>
<path fill="#397A9D" opacity="1.000000" stroke="none" 
	d="
M465.967529,162.746933 
	C465.783112,162.797073 465.518372,162.590912 465.124481,162.166000 
	C465.292633,162.128387 465.589935,162.309509 465.967529,162.746933 
z"/>
<path fill="#397A9D" opacity="1.000000" stroke="none" 
	d="
M376.989471,108.749130 
	C376.782654,108.900719 376.509308,108.745117 376.103333,108.360641 
	C376.255341,108.292747 376.572784,108.396149 376.989471,108.749130 
z"/>
<path fill="#000000" opacity="1.000000" stroke="none" 
	d="
M193.323776,220.264160 
	C196.493423,222.523849 199.352264,224.958984 202.077988,227.280731 
	C199.717667,232.203644 197.070786,236.545654 195.519714,241.249039 
	C193.447311,247.533279 188.223923,249.908890 183.087280,251.982193 
	C175.532318,255.031662 167.733871,257.714417 159.801910,259.498901 
	C155.479965,260.471222 150.655823,258.934021 146.080460,259.109528 
	C132.747284,259.620972 120.734955,255.541016 109.406433,249.016357 
	C91.547028,238.730255 80.681549,223.403473 75.451431,203.446075 
	C69.389015,180.312714 74.199074,159.401169 87.411140,140.316681 
	C97.068863,126.366379 110.940094,117.440536 127.307938,113.299042 
	C135.810043,111.147789 144.868942,109.797951 153.585419,110.176888 
	C173.260254,111.032211 190.446533,118.530151 204.046524,133.185654 
	C204.652054,133.838165 204.393494,136.228195 203.671814,137.016525 
	C200.351440,140.643585 196.789139,144.062073 193.130493,147.351700 
	C192.621536,147.809357 190.659271,147.532806 190.102905,146.925018 
	C179.499512,135.341949 166.222427,130.525223 150.720947,129.904144 
	C139.180115,129.441727 128.210999,131.455231 118.698608,137.394302 
	C109.342125,143.236038 101.701218,151.326767 97.928192,162.335098 
	C90.480446,184.064911 92.259277,204.691299 107.335121,222.401688 
	C115.070778,231.489166 125.517853,237.594025 138.185745,239.135147 
	C149.690460,240.534744 160.847870,240.388535 171.629379,235.862213 
	C179.915863,232.383377 186.944962,227.050461 193.323776,220.264160 
z"/>
<path fill="#45B0DC" opacity="1.000000" stroke="none" 
	d="
M15.112638,176.077011 
	C17.322193,166.371796 18.945045,156.486420 21.858736,146.997421 
	C28.741426,124.582611 40.198143,104.704491 56.021774,87.249489 
	C69.506409,72.374634 85.089188,60.300835 102.867577,51.250198 
	C120.943115,42.048298 140.230515,36.372040 160.442276,34.002823 
	C192.727631,30.218349 223.859634,35.186699 253.909225,46.963062 
	C263.148590,50.583954 271.968750,55.471081 280.574524,60.477001 
	C311.935486,78.719482 343.124603,97.257477 374.681213,116.164398 
	C374.975128,117.061722 374.966278,117.478722 374.957428,117.895721 
	C364.905365,112.764305 354.984131,107.354706 344.776611,102.553864 
	C314.690002,88.403397 285.823364,71.271072 253.686707,62.037273 
	C236.862808,57.203266 219.317078,54.428368 201.908981,52.185722 
	C175.176758,48.741863 149.083206,53.709019 123.947479,62.454666 
	C93.636345,73.001038 68.055748,90.729393 47.842976,116.066635 
	C29.932467,138.517929 19.638746,164.061462 14.755893,192.542633 
	C14.511485,192.941849 14.056939,192.899796 14.070143,192.458893 
	C14.426443,186.704330 14.769541,181.390671 15.112638,176.077011 
z"/>
<path fill="#000000" opacity="1.000000" stroke="none" 
	d="
M343.009613,257.232117 
	C343.009613,257.232117 342.552216,257.079468 342.273621,256.664886 
	C337.133881,246.500031 332.335205,236.717712 327.363495,227.024124 
	C326.253448,224.859848 324.535797,223.007187 322.855896,220.643768 
	C301.399933,220.230728 280.185974,220.184952 258.788757,220.068237 
	C258.605560,219.997284 258.219788,219.916763 258.288086,219.581055 
	C260.903778,213.561356 263.451172,207.877365 266.460541,202.108475 
	C292.637817,201.985748 318.353149,201.947937 344.529968,201.963501 
	C351.694275,201.940567 358.397034,201.864227 365.099823,201.787903 
	C365.099823,201.787903 365.477203,201.918121 365.694885,202.332489 
	C364.296783,206.107666 363.174438,209.855576 360.926849,212.720779 
	C358.665009,215.604156 358.353790,220.859161 353.473145,220.895309 
	C348.121429,220.934921 348.622711,223.713608 350.134949,226.913239 
	C354.616852,236.396255 359.295410,245.786316 364.569489,256.590149 
	C356.887054,256.818909 349.948334,257.025513 343.009613,257.232117 
z"/>
<path fill="#000000" opacity="1.000000" stroke="none" 
	d="
M288.983185,150.867981 
	C288.983185,150.867981 288.892639,150.453018 288.837708,150.002228 
	C288.513733,149.373199 288.244629,149.194992 287.975555,149.016785 
	C287.975555,149.016785 287.999634,149.000549 287.985352,148.661346 
	C287.332550,147.169830 286.694031,146.017517 286.011719,144.573700 
	C285.647400,143.843552 285.326935,143.404907 285.006470,142.966263 
	C285.006470,142.966263 284.997101,143.001785 284.997467,142.628967 
	C280.404968,132.460190 275.812103,122.664253 270.788361,111.949341 
	C277.857208,111.949341 283.287659,111.710892 288.675842,112.083466 
	C290.472107,112.207672 292.725037,113.491859 293.775391,114.957840 
	C295.719818,117.671761 296.958130,120.897629 298.444092,123.933014 
	C304.242401,135.777359 310.042572,147.620865 315.803345,159.483490 
	C320.882294,169.942093 325.909729,180.425766 330.496216,190.946487 
	C325.733185,191.009033 321.406555,190.726120 317.141907,191.118027 
	C312.492828,191.545273 308.949890,190.516495 307.028381,185.946655 
	C307.028381,185.946655 307.007141,186.004257 306.983582,185.625580 
	C304.984650,181.479340 303.009247,177.711807 301.033844,173.944275 
	C301.033844,173.944275 301.006744,174.003403 300.994324,173.621338 
	C299.692596,170.455887 298.551147,167.591537 297.081299,164.906967 
	C294.487488,160.169495 291.693420,155.541687 288.983185,150.867981 
z"/>
<path fill="#35789D" opacity="1.000000" stroke="none" 
	d="
M201.936707,257.113861 
	C201.599319,255.303955 200.415497,253.093475 201.053589,251.745239 
	C208.621948,235.754135 216.352921,219.837051 224.263901,204.011856 
	C231.152390,190.232086 238.414261,176.639267 245.339035,162.877213 
	C249.719925,154.170715 253.759476,145.292892 258.019257,136.524521 
	C258.661682,135.202148 259.602142,134.003342 260.524750,132.842789 
	C262.349823,130.547028 263.831573,130.490723 265.326447,133.362686 
	C268.071838,138.637100 271.018341,143.808975 273.962921,148.976913 
	C276.410309,153.272308 275.465637,156.839798 271.481628,160.008453 
	C271.078827,160.066696 270.910126,159.921906 270.970978,159.570038 
	C271.727356,157.005707 273.614044,154.268402 272.910767,152.672241 
	C269.979553,146.019775 266.269073,139.710663 262.530121,132.685165 
	C256.096802,145.681915 249.994461,157.967056 243.929947,170.270859 
	C232.536438,193.386261 221.123032,216.492065 209.813995,239.648773 
	C207.050873,245.306625 204.659576,251.146057 202.055923,256.954041 
	C202.014526,257.006042 201.936707,257.113861 201.936707,257.113861 
z"/>
<path fill="#32789E" opacity="1.000000" stroke="none" 
	d="
M330.959900,190.898361 
	C325.909729,180.425766 320.882294,169.942093 315.803345,159.483490 
	C310.042572,147.620865 304.242401,135.777359 298.444092,123.933014 
	C296.958130,120.897629 295.719818,117.671761 293.775391,114.957840 
	C292.725037,113.491859 290.472107,112.207672 288.675842,112.083466 
	C283.287659,111.710892 277.857208,111.949341 270.788361,111.949341 
	C275.812103,122.664253 280.404968,132.460190 285.015686,142.626953 
	C282.246643,138.878586 279.234924,134.890366 276.737701,130.602509 
	C274.362488,126.524132 272.332947,122.211525 270.537842,117.843124 
	C269.728790,115.874237 269.293182,113.368439 269.817413,111.408257 
	C270.054596,110.521309 273.026062,110.056862 274.791016,109.947174 
	C279.426025,109.659088 284.147583,110.117470 288.704712,109.424194 
	C292.442474,108.855568 294.390411,110.235474 295.864777,113.198318 
	C303.387787,128.316513 310.959381,143.410919 318.395935,158.571564 
	C322.845856,167.643494 327.180939,176.776047 331.315491,185.994461 
	C332.055084,187.643433 331.562286,189.845123 331.310913,191.622864 
	C330.975525,191.268860 330.967712,191.083618 330.959900,190.898361 
z"/>
<path fill="#35789D" opacity="1.000000" stroke="none" 
	d="
M271.165100,160.136810 
	C270.328430,163.008881 269.682343,165.941010 268.436523,168.591187 
	C261.613373,183.106094 254.791489,197.625397 247.670609,211.995224 
	C242.996918,221.426651 237.818237,230.607819 232.470718,239.981857 
	C232.075729,240.062668 231.902298,239.911026 231.956543,239.593430 
	C235.118286,232.205872 238.077057,225.065857 241.367615,218.082138 
	C246.496704,207.196381 251.714966,196.347824 257.152588,185.613770 
	C261.541443,176.950012 266.310028,168.478638 270.910126,159.921906 
	C270.910126,159.921906 271.078827,160.066696 271.165100,160.136810 
z"/>
<path fill="#39789E" opacity="1.000000" stroke="none" 
	d="
M343.266602,257.409912 
	C349.948334,257.025513 356.887054,256.818909 364.569489,256.590149 
	C359.295410,245.786316 354.616852,236.396255 350.134949,226.913239 
	C348.622711,223.713608 348.121429,220.934921 353.473145,220.895309 
	C358.353790,220.859161 358.665009,215.604156 360.926849,212.720779 
	C363.174438,209.855576 364.296783,206.107666 365.889404,202.377289 
	C368.899933,203.004730 367.926941,204.836121 366.831238,206.680222 
	C364.373993,210.815735 361.963074,214.980484 359.410278,219.056274 
	C358.745728,220.117279 357.783875,221.208557 356.692657,221.748566 
	C351.832336,224.153702 351.472412,225.132309 353.930359,230.174835 
	C356.215729,234.863327 358.297546,239.656296 360.725525,244.268173 
	C362.413788,247.474899 364.536133,250.453079 366.697601,253.764374 
	C366.530212,255.212143 366.129791,256.428925 365.612335,258.001282 
	C362.725037,258.001282 359.798859,258.001282 355.971130,258.001770 
	C352.034668,258.011932 348.999725,258.021576 345.964813,258.031219 
	C345.151093,257.883392 344.337341,257.735565 343.266602,257.409912 
z"/>
<path fill="#2677A6" opacity="1.000000" stroke="none" 
	d="
M323.097900,221.011047 
	C324.535797,223.007187 326.253448,224.859848 327.363495,227.024124 
	C332.335205,236.717712 337.133881,246.500031 342.037018,256.618561 
	C340.539703,255.837265 338.329834,255.018433 337.572632,253.483170 
	C333.419678,245.062622 329.589996,236.481308 325.719757,227.923370 
	C324.175873,224.509491 321.766296,222.878616 317.917450,222.945541 
	C309.761200,223.087433 301.599823,223.050888 293.442719,222.934402 
	C291.721741,222.909851 290.010132,222.228333 288.589233,221.459869 
	C300.288788,221.050491 311.693359,221.030777 323.097900,221.011047 
z"/>
<path fill="#1A7AB9" opacity="1.000000" stroke="none" 
	d="
M14.876773,175.807236 
	C14.769541,181.390671 14.426443,186.704330 14.056831,192.826630 
	C14.351020,194.752869 14.671724,195.870483 14.992429,196.988083 
	C14.230008,200.249374 13.467587,203.510666 12.353558,206.886169 
	C10.505480,198.218201 8.758824,189.508331 11.166309,180.518768 
	C11.963835,177.540787 11.292069,174.169327 12.479112,170.611404 
	C13.199710,172.253418 13.920309,173.895447 14.876773,175.807236 
z"/>
<path fill="#307299" opacity="1.000000" stroke="none" 
	d="
M364.909180,201.449341 
	C358.397034,201.864227 351.694275,201.940567 344.228638,201.658325 
	C340.825562,201.196548 338.185516,201.010727 335.544983,201.003052 
	C312.684113,200.936615 289.823181,200.902222 266.962250,200.858276 
	C268.729614,200.559662 270.496674,200.003281 272.264435,200.000916 
	C301.361755,199.962051 330.459229,199.974243 359.556458,200.055191 
	C361.278107,200.059967 362.997894,200.743256 364.909180,201.449341 
z"/>
<path fill="#A7CBDE" opacity="1.000000" stroke="none" 
	d="
M266.741272,200.914429 
	C289.823181,200.902222 312.684113,200.936615 335.544983,201.003052 
	C338.185516,201.010727 340.825562,201.196548 343.767151,201.604950 
	C318.353149,201.947937 292.637817,201.985748 266.463013,201.813141 
	C266.024567,201.406967 266.045563,201.211243 266.066559,201.015533 
	C266.066559,201.015533 266.520325,200.970566 266.741272,200.914429 
z"/>
<path fill="#35789D" opacity="1.000000" stroke="none" 
	d="
M232.164490,240.136047 
	C229.953201,245.452957 227.784943,250.761871 225.243561,255.885712 
	C224.725586,256.930023 222.810913,257.838440 221.529297,257.852875 
	C215.239319,257.923920 208.945724,257.671936 202.295044,257.323975 
	C201.936707,257.113861 202.014526,257.006042 202.515640,256.987305 
	C206.834824,256.978302 210.654114,257.053680 214.470688,256.982910 
	C220.624695,256.868805 225.471146,255.158142 227.219772,248.185349 
	C227.962875,245.222153 230.293259,242.657043 231.902283,239.911026 
	C231.902298,239.911026 232.075729,240.062668 232.164490,240.136047 
z"/>
<path fill="#4E839C" opacity="1.000000" stroke="none" 
	d="
M322.855896,220.643768 
	C311.693359,221.030777 300.288788,221.050491 288.410400,221.115784 
	C286.884888,221.143677 285.833221,221.126007 283.920502,221.082428 
	C276.032990,221.082794 269.006531,221.109070 261.980042,221.135345 
	C261.549774,221.129913 261.119537,221.124466 260.168518,220.978821 
	C259.384583,220.642105 259.159332,220.408966 258.971985,220.139191 
	C280.185974,220.184952 301.399933,220.230728 322.855896,220.643768 
z"/>
<path fill="#38789B" opacity="1.000000" stroke="none" 
	d="
M288.979980,151.264099 
	C291.693420,155.541687 294.487488,160.169495 297.081299,164.906967 
	C298.551147,167.591537 299.692596,170.455887 301.022949,173.605209 
	C299.244812,171.443939 297.095856,169.087479 295.679443,166.351761 
	C293.207642,161.577591 291.186707,156.569992 288.979980,151.264099 
z"/>
<path fill="#307299" opacity="1.000000" stroke="none" 
	d="
M265.712799,201.072784 
	C266.045563,201.211243 266.024567,201.406967 266.001068,201.898041 
	C263.451172,207.877365 260.903778,213.561356 258.014343,219.595581 
	C257.489807,219.953079 257.307281,219.960312 257.124725,219.967560 
	C258.477600,213.079956 260.300812,206.397964 265.712799,201.072784 
z"/>
<path fill="#38789B" opacity="1.000000" stroke="none" 
	d="
M330.496216,190.946487 
	C330.967712,191.083618 330.975525,191.268860 330.995239,191.732086 
	C323.935547,191.963455 316.849915,192.124146 309.807800,191.644653 
	C308.763123,191.573517 307.924011,188.482544 307.009094,186.367676 
	C308.949890,190.516495 312.492828,191.545273 317.141907,191.118027 
	C321.406555,190.726120 325.733185,191.009033 330.496216,190.946487 
z"/>
<path fill="#2677A6" opacity="1.000000" stroke="none" 
	d="
M262.218201,221.424881 
	C269.006531,221.109070 276.032990,221.082794 283.524902,221.091125 
	C276.812378,221.321960 269.634369,221.518188 262.218201,221.424881 
z"/>
<path fill="#38789B" opacity="1.000000" stroke="none" 
	d="
M301.010193,174.355652 
	C303.009247,177.711807 304.984650,181.479340 307.011078,185.611435 
	C302.499054,183.615280 301.063477,179.559372 301.010193,174.355652 
z"/>
<path fill="#2677A6" opacity="1.000000" stroke="none" 
	d="
M346.078613,258.341400 
	C348.999725,258.021576 352.034668,258.011932 355.520813,258.010376 
	C354.249634,259.008606 352.527222,259.998718 350.441986,261.016846 
	C348.783600,260.247131 347.488007,259.449341 346.078613,258.341400 
z"/>
<path fill="#379AD4" opacity="1.000000" stroke="none" 
	d="
M375.255432,118.073845 
	C374.966278,117.478722 374.975128,117.061722 374.980530,116.331322 
	C376.429047,116.588646 377.881042,117.159370 379.635132,117.869392 
	C380.478516,118.696007 381.019806,119.383308 381.561066,120.070610 
	C381.376526,120.333199 381.191986,120.595779 381.007446,120.858360 
	C379.189423,119.989563 377.371429,119.120766 375.255432,118.073845 
z"/>
<path fill="#247CB0" opacity="1.000000" stroke="none" 
	d="
M389.993164,124.004623 
	C391.945557,125.099754 393.897949,126.194885 395.850372,127.290024 
	C395.516785,127.781464 395.183228,128.272903 394.849670,128.764343 
	C393.368103,127.744034 391.886536,126.723724 390.209808,125.150787 
	C390.007477,124.400307 390.000336,124.202461 389.993164,124.004623 
z"/>
<path fill="#379AD4" opacity="1.000000" stroke="none" 
	d="
M387.989441,124.017044 
	C386.529480,123.586411 385.069519,123.155769 383.609558,122.725136 
	C383.839691,122.187515 384.069794,121.649895 384.299896,121.112274 
	C385.442780,121.868057 386.585663,122.623833 387.865723,123.688354 
	C388.002930,123.997108 387.989441,124.017052 387.989441,124.017044 
z"/>
<path fill="#2677A6" opacity="1.000000" stroke="none" 
	d="
M257.091370,220.312653 
	C257.307281,219.960312 257.489807,219.953079 257.946045,219.931305 
	C258.219788,219.916763 258.605560,219.997284 258.788757,220.068237 
	C259.159332,220.408966 259.384583,220.642105 259.845825,220.983505 
	C259.336334,221.838974 258.628784,222.549545 257.921234,223.260117 
	C257.633484,222.392654 257.345734,221.525208 257.091370,220.312653 
z"/>
<path fill="#247CB0" opacity="1.000000" stroke="none" 
	d="
M400.328186,131.128632 
	C399.305664,131.058990 398.479584,130.777802 397.653473,130.496597 
	C397.874298,130.100189 398.095123,129.703781 398.315948,129.307373 
	C399.052155,129.843948 399.788361,130.380524 400.328186,131.128632 
z"/>
<path fill="#247CB0" opacity="1.000000" stroke="none" 
	d="
M92.581215,352.190948 
	C93.225067,351.582275 93.798569,351.240265 94.372070,350.898254 
	C94.395447,351.475769 94.418823,352.053253 94.442200,352.630798 
	C93.798424,352.573059 93.154648,352.515320 92.581215,352.190948 
z"/>
<path fill="#126097" opacity="1.000000" stroke="none" 
	d="
M74.699677,413.068329 
	C73.925804,414.017212 72.826164,415.018311 71.369980,416.046753 
	C72.133591,415.089569 73.253754,414.105072 74.699677,413.068329 
z"/>
<path fill="#38789B" opacity="1.000000" stroke="none" 
	d="
M286.055511,144.865204 
	C286.694031,146.017517 287.332550,147.169830 287.976044,148.673035 
	C287.981018,149.023911 287.505066,149.045593 287.244171,149.020752 
	C286.983276,148.995926 286.931458,148.956436 286.803223,148.780701 
	C286.484283,148.383347 286.267365,148.191391 285.893890,147.835358 
	C285.568817,147.396286 285.340637,147.187439 285.079071,147.015060 
	C285.071381,146.844482 285.063690,146.673920 285.246643,146.087158 
	C285.643372,145.402359 285.849457,145.133789 286.055511,144.865204 
z"/>
<path fill="#126097" opacity="1.000000" stroke="none" 
	d="
M77.713669,411.072174 
	C77.249573,411.689392 76.467812,412.343079 75.347366,413.011047 
	C75.804459,412.386444 76.600235,411.747528 77.713669,411.072174 
z"/>
<path fill="#247CB0" opacity="1.000000" stroke="none" 
	d="
M414.096619,133.362366 
	C414.884705,133.520081 415.775238,133.988724 416.830200,134.724747 
	C416.062805,134.552521 415.130920,134.112900 414.096619,133.362366 
z"/>
<path fill="#247CB0" opacity="1.000000" stroke="none" 
	d="
M14.993085,196.584961 
	C14.671724,195.870483 14.351020,194.752869 14.043628,193.267532 
	C14.056939,192.899796 14.511485,192.941849 14.739374,192.944412 
	C14.976089,194.025269 14.984916,195.103546 14.993085,196.584961 
z"/>
<path fill="#32789E" opacity="1.000000" stroke="none" 
	d="
M286.011719,144.573700 
	C285.849457,145.133789 285.643372,145.402359 285.240387,145.831116 
	C285.021942,145.235275 285.000427,144.479263 284.992676,143.344757 
	C285.326935,143.404907 285.647400,143.843552 286.011719,144.573700 
z"/>
<path fill="#32789E" opacity="1.000000" stroke="none" 
	d="
M285.110809,147.295517 
	C285.340637,147.187439 285.568817,147.396286 285.889191,148.078979 
	C286.014771,148.516342 285.995911,149.004196 285.997955,149.002228 
	C286.000000,149.000259 286.002075,148.996735 286.002075,148.996735 
	C285.715576,148.523148 285.429047,148.049561 285.110809,147.295517 
z"/>
<path fill="#379AD4" opacity="1.000000" stroke="none" 
	d="
M389.664429,123.995277 
	C390.000336,124.202461 390.007477,124.400307 390.018982,124.897575 
	C389.479279,124.950745 388.935272,124.704491 388.190369,124.237640 
	C387.989441,124.017052 388.002930,123.997108 388.012146,123.987549 
	C388.459473,123.980637 388.897614,123.983284 389.664429,123.995277 
z"/>
<path fill="#32789E" opacity="1.000000" stroke="none" 
	d="
M287.005981,149.019333 
	C287.028656,149.042740 286.650574,149.291077 286.650574,149.291077 
	C286.650574,149.291077 286.217896,149.219330 286.109985,149.108032 
	C286.002075,148.996735 286.000000,149.000259 286.231812,148.989487 
	C286.463654,148.978714 286.931458,148.956436 286.931458,148.956436 
	C286.931458,148.956436 286.983276,148.995926 287.005981,149.019333 
z"/>
<path fill="#38789B" opacity="1.000000" stroke="none" 
	d="
M288.058228,149.219421 
	C288.244629,149.194992 288.513733,149.373199 288.760254,149.804504 
	C288.491364,149.890289 288.292419,149.678436 288.058228,149.219421 
z"/>
<path fill="#247CB0" opacity="1.000000" stroke="none" 
	d="
M398.120056,124.070694 
	C398.021149,123.953247 398.504822,123.958488 398.746490,123.965889 
	C398.988159,123.973289 398.641174,124.253105 398.641174,124.253105 
	C398.641174,124.253105 398.218994,124.188141 398.120056,124.070694 
z"/>
<path fill="#126097" opacity="1.000000" stroke="none" 
	d="
M65.809555,419.140625 
	C65.854324,419.309509 65.630348,419.551178 65.134781,419.863586 
	C65.092331,419.696381 65.318207,419.456085 65.809555,419.140625 
z"/>
<path fill="#126097" opacity="1.000000" stroke="none" 
	d="
M443.747345,222.929688 
	C443.737762,223.021988 443.458160,223.117218 443.058533,223.091614 
	C443.118073,222.958069 443.297668,222.945343 443.747345,222.929688 
z"/>
<path fill="#BCBCBC" opacity="1.000000" stroke="none" 
	d="
M445.828247,249.712097 
	C443.559570,249.433319 441.119141,248.866638 438.339355,248.149963 
	C438.468964,247.386078 438.937927,246.772171 439.703430,246.079132 
	C441.885498,247.141403 443.770996,248.282806 445.828247,249.712097 
z"/>
<path fill="#BCBCBC" opacity="1.000000" stroke="none" 
	d="
M454.727295,256.829071 
	C453.860199,257.087677 452.720367,257.175354 451.290283,257.131500 
	C451.000000,256.250000 451.000000,255.500000 451.000000,254.375000 
	C452.151520,254.886047 453.303040,255.772095 454.727295,256.829071 
z"/>
<path fill="#BCBCBC" opacity="1.000000" stroke="none" 
	d="
M450.910614,253.679840 
	C449.726257,253.213440 448.452545,252.426880 447.089417,251.320160 
	C448.273743,251.786560 449.547485,252.573120 450.910614,253.679840 
z"/>
<path fill="#BCBDBD" opacity="1.000000" stroke="none" 
	d="
M428.667969,252.853302 
	C429.516571,256.942413 427.911163,260.237396 424.371033,261.384735 
	C420.679504,262.581146 416.288940,264.138641 413.096252,259.329620 
	C418.331604,257.437378 422.116974,252.106827 428.667969,252.853302 
z"/>
<path fill="#BCBCBC" opacity="1.000000" stroke="none" 
	d="
M443.697510,260.865692 
	C443.465393,261.842865 442.930786,262.685730 442.196045,263.763245 
	C441.483093,262.992035 440.970276,261.986206 440.457428,260.980377 
	C441.436615,260.897369 442.415802,260.814362 443.697510,260.865692 
z"/>
<path fill="#BBBBBC" opacity="1.000000" stroke="none" 
	d="
M431.595520,257.959412 
	C431.848206,257.784821 432.096771,257.775543 432.345337,257.766266 
	C432.341614,257.906494 432.337921,258.046722 432.334229,258.186951 
	C432.086639,258.166199 431.839020,258.145447 431.595520,257.959412 
z"/>
<path fill="#BBBBBC" opacity="1.000000" stroke="none" 
	d="
M139.493683,396.489014 
	C139.515167,396.480682 139.472183,396.497375 139.493683,396.489014 
z"/>
<path fill="#000000" opacity="1.000000" stroke="none" 
	d="
M231.956528,239.593430 
	C230.293259,242.657043 227.962875,245.222153 227.219772,248.185349 
	C225.471146,255.158142 220.624695,256.868805 214.470688,256.982910 
	C210.654114,257.053680 206.834824,256.978302 202.557037,256.935272 
	C204.659576,251.146057 207.050873,245.306625 209.813995,239.648773 
	C221.123032,216.492065 232.536438,193.386261 243.929947,170.270859 
	C249.994461,157.967056 256.096802,145.681915 262.530121,132.685165 
	C266.269073,139.710663 269.979553,146.019775 272.910767,152.672241 
	C273.614044,154.268402 271.727356,157.005707 270.970978,159.570038 
	C266.310028,168.478638 261.541443,176.950012 257.152588,185.613770 
	C251.714966,196.347824 246.496704,207.196381 241.367615,218.082138 
	C238.077057,225.065857 235.118286,232.205872 231.956528,239.593430 
z"/>
<path fill="#197BB9" opacity="1.000000" stroke="none" 
	d="
M286.803223,148.780701 
	C286.931458,148.956436 286.463654,148.978714 286.229797,148.991455 
	C285.995911,149.004196 286.014771,148.516342 286.019470,148.272736 
	C286.267365,148.191391 286.484283,148.383347 286.803223,148.780701 
z"/>
</svg>