<svg version="1.1" id="Layer_1" xmlns="http://www.w3.org/2000/svg" xmlns:xlink="http://www.w3.org/1999/xlink" x="0px" y="0px"
	 width="100%" viewBox="0 0 576 433" enable-background="new 0 0 576 433" xml:space="preserve">
<path fill="#010101" opacity="1.000000" stroke="none" 
	d="
M351.000000,434.000000 
	C234.000031,434.000000 117.500053,434.000000 1.000042,434.000000 
	C1.000000,361.833374 1.000000,289.666748 1.000000,217.500137 
	C1.000000,145.333481 1.000000,73.166840 1.000000,1.000140 
	C192.999893,1.000093 384.999786,1.000093 576.999756,1.000047 
	C576.999878,145.333191 576.999878,289.666382 576.999939,433.999786 
	C501.833344,434.000000 426.666656,434.000000 351.000000,434.000000 
M411.005493,130.002441 
	C411.005493,130.002441 411.039337,129.959427 410.696747,129.468246 
	C410.146301,129.265472 409.595856,129.062698 408.634521,128.348038 
	C406.143250,126.873352 403.651978,125.398666 400.871643,123.451416 
	C400.218079,123.159630 399.564484,122.867844 398.352875,122.124374 
	C386.385864,114.888908 374.482086,107.546211 362.438904,100.439857 
	C335.771057,84.703888 308.965607,69.200394 282.339813,53.394077 
	C243.322433,30.231567 201.437134,20.660488 156.333466,26.789200 
	C110.436546,33.025703 72.199257,53.759468 43.150017,89.878227 
	C13.343698,126.938324 2.233271,169.329880 11.155613,216.365723 
	C13.476011,228.598160 16.871424,240.657379 23.966265,251.678192 
	C23.966265,251.678192 24.245222,251.976013 24.321272,252.669403 
	C30.495401,261.602844 36.669529,270.536285 43.020134,280.096497 
	C43.956764,281.251312 44.855804,282.439117 45.835773,283.555908 
	C57.334667,296.660431 70.967323,307.218933 85.526314,316.645416 
	C93.295883,321.675964 95.244987,329.003662 93.589554,337.477417 
	C92.836174,341.333771 91.222649,345.075745 89.625069,348.704865 
	C79.452126,371.814209 69.174789,394.877594 58.542137,418.166168 
	C58.305206,418.398163 58.238705,418.671661 58.065628,419.506042 
	C57.949444,419.880035 57.833263,420.253998 57.196003,421.101898 
	C56.467342,423.070221 55.738682,425.038513 54.774498,427.075378 
	C54.774498,427.075378 54.855316,427.411530 54.855316,427.411530 
	C54.855316,427.411530 54.982941,426.982727 55.680878,427.130768 
	C57.387180,426.053528 59.093483,424.976288 60.910469,423.916687 
	C60.910469,423.916687 60.924793,423.805511 61.546364,423.791199 
	C62.318325,423.176361 63.090290,422.561493 63.950935,421.961243 
	C63.950935,421.961243 63.962517,421.872131 64.677284,421.862671 
	C73.022034,417.030914 81.420876,412.289856 89.701622,407.350769 
	C117.435318,390.809021 145.242050,374.384521 172.770157,357.506287 
	C182.027130,351.830627 191.447296,347.711517 202.378189,346.713287 
	C207.732925,346.224274 213.396393,345.015717 218.140533,342.601074 
	C250.929855,325.912445 283.522095,308.836304 316.161011,291.852600 
	C346.132507,276.256866 376.103302,260.659607 406.035278,244.988220 
	C423.724518,235.726730 441.337769,226.320038 459.695526,216.858337 
	C471.478058,210.562897 483.260590,204.267471 495.591553,197.856674 
	C496.048584,197.548630 496.505615,197.240585 497.671448,196.815216 
	C501.825378,194.638107 505.979340,192.460983 511.012543,189.823044 
	C507.397156,187.873245 504.707092,186.422455 502.001556,185.002075 
	C502.001556,185.002075 502.027710,184.978699 501.691254,184.453049 
	C500.773560,184.003723 499.855835,183.554398 498.728577,182.876556 
	C498.728577,182.876556 498.426727,182.805740 498.028503,182.246689 
	C495.682373,180.835968 493.336212,179.425232 491.000000,177.999390 
	C491.000000,177.999390 490.985870,178.012344 490.605621,177.459488 
	C485.465790,174.539139 480.325989,171.618790 475.173706,168.795303 
	C475.173706,168.795303 475.253448,168.738907 474.987061,168.212418 
	C474.301331,167.874069 473.615601,167.535721 472.657898,166.951340 
	C472.657898,166.951340 472.304321,166.853882 471.933502,166.328339 
	C471.343781,166.108154 470.754059,165.887970 470.196259,165.740601 
	C470.196259,165.740601 470.261658,165.695389 469.919922,165.162903 
	C468.242035,164.210510 466.564148,163.258133 464.582062,162.032059 
	C464.582062,162.032059 464.189178,161.917679 463.809784,161.400375 
	C462.850281,160.968842 461.890778,160.537308 460.720123,159.884369 
	C460.720123,159.884369 460.421265,159.818832 460.045044,159.241501 
	C458.017181,158.153015 455.989319,157.064529 453.801941,155.771271 
	C453.801941,155.771271 453.546021,155.727997 453.139923,155.179092 
	C451.802521,154.364349 450.465118,153.549606 448.678040,152.240158 
	C444.447968,149.830643 440.217865,147.421127 435.655701,144.492355 
	C434.759369,144.029694 433.863068,143.567017 432.558289,142.566010 
	C430.404236,141.365128 428.250153,140.164246 425.868805,138.537735 
	C425.640472,138.269180 425.351349,138.155945 424.517212,137.753555 
	C423.359375,137.162872 422.201508,136.572189 420.689575,135.469116 
	C419.773895,135.022629 418.858185,134.576141 417.560303,133.705139 
	C417.042603,133.480972 416.524902,133.256821 415.625092,132.505310 
	C414.476135,131.915298 413.327179,131.325272 412.148468,130.816284 
	C412.148468,130.816284 412.232605,130.835510 412.006958,130.342850 
	C411.680084,130.212952 411.353210,130.083054 411.005493,130.002441 
M127.922722,401.565186 
	C126.957329,402.092163 125.991936,402.619141 124.327042,403.258667 
	C118.563721,406.199402 112.800400,409.140137 107.037079,412.080872 
	C107.308029,412.640900 107.578979,413.200928 107.849930,413.760956 
	C113.555008,411.115417 119.260094,408.469910 125.602448,405.727600 
	C126.735893,405.153931 127.869339,404.580231 129.592743,404.026611 
	C130.076035,403.727264 130.559311,403.427917 131.770126,402.991730 
	C139.849548,399.338043 147.928970,395.684357 156.741699,391.972076 
	C159.824493,390.579407 162.907288,389.186737 166.648239,387.754669 
	C167.595428,387.223755 168.542603,386.692810 170.155014,386.073914 
	C171.765106,385.284668 173.375198,384.495422 175.620926,383.669800 
	C176.727631,383.055634 177.834335,382.441467 179.652237,381.771484 
	C183.098953,380.133881 186.545670,378.496246 190.569977,376.870056 
	C191.035629,376.549103 191.501266,376.228149 192.704697,375.871979 
	C200.482803,372.362335 208.260910,368.852722 216.705536,365.254089 
	C217.474854,364.847473 218.244156,364.440887 219.732086,363.934967 
	C222.148666,362.835541 224.565247,361.736145 227.618240,360.627411 
	C228.331909,360.188568 229.045578,359.749725 230.421234,359.255768 
	C323.890442,317.445526 417.359680,275.635284 512.233032,233.196945 
	C502.905090,248.834976 494.373505,263.137909 485.841919,277.440826 
	C486.188660,277.783539 486.535370,278.126251 486.882080,278.468964 
	C495.209747,272.863129 500.968475,264.415070 508.052185,257.463074 
	C515.415283,250.236969 522.333130,242.555542 529.408264,235.038071 
	C536.599426,227.397293 543.720032,219.690094 550.917480,212.055344 
	C557.950684,204.594803 565.042053,197.189011 572.367981,189.485641 
	C563.935181,184.925949 556.109802,180.550293 548.157776,176.418320 
	C495.167114,148.883484 442.170319,121.360245 389.126129,93.928772 
	C375.420898,86.841179 361.497925,80.175720 347.751251,73.166779 
	C336.108551,67.230560 324.576019,61.078304 312.692780,54.498444 
	C312.128113,54.333351 311.563446,54.168259 310.518677,53.522762 
	C308.038300,52.283489 305.557892,51.044212 302.648315,49.272182 
	C299.028015,47.673580 295.407684,46.074978 291.787384,44.476376 
	C291.555664,44.978046 291.323914,45.479717 291.092194,45.981392 
	C294.462280,47.805496 297.832367,49.629601 301.669220,51.990017 
	C304.794495,53.748371 307.919800,55.506729 311.141449,57.572712 
	C311.141449,57.572712 311.463684,57.580662 312.032745,57.917900 
	C314.152924,59.036316 316.273132,60.154728 318.827484,61.805042 
	C319.841705,62.300823 320.855896,62.796604 322.302338,63.790829 
	C324.868866,65.190819 327.435394,66.590805 330.353302,68.465355 
	C330.878845,68.697075 331.404358,68.928795 332.408081,69.638359 
	C337.436188,72.440224 342.528503,75.133545 347.480469,78.064041 
	C363.185120,87.357727 378.785950,96.827362 394.520172,106.070305 
	C430.679871,127.312073 466.911316,148.431763 503.077667,169.662231 
	C515.109985,176.725510 527.032654,183.975494 539.924988,191.690384 
	C535.936890,193.731033 532.741150,195.362610 529.548645,197.000290 
	C472.431244,226.299637 415.329071,255.628662 358.190369,284.886353 
	C333.174957,297.695374 308.085052,310.358917 282.384613,323.141937 
	C281.506317,323.727905 280.628021,324.313904 279.052185,324.972504 
	C276.372284,326.397247 273.692352,327.821991 270.400665,329.300873 
	C269.564392,329.852997 268.728149,330.405090 267.193176,331.023102 
	C263.101074,333.279236 259.009003,335.535400 254.261353,337.831299 
	C253.529999,338.285645 252.798645,338.739990 251.383514,339.233551 
	C249.593277,340.240112 247.803055,341.246704 245.333130,342.295288 
	C243.932678,343.032501 242.532211,343.769745 240.507797,344.739929 
	C230.006119,350.176788 219.504440,355.613678 208.315598,361.097046 
	C206.552078,362.087646 204.788559,363.078278 202.316727,364.147858 
	C189.215240,370.848999 176.113739,377.550140 162.375336,384.321472 
	C161.673157,384.782776 160.970963,385.244080 159.677383,385.851562 
	C158.449936,386.544159 157.222488,387.236755 155.266647,387.983398 
	C146.381241,392.504700 137.495834,397.025970 128.651962,401.619415 
	C128.651962,401.619415 128.587067,401.568268 127.922722,401.565186 
z"/>
<path fill="#197BB9" opacity="1.000000" stroke="none" 
	d="
M472.304321,166.853882 
	C472.304321,166.853882 472.657898,166.951340 472.904053,167.363220 
	C473.851318,168.096375 474.552368,168.417633 475.253448,168.738907 
	C475.253448,168.738907 475.173706,168.795303 475.287933,169.079620 
	C480.596741,172.246735 485.791290,175.129532 490.985870,178.012344 
	C490.985870,178.012344 491.000000,177.999390 491.067017,178.354156 
	C492.530334,181.916138 494.916412,183.361588 498.426727,182.805740 
	C498.426727,182.805740 498.728577,182.876556 498.948944,183.300201 
	C500.122101,184.142136 501.074921,184.560425 502.027710,184.978699 
	C502.027710,184.978699 502.001556,185.002075 502.069153,185.324966 
	C505.383179,189.452118 505.073975,192.168686 499.944122,193.888458 
	C498.744904,194.290527 497.945801,195.886078 496.962646,196.932526 
	C496.505615,197.240585 496.048584,197.548630 495.044983,197.728638 
	C493.423676,197.789459 492.205292,197.714828 491.297485,198.209824 
	C485.271179,201.495804 479.334442,204.945526 473.322662,208.258774 
	C468.579437,210.872910 463.770599,213.367935 458.636353,215.998413 
	C446.112762,221.274338 433.964081,226.516235 421.768677,231.647049 
	C410.175934,236.524323 398.563843,241.358475 386.902344,246.068268 
	C380.654175,248.591751 374.284088,250.813385 367.816284,252.861404 
	C365.430145,250.369888 363.196655,248.188171 360.753784,245.786194 
	C360.182343,244.630539 359.820282,243.695145 359.536987,242.335754 
	C358.835754,237.162521 358.491119,232.175232 353.044373,229.959137 
	C353.008881,229.960037 353.058777,229.909485 353.070679,229.516144 
	C352.927429,227.354797 352.772278,225.586792 352.612000,223.760742 
	C355.640259,221.967209 361.507599,223.352371 360.088379,216.706055 
	C360.463043,215.968948 360.774078,215.505936 361.420319,214.957474 
	C363.187195,211.944687 364.618866,209.017334 366.032898,206.060898 
	C366.015228,206.031815 366.083221,206.034119 366.417480,205.955963 
	C369.032257,204.354584 370.170441,202.781891 366.975525,201.005783 
	C366.988861,200.990662 366.993774,201.030579 366.705383,200.781021 
	C364.345337,200.030457 362.284149,199.146255 360.200378,199.089355 
	C344.143127,198.650665 328.081726,198.134796 312.021057,198.116211 
	C298.109131,198.100113 284.195038,198.658569 270.286346,199.102188 
	C268.819366,199.148956 267.382355,200.133469 265.742798,200.800262 
	C265.554199,200.917618 265.130341,201.050674 264.776093,201.107605 
	C262.287781,205.139099 259.988403,209.037155 258.096832,213.123962 
	C257.282104,214.884186 257.312073,217.035370 256.965576,219.326141 
	C256.991852,220.065491 257.010864,220.487625 257.025574,221.246658 
	C257.130951,222.379868 257.240570,223.176178 257.237122,223.151184 
	C259.547302,223.151184 261.464355,223.350647 263.324036,223.108658 
	C266.924042,222.640213 270.491730,221.923187 274.531555,221.245575 
	C280.302948,221.224396 285.615540,221.266815 291.128937,221.631058 
	C293.705322,222.289825 296.070923,222.757904 298.458344,222.940338 
	C307.372955,223.621582 316.294739,224.209183 325.180359,224.914337 
	C325.146851,224.996750 325.184723,224.823425 325.149963,225.193924 
	C326.094788,227.371628 327.074402,229.178833 328.263672,231.182648 
	C328.717957,232.098099 328.962524,232.816956 329.205872,233.880615 
	C329.563080,234.780441 329.921509,235.335464 330.239868,235.881226 
	C330.199768,235.871964 330.229614,235.795242 330.159943,236.148438 
	C331.174377,243.856018 334.803864,249.848846 340.208496,255.243088 
	C340.923065,256.167450 341.419250,256.857635 342.083069,257.828308 
	C344.881866,259.077454 347.513092,260.046112 349.888000,261.258118 
	C341.391510,265.062897 333.180786,268.694519 324.905029,272.171417 
	C306.348816,279.967407 287.761322,287.688995 269.184540,295.436096 
	C250.473480,303.239227 231.701538,310.900146 213.068771,318.885864 
	C201.182678,323.980042 188.614990,328.201691 177.929871,335.216583 
	C160.732178,346.507019 144.862549,359.815521 128.385910,372.210388 
	C110.058632,385.997467 91.646599,399.672058 73.353966,413.504761 
	C70.020508,416.025482 67.082870,419.069611 63.962517,421.872131 
	C63.962517,421.872131 63.950935,421.961243 63.583370,421.943787 
	C62.452137,422.552734 61.688469,423.179138 60.924797,423.805511 
	C60.924793,423.805511 60.910469,423.916687 60.500477,423.857361 
	C59.299351,422.741364 58.508217,421.684662 57.717079,420.627991 
	C57.833263,420.253998 57.949444,419.880035 58.368748,419.119080 
	C58.862656,418.508362 58.949314,418.249695 58.931835,417.956116 
	C69.174789,394.877594 79.452126,371.814209 89.625069,348.704865 
	C91.222649,345.075745 92.836174,341.333771 93.589554,337.477417 
	C95.244987,329.003662 93.295883,321.675964 85.526314,316.645416 
	C70.967323,307.218933 57.334667,296.660431 45.835773,283.555908 
	C44.855804,282.439117 43.956764,281.251312 42.959625,279.376923 
	C42.293747,277.213867 41.915863,275.612732 41.043674,274.354156 
	C37.251377,268.881958 33.362961,263.474182 29.407589,258.118225 
	C27.821915,255.971039 25.973860,254.017624 24.245224,251.976013 
	C24.245222,251.976013 23.966265,251.678192 23.940910,251.074585 
	C21.595772,244.012375 22.110289,236.547043 16.916811,231.077301 
	C16.224531,230.348206 16.179686,228.925552 16.003759,227.797775 
	C14.871274,220.538193 13.764072,213.274475 12.691461,206.005783 
	C11.770529,199.764954 10.689467,193.535767 10.110057,187.261642 
	C9.823484,184.158508 10.788390,181.182068 14.886646,181.406311 
	C14.618600,185.522247 14.329589,189.218231 14.032072,193.255371 
	C14.130221,194.492722 14.236876,195.388916 14.343531,196.285095 
	C14.555946,196.269989 14.768361,196.254883 14.980777,196.239777 
	C14.980777,195.151230 14.980777,194.062698 15.033936,192.577911 
	C15.298503,191.376816 15.587454,190.583603 15.710087,189.765457 
	C19.822428,162.329742 30.618450,137.879745 47.850300,116.104538 
	C67.963730,90.687973 93.607162,73.001350 123.926559,62.476486 
	C149.063202,53.750732 175.144577,48.664299 201.890701,52.183643 
	C219.459839,54.495449 237.298813,57.005272 254.098053,62.327034 
	C273.342743,68.423477 291.811737,77.212669 310.177704,85.775726 
	C332.015198,95.957352 353.384552,107.143005 375.259460,118.076111 
	C377.712372,119.172729 379.862549,120.086830 382.005737,121.001465 
	C381.998779,121.001991 381.994751,120.988487 382.174255,121.282608 
	C384.243195,122.388191 386.132599,123.199646 388.010010,124.006462 
	C387.998016,124.001816 387.978149,123.985497 388.184143,124.211639 
	C388.942261,124.705208 389.494446,124.972626 390.248291,125.491943 
	C393.511505,127.798004 396.573029,129.852158 400.142578,132.247147 
	C400.341980,130.079346 400.452728,128.875092 400.491486,128.453751 
	C404.804932,130.013336 408.916046,131.499771 413.217834,133.115326 
	C413.649506,133.437378 413.862000,133.657806 414.117584,134.215683 
	C415.467468,134.989029 416.745728,135.452377 418.348602,135.944473 
	C419.104462,136.024750 419.535706,136.076263 419.974609,136.540802 
	C420.657410,138.854431 420.853821,141.920441 422.099579,142.432236 
	C425.528168,143.840759 429.396454,144.178970 433.314209,144.961182 
	C433.537628,144.981750 433.983215,145.035034 433.992920,145.411255 
	C434.581146,147.068802 434.816376,148.823715 435.804474,149.540054 
	C438.459625,151.464890 441.436554,152.945847 445.080536,155.065384 
	C445.574066,154.931854 447.300049,154.464828 449.283234,154.238190 
	C450.875610,154.895050 452.210815,155.311523 453.546021,155.727997 
	C453.546021,155.727997 453.801941,155.771271 453.970337,156.219910 
	C456.232941,157.718643 458.327087,158.768738 460.421265,159.818832 
	C460.421265,159.818832 460.720123,159.884369 460.952454,160.311066 
	C462.186279,161.131073 463.187714,161.524384 464.189178,161.917694 
	C464.189178,161.917679 464.582062,162.032059 464.784485,162.515961 
	C466.745148,163.898376 468.503387,164.796890 470.261658,165.695389 
	C470.261658,165.695389 470.196259,165.740601 470.355652,165.981216 
	C471.111481,166.432510 471.707916,166.643204 472.304321,166.853882 
M311.900360,148.088577 
	C311.900360,148.088577 311.854462,148.155167 311.912537,147.466873 
	C311.305115,146.630203 310.697723,145.793533 309.660614,144.583496 
	C309.463409,144.061432 309.266205,143.539368 309.400970,142.507797 
	C308.300201,140.656433 307.199432,138.805069 305.881927,136.717239 
	C305.881927,136.717239 305.850250,136.398026 305.920044,135.552628 
	C305.911224,135.055679 306.055511,134.491318 305.870819,134.071793 
	C302.552307,126.534470 299.441376,118.886459 295.658325,111.587471 
	C294.787628,109.907578 291.627380,108.698601 289.440918,108.563354 
	C284.683411,108.269081 279.874634,108.946068 275.086487,108.950920 
	C272.240417,108.953804 268.775085,108.183937 268.310120,111.957268 
	C267.888763,115.376442 268.668915,119.059288 273.569427,120.325256 
	C273.728119,120.840973 273.886810,121.356689 274.002777,122.659683 
	C275.145569,124.779312 276.288361,126.898941 277.721436,129.337769 
	C277.721436,129.337769 277.785217,129.764481 277.145386,129.915558 
	C276.794128,130.507629 275.989716,131.349396 276.158173,131.655136 
	C279.997009,138.622162 283.886261,145.563339 287.902496,152.429565 
	C289.062347,154.412506 290.644318,156.148544 292.442474,158.387115 
	C292.643677,158.905930 292.844879,159.424744 292.674072,160.455505 
	C293.805573,162.286880 294.937042,164.118256 296.009186,166.004471 
	C296.009186,166.004471 296.057709,165.942322 296.013824,166.736862 
	C296.568390,169.630112 296.102966,173.122498 300.652954,174.289688 
	C300.829681,174.818817 301.006409,175.347961 300.712921,176.418747 
	C299.533997,180.444153 301.329132,182.767471 305.517883,184.430054 
	C306.051117,185.598480 306.584320,186.766891 306.663940,188.334457 
	C304.597382,191.559006 307.604034,192.510223 309.304077,192.612473 
	C313.186279,192.845947 317.118042,192.254791 321.672119,191.871490 
	C322.104309,191.915405 322.536499,191.959320 323.551910,192.428650 
	C325.375793,192.305939 327.199707,192.183228 329.694244,191.909637 
	C330.523163,191.287659 331.352112,190.665665 332.544128,189.945572 
	C332.308807,189.650177 332.073486,189.354797 331.416229,188.710052 
	C331.261627,188.191956 331.107025,187.673874 330.859741,186.716690 
	C330.748230,186.430099 330.569580,186.194412 329.924438,185.483337 
	C329.627411,184.662201 329.330414,183.841080 329.370331,182.544113 
	C328.602142,181.352417 327.833954,180.160706 326.758728,178.620361 
	C326.566040,178.353516 326.498016,178.057983 326.736542,176.893112 
	C324.341156,170.671005 322.263397,164.298569 319.419159,158.288895 
	C317.951996,155.188828 315.122192,152.733658 312.741791,149.823120 
	C312.741791,149.823120 312.835114,149.609039 312.651184,148.999908 
	C312.377258,148.683212 312.103302,148.366516 311.900360,148.088577 
M196.933334,240.431122 
	C198.700470,236.666290 200.645203,232.969391 202.126755,229.095352 
	C202.572235,227.930527 202.211121,225.830154 201.382187,224.926208 
	C199.170288,222.514084 196.503433,220.519165 194.026855,218.366608 
	C166.870850,248.990616 126.574928,241.506653 108.962341,222.208466 
	C90.781929,202.288040 89.744446,168.712341 106.921288,149.229507 
	C116.874382,137.940186 129.347000,131.808167 144.382019,130.710846 
	C163.382416,129.324112 179.342575,135.506958 192.565948,150.577850 
	C195.227097,147.569809 197.387711,144.833115 199.860413,142.415665 
	C202.313919,140.016983 205.081650,137.939743 208.384933,135.153580 
	C204.109360,131.207855 201.076401,128.137695 197.769272,125.398514 
	C162.210815,95.946571 96.657494,105.060005 77.074066,157.062531 
	C66.831192,184.261795 70.587837,210.353271 89.076561,232.748459 
	C112.972160,261.692932 154.291397,268.664764 187.582977,251.091232 
	C191.951065,248.785461 195.292145,245.969925 196.933334,240.431122 
M259.055847,136.599792 
	C239.399017,176.490997 219.742188,216.382217 199.527618,257.405304 
	C207.983902,257.405304 214.943710,257.546844 221.886826,257.269806 
	C223.081863,257.222076 224.669113,255.623077 225.295013,254.355469 
	C241.353577,221.832687 257.326385,189.267471 273.223969,156.665680 
	C273.960052,155.156158 274.650513,152.845947 274.018921,151.577484 
	C270.559998,144.630539 266.681244,137.892624 262.578186,130.410934 
	C261.306396,132.610992 260.344269,134.275391 259.055847,136.599792 
z"/>
<path fill="#B8B8B8" opacity="1.000000" stroke="none" 
	d="
M246.012833,342.253296 
	C247.803055,341.246704 249.593277,340.240112 251.974365,339.374908 
	C253.349106,338.941376 254.132996,338.366455 254.916901,337.791565 
	C259.009003,335.535400 263.101074,333.279236 267.872803,330.993469 
	C269.372437,330.391449 270.192413,329.819061 271.012421,329.246704 
	C273.692352,327.821991 276.372284,326.397247 279.751099,324.946777 
	C281.309662,324.310211 282.169312,323.699341 283.028992,323.088501 
	C308.085052,310.358917 333.174957,297.695374 358.190369,284.886353 
	C415.329071,255.628662 472.431244,226.299637 529.548645,197.000290 
	C532.741150,195.362610 535.936890,193.731033 539.924988,191.690384 
	C527.032654,183.975494 515.109985,176.725510 503.077667,169.662231 
	C466.911316,148.431763 430.679871,127.312073 394.520172,106.070305 
	C378.785950,96.827362 363.185120,87.357727 347.480469,78.064041 
	C342.528503,75.133545 337.436188,72.440224 332.135498,69.139084 
	C331.242615,68.423470 330.622253,68.207130 330.001923,67.990799 
	C327.435394,66.590805 324.868866,65.190819 321.987610,63.173149 
	C320.579681,62.128029 319.486481,61.700584 318.393311,61.273140 
	C316.273132,60.154728 314.152924,59.036316 311.956726,57.439228 
	C312.252045,56.314251 312.623383,55.667950 312.994690,55.021652 
	C324.576019,61.078304 336.108551,67.230560 347.751251,73.166779 
	C361.497925,80.175720 375.420898,86.841179 389.126129,93.928772 
	C442.170319,121.360245 495.167114,148.883484 548.157776,176.418320 
	C556.109802,180.550293 563.935181,184.925949 572.367981,189.485641 
	C565.042053,197.189011 557.950684,204.594803 550.917480,212.055344 
	C543.720032,219.690094 536.599426,227.397293 529.408264,235.038071 
	C522.333130,242.555542 515.415283,250.236969 508.052185,257.463074 
	C500.968475,264.415070 495.209747,272.863129 486.882080,278.468964 
	C486.535370,278.126251 486.188660,277.783539 485.841919,277.440826 
	C494.373505,263.137909 502.905090,248.834976 512.233032,233.196945 
	C417.359680,275.635284 323.890442,317.445526 229.749985,359.250793 
	C228.379761,359.709473 227.680801,360.173096 226.981827,360.636749 
	C224.565247,361.736145 222.148666,362.835541 219.127655,363.791473 
	C217.695145,364.213013 216.867081,364.778046 216.039032,365.343079 
	C208.260910,368.852722 200.482803,372.362335 192.145432,375.747681 
	C191.054901,376.035156 190.523651,376.446899 189.992371,376.858643 
	C186.545670,378.496246 183.098953,380.133881 179.060303,381.656128 
	C177.307343,382.262543 176.146301,382.984375 174.985275,383.706177 
	C173.375198,384.495422 171.765106,385.284668 169.461182,386.090210 
	C167.841614,386.669067 166.915848,387.231567 165.990097,387.794098 
	C162.907288,389.186737 159.824493,390.579407 156.370544,391.591248 
	C155.997940,390.116699 155.996490,389.023010 155.995056,387.929321 
	C157.222488,387.236755 158.449936,386.544159 160.316940,385.799194 
	C161.641739,385.248291 162.326996,384.749756 163.012238,384.251251 
	C176.113739,377.550140 189.215240,370.848999 202.898193,364.329285 
	C207.772324,367.270569 208.073090,363.658630 209.002777,361.050537 
	C219.504440,355.613678 230.006119,350.176788 241.200470,344.694763 
	C243.266373,343.850800 244.639603,343.052032 246.012833,342.253296 
z"/>
<path fill="#135E93" opacity="1.000000" stroke="none" 
	d="
M64.319901,421.867401 
	C67.082870,419.069611 70.020508,416.025482 73.353966,413.504761 
	C91.646599,399.672058 110.058632,385.997467 128.385910,372.210388 
	C144.862549,359.815521 160.732178,346.507019 177.929871,335.216583 
	C188.614990,328.201691 201.182678,323.980042 213.068771,318.885864 
	C231.701538,310.900146 250.473480,303.239227 269.184540,295.436096 
	C287.761322,287.688995 306.348816,279.967407 324.905029,272.171417 
	C333.180786,268.694519 341.391510,265.062897 350.240967,261.254639 
	C352.859039,259.984253 354.867859,258.960724 357.287506,257.777527 
	C358.279114,257.664978 358.859894,257.712128 359.615540,257.780701 
	C360.376495,257.790894 360.962677,257.779694 361.988098,257.635834 
	C363.342133,257.445496 364.256866,257.387787 365.366760,257.447296 
	C365.993469,257.396515 366.697754,257.333130 366.809357,257.042297 
	C367.290619,255.788300 367.598175,254.467606 367.968994,253.171204 
	C374.284088,250.813385 380.654175,248.591751 386.902344,246.068268 
	C398.563843,241.358475 410.175934,236.524323 421.768677,231.647049 
	C433.964081,226.516235 446.112762,221.274338 458.636658,216.264496 
	C458.989380,216.624878 458.987305,216.801758 458.985199,216.978638 
	C441.337769,226.320038 423.724518,235.726730 406.035278,244.988220 
	C376.103302,260.659607 346.132507,276.256866 316.161011,291.852600 
	C283.522095,308.836304 250.929855,325.912445 218.140533,342.601074 
	C213.396393,345.015717 207.732925,346.224274 202.378189,346.713287 
	C191.447296,347.711517 182.027130,351.830627 172.770157,357.506287 
	C145.242050,374.384521 117.435318,390.809021 89.701622,407.350769 
	C81.420876,412.289856 73.022034,417.030914 64.319901,421.867401 
z"/>
<path fill="#1F79B0" opacity="1.000000" stroke="none" 
	d="
M14.865682,180.986343 
	C10.788390,181.182068 9.823484,184.158508 10.110057,187.261642 
	C10.689467,193.535767 11.770529,199.764954 12.691461,206.005783 
	C13.764072,213.274475 14.871274,220.538193 16.003759,227.797775 
	C16.179686,228.925552 16.224531,230.348206 16.916811,231.077301 
	C22.110289,236.547043 21.595772,244.012375 23.909519,250.872986 
	C16.871424,240.657379 13.476011,228.598160 11.155613,216.365723 
	C2.233271,169.329880 13.343698,126.938324 43.150017,89.878227 
	C72.199257,53.759468 110.436546,33.025703 156.333466,26.789200 
	C201.437134,20.660488 243.322433,30.231567 282.339813,53.394077 
	C308.965607,69.200394 335.771057,84.703888 362.438904,100.439857 
	C374.482086,107.546211 386.385864,114.888908 398.760498,122.600082 
	C399.832306,123.358521 400.496521,123.641251 401.160706,123.923981 
	C403.651978,125.398666 406.143250,126.873352 409.021667,128.840729 
	C409.952332,129.542099 410.495819,129.750763 411.039337,129.959427 
	C411.039337,129.959427 411.005493,130.002441 411.170746,130.181702 
	C411.634857,130.519150 411.933746,130.677322 412.232605,130.835510 
	C412.232605,130.835510 412.148468,130.816284 412.218262,131.074371 
	C412.534424,131.883713 412.780792,132.434952 413.027161,132.986206 
	C408.916046,131.499771 404.804932,130.013336 400.491486,128.453751 
	C400.452728,128.875092 400.341980,130.079346 400.142578,132.247147 
	C396.573029,129.852158 393.511505,127.798004 390.065979,125.226585 
	C389.114044,124.468048 388.546082,124.226768 387.978149,123.985489 
	C387.978149,123.985497 387.998016,124.001816 387.832581,123.707596 
	C385.776337,122.605087 383.885559,121.796783 381.994751,120.988480 
	C381.994751,120.988487 381.998779,121.001991 381.940826,120.667099 
	C379.584076,118.890694 377.285278,117.449165 374.688171,115.838821 
	C365.529633,110.396484 356.695953,105.077797 347.803955,99.858406 
	C326.277893,87.223190 304.428375,75.109367 283.256470,61.907791 
	C256.076752,44.960052 226.476212,35.748974 194.886139,33.208958 
	C170.634674,31.259008 146.758621,34.324024 123.619720,42.507317 
	C94.509827,52.802311 70.061150,69.654129 50.551308,93.552437 
	C29.752722,119.029373 18.131580,148.319611 14.865682,180.986343 
M396.648163,126.397095 
	C396.851471,125.825386 397.054779,125.253670 397.258087,124.681946 
	C396.823029,124.648857 396.388000,124.615761 395.952942,124.582672 
	C396.019958,125.125946 396.086975,125.669220 396.648163,126.397095 
M398.527893,128.501877 
	C398.527893,128.501877 398.486664,128.517593 398.527893,128.501877 
z"/>
<path fill="#B0B0B2" opacity="1.000000" stroke="none" 
	d="
M155.630844,387.956360 
	C155.996490,389.023010 155.997940,390.116699 156.003876,391.620514 
	C147.928970,395.684357 139.849548,399.338043 131.023224,402.763550 
	C129.721039,402.205994 129.165741,401.876617 128.610443,401.547241 
	C137.495834,397.025970 146.381241,392.504700 155.630844,387.956360 
z"/>
<path fill="#216992" opacity="1.000000" stroke="none" 
	d="
M459.340363,216.918488 
	C458.987305,216.801758 458.989380,216.624878 458.991180,216.181931 
	C463.770599,213.367935 468.579437,210.872910 473.322662,208.258774 
	C479.334442,204.945526 485.271179,201.495804 491.297485,198.209824 
	C492.205292,197.714828 493.423676,197.789459 494.770782,197.786316 
	C483.260590,204.267471 471.478058,210.562897 459.340363,216.918488 
z"/>
<path fill="#1F79B0" opacity="1.000000" stroke="none" 
	d="
M24.283249,252.322708 
	C25.973860,254.017624 27.821915,255.971039 29.407589,258.118225 
	C33.362961,263.474182 37.251377,268.881958 41.043674,274.354156 
	C41.915863,275.612732 42.293747,277.213867 42.871384,279.063538 
	C36.669529,270.536285 30.495401,261.602844 24.283249,252.322708 
z"/>
<path fill="#1F79B0" opacity="1.000000" stroke="none" 
	d="
M449.026062,153.997803 
	C447.300049,154.464828 445.574066,154.931854 445.080536,155.065384 
	C441.436554,152.945847 438.459625,151.464890 435.804474,149.540054 
	C434.816376,148.823715 434.581146,147.068802 434.327393,145.415771 
	C435.097351,145.033249 435.542572,145.022430 435.987793,145.011612 
	C440.217865,147.421127 444.447968,149.830643 448.871521,152.802826 
	C449.052032,153.576294 449.039032,153.787064 449.026062,153.997803 
z"/>
<path fill="#1F79B0" opacity="1.000000" stroke="none" 
	d="
M433.090820,144.940613 
	C429.396454,144.178970 425.528168,143.840759 422.099579,142.432236 
	C420.853821,141.920441 420.657410,138.854431 420.244568,136.508606 
	C420.685852,136.036087 420.864777,136.008804 421.043671,135.981506 
	C422.201508,136.572189 423.359375,137.162872 424.901855,138.154938 
	C425.514801,138.774597 425.784668,138.910294 426.096100,138.963364 
	C428.250153,140.164246 430.404236,141.365128 432.764313,143.142502 
	C433.010498,144.126205 433.050659,144.533401 433.090820,144.940613 
z"/>
<path fill="#9A9999" opacity="1.000000" stroke="none" 
	d="
M124.965172,405.824371 
	C119.260094,408.469910 113.555008,411.115417 107.849930,413.760956 
	C107.578979,413.200928 107.308029,412.640900 107.037079,412.080872 
	C112.800400,409.140137 118.563721,406.199402 124.670845,403.537384 
	C124.998161,404.485535 124.981667,405.154938 124.965172,405.824371 
z"/>
<path fill="#216992" opacity="1.000000" stroke="none" 
	d="
M497.317047,196.873871 
	C497.945801,195.886078 498.744904,194.290527 499.944122,193.888458 
	C505.073975,192.168686 505.383179,189.452118 502.076843,185.309769 
	C504.707092,186.422455 507.397156,187.873245 511.012543,189.823044 
	C505.979340,192.460983 501.825378,194.638107 497.317047,196.873871 
z"/>
<path fill="#216992" opacity="1.000000" stroke="none" 
	d="
M490.795746,177.735916 
	C485.791290,175.129532 480.596741,172.246735 475.294159,169.031189 
	C480.325989,171.618790 485.465790,174.539139 490.795746,177.735916 
z"/>
<path fill="#A6A8A8" opacity="1.000000" stroke="none" 
	d="
M301.202454,51.453712 
	C297.832367,49.629601 294.462280,47.805496 291.092194,45.981392 
	C291.323914,45.479717 291.555664,44.978046 291.787384,44.476376 
	C295.407684,46.074978 299.028015,47.673580 302.571411,49.835625 
	C302.063843,50.750618 301.633148,51.102169 301.202454,51.453712 
z"/>
<path fill="#B8B8B8" opacity="1.000000" stroke="none" 
	d="
M301.435852,51.721870 
	C301.633148,51.102169 302.063843,50.750618 302.786011,50.102005 
	C305.557892,51.044212 308.038300,52.283489 310.761139,54.170692 
	C311.017426,55.634113 311.031250,56.449600 311.045074,57.265087 
	C307.919800,55.506729 304.794495,53.748371 301.435852,51.721870 
z"/>
<path fill="#B0B0B2" opacity="1.000000" stroke="none" 
	d="
M208.659180,361.073792 
	C208.073090,363.658630 207.772324,367.270569 203.252350,364.289795 
	C204.788559,363.078278 206.552078,362.087646 208.659180,361.073792 
z"/>
<path fill="#216992" opacity="1.000000" stroke="none" 
	d="
M498.227600,182.526215 
	C494.916412,183.361588 492.530334,181.916138 491.062042,178.361694 
	C493.336212,179.425232 495.682373,180.835968 498.227600,182.526215 
z"/>
<path fill="#135E93" opacity="1.000000" stroke="none" 
	d="
M57.456543,420.864929 
	C58.508217,421.684662 59.299351,422.741364 60.445137,423.848572 
	C59.093483,424.976288 57.387180,426.053528 55.338860,427.063660 
	C54.996845,426.996552 55.010021,427.006836 55.010025,427.006836 
	C55.738682,425.038513 56.467342,423.070221 57.456543,420.864929 
z"/>
<path fill="#216992" opacity="1.000000" stroke="none" 
	d="
M460.233154,159.530167 
	C458.327087,158.768738 456.232941,157.718643 454.050110,156.322296 
	C455.989319,157.064529 458.017181,158.153015 460.233154,159.530167 
z"/>
<path fill="#B0B0B2" opacity="1.000000" stroke="none" 
	d="
M125.283813,405.776001 
	C124.981667,405.154938 124.998161,404.485535 125.020599,403.481079 
	C125.991936,402.619141 126.957329,402.092163 128.384705,401.961456 
	C128.898727,402.907318 128.950745,403.456940 129.002777,404.006531 
	C127.869339,404.580231 126.735893,405.153931 125.283813,405.776001 
z"/>
<path fill="#216992" opacity="1.000000" stroke="none" 
	d="
M470.090790,165.429138 
	C468.503387,164.796890 466.745148,163.898376 464.936584,162.652802 
	C466.564148,163.258133 468.242035,164.210510 470.090790,165.429138 
z"/>
<path fill="#1F79B0" opacity="1.000000" stroke="none" 
	d="
M418.024048,135.915710 
	C416.745728,135.452377 415.467468,134.989029 414.391052,134.182983 
	C415.064362,133.571075 415.535797,133.301865 416.007202,133.032654 
	C416.524902,133.256821 417.042603,133.480972 417.755310,134.215973 
	C417.974915,135.123108 417.999481,135.519409 418.024048,135.915710 
z"/>
<path fill="#216992" opacity="1.000000" stroke="none" 
	d="
M449.283234,154.238190 
	C449.039032,153.787064 449.052032,153.576294 449.096375,153.050186 
	C450.465118,153.549606 451.802521,154.364349 453.342957,155.453552 
	C452.210815,155.311523 450.875610,154.895050 449.283234,154.238190 
z"/>
<path fill="#B0B0B2" opacity="1.000000" stroke="none" 
	d="
M245.672974,342.274292 
	C244.639603,343.052032 243.266373,343.850800 241.512451,344.578247 
	C242.532211,343.769745 243.932678,343.032501 245.672974,342.274292 
z"/>
<path fill="#216992" opacity="1.000000" stroke="none" 
	d="
M415.816162,132.768982 
	C415.535797,133.301865 415.064362,133.571075 414.319458,133.872986 
	C413.862000,133.657806 413.649506,133.437378 413.217834,133.115311 
	C412.780792,132.434952 412.534424,131.883713 412.233154,131.033875 
	C413.327179,131.325272 414.476135,131.915298 415.816162,132.768982 
z"/>
<path fill="#B0B0B2" opacity="1.000000" stroke="none" 
	d="
M175.303101,383.687988 
	C176.146301,382.984375 177.307343,382.262543 178.704712,381.684021 
	C177.834335,382.441467 176.727631,383.055634 175.303101,383.687988 
z"/>
<path fill="#B0B0B2" opacity="1.000000" stroke="none" 
	d="
M254.589127,337.811401 
	C254.132996,338.366455 253.349106,338.941376 252.316238,339.355286 
	C252.798645,338.739990 253.529999,338.285645 254.589127,337.811401 
z"/>
<path fill="#A6A8A8" opacity="1.000000" stroke="none" 
	d="
M318.610413,61.539093 
	C319.486481,61.700584 320.579681,62.128029 321.771484,62.923927 
	C320.855896,62.796604 319.841705,62.300823 318.610413,61.539093 
z"/>
<path fill="#B0B0B2" opacity="1.000000" stroke="none" 
	d="
M216.372284,365.298584 
	C216.867081,364.778046 217.695145,364.213013 218.768341,363.841125 
	C218.244156,364.440887 217.474854,364.847473 216.372284,365.298584 
z"/>
<path fill="#B0B0B2" opacity="1.000000" stroke="none" 
	d="
M282.706787,323.115234 
	C282.169312,323.699341 281.309662,324.310211 280.099884,324.910492 
	C280.628021,324.313904 281.506317,323.727905 282.706787,323.115234 
z"/>
<path fill="#216992" opacity="1.000000" stroke="none" 
	d="
M501.859497,184.715881 
	C501.074921,184.560425 500.122101,184.142136 499.053711,183.414459 
	C499.855835,183.554398 500.773560,184.003723 501.859497,184.715881 
z"/>
<path fill="#B0B0B2" opacity="1.000000" stroke="none" 
	d="
M270.706543,329.273804 
	C270.192413,329.819061 269.372437,330.391449 268.222168,330.960510 
	C268.728149,330.405090 269.564392,329.852997 270.706543,329.273804 
z"/>
<path fill="#135E93" opacity="1.000000" stroke="none" 
	d="
M61.235580,423.798340 
	C61.688469,423.179138 62.452137,422.552734 63.539032,421.936462 
	C63.090290,422.561493 62.318325,423.176361 61.235580,423.798340 
z"/>
<path fill="#B0B0B2" opacity="1.000000" stroke="none" 
	d="
M166.319168,387.774384 
	C166.915848,387.231567 167.841614,386.669067 169.128571,386.134216 
	C168.542603,386.692810 167.595428,387.223755 166.319168,387.774384 
z"/>
<path fill="#A6A8A8" opacity="1.000000" stroke="none" 
	d="
M311.093262,57.418900 
	C311.031250,56.449600 311.017426,55.634113 311.001190,54.410896 
	C311.563446,54.168259 312.128113,54.333351 312.843750,54.760044 
	C312.623383,55.667950 312.252045,56.314251 311.672180,57.270607 
	C311.463684,57.580662 311.141449,57.572712 311.093262,57.418900 
z"/>
<path fill="#216992" opacity="1.000000" stroke="none" 
	d="
M418.348633,135.944473 
	C417.999481,135.519409 417.974915,135.123108 417.946411,134.428223 
	C418.858185,134.576141 419.773895,135.022629 420.866638,135.725311 
	C420.864777,136.008804 420.685852,136.036087 420.236938,136.095581 
	C419.535706,136.076263 419.104462,136.024750 418.348633,135.944473 
z"/>
<path fill="#216992" opacity="1.000000" stroke="none" 
	d="
M433.314209,144.961182 
	C433.050659,144.533401 433.010498,144.126205 432.968536,143.411667 
	C433.863068,143.567017 434.759369,144.029694 435.821747,144.751984 
	C435.542572,145.022430 435.097351,145.033249 434.317688,145.039551 
	C433.983215,145.035034 433.537628,144.981750 433.314209,144.961182 
z"/>
<path fill="#216992" opacity="1.000000" stroke="none" 
	d="
M463.999481,161.659027 
	C463.187714,161.524384 462.186279,161.131073 461.058044,160.421768 
	C461.890778,160.537308 462.850281,160.968842 463.999481,161.659027 
z"/>
<path fill="#B0B0B2" opacity="1.000000" stroke="none" 
	d="
M162.693787,384.286377 
	C162.326996,384.749756 161.641739,385.248291 160.612640,385.726105 
	C160.970963,385.244080 161.673157,384.782776 162.693787,384.286377 
z"/>
<path fill="#B0B0B2" opacity="1.000000" stroke="none" 
	d="
M190.281189,376.864349 
	C190.523651,376.446899 191.054901,376.035156 191.776535,375.765289 
	C191.501266,376.228149 191.035629,376.549103 190.281189,376.864349 
z"/>
<path fill="#B0B0B2" opacity="1.000000" stroke="none" 
	d="
M227.300034,360.632080 
	C227.680801,360.173096 228.379761,359.709473 229.418991,359.278351 
	C229.045578,359.749725 228.331909,360.188568 227.300034,360.632080 
z"/>
<path fill="#9A9999" opacity="1.000000" stroke="none" 
	d="
M129.297760,404.016571 
	C128.950745,403.456940 128.898727,402.907318 128.716888,401.963013 
	C128.587067,401.568268 128.651962,401.619415 128.631195,401.583344 
	C129.165741,401.876617 129.721039,402.205994 130.659454,402.831970 
	C130.559311,403.427917 130.076035,403.727264 129.297760,404.016571 
z"/>
<path fill="#216992" opacity="1.000000" stroke="none" 
	d="
M475.120239,168.475662 
	C474.552368,168.417633 473.851318,168.096375 473.040039,167.486237 
	C473.615601,167.535721 474.301331,167.874069 475.120239,168.475662 
z"/>
<path fill="#A6A8A8" opacity="1.000000" stroke="none" 
	d="
M330.177612,68.228073 
	C330.622253,68.207130 331.242615,68.423470 331.896423,68.900162 
	C331.404358,68.928795 330.878845,68.697075 330.177612,68.228073 
z"/>
<path fill="#216992" opacity="1.000000" stroke="none" 
	d="
M401.016174,123.687698 
	C400.496521,123.641251 399.832306,123.358521 399.039520,122.825928 
	C399.564484,122.867844 400.218079,123.159630 401.016174,123.687698 
z"/>
<path fill="#216992" opacity="1.000000" stroke="none" 
	d="
M410.868042,129.713837 
	C410.495819,129.750763 409.952332,129.542099 409.227112,129.096680 
	C409.595856,129.062698 410.146301,129.265472 410.868042,129.713837 
z"/>
<path fill="#216992" opacity="1.000000" stroke="none" 
	d="
M472.118896,166.591110 
	C471.707916,166.643204 471.111481,166.432510 470.339722,165.944794 
	C470.754059,165.887970 471.343781,166.108154 472.118896,166.591110 
z"/>
<path fill="#216992" opacity="1.000000" stroke="none" 
	d="
M412.119781,130.589172 
	C411.933746,130.677322 411.634857,130.519150 411.181152,130.157074 
	C411.353210,130.083054 411.680084,130.212952 412.119781,130.589172 
z"/>
<path fill="#216992" opacity="1.000000" stroke="none" 
	d="
M425.982452,138.750549 
	C425.784668,138.910294 425.514801,138.774597 425.143921,138.377167 
	C425.351349,138.155945 425.640472,138.269180 425.982452,138.750549 
z"/>
<path fill="#135E93" opacity="1.000000" stroke="none" 
	d="
M58.736984,418.061157 
	C58.949314,418.249695 58.862656,418.508362 58.507252,418.859375 
	C58.238705,418.671661 58.305206,418.398163 58.736984,418.061157 
z"/>
<path fill="#135E93" opacity="1.000000" stroke="none" 
	d="
M54.989891,426.989624 
	C54.982941,426.982727 54.855316,427.411530 54.855316,427.411530 
	C54.855316,427.411530 54.774498,427.075378 54.892258,427.041107 
	C55.010021,427.006836 54.996845,426.996552 54.989891,426.989624 
z"/>
<path fill="#010203" opacity="1.000000" stroke="none" 
	d="
M196.760941,240.764313 
	C195.292145,245.969925 191.951065,248.785461 187.582977,251.091232 
	C154.291397,268.664764 112.972160,261.692932 89.076561,232.748459 
	C70.587837,210.353271 66.831192,184.261795 77.074066,157.062531 
	C96.657494,105.060005 162.210815,95.946571 197.769272,125.398514 
	C201.076401,128.137695 204.109360,131.207855 208.384933,135.153580 
	C205.081650,137.939743 202.313919,140.016983 199.860413,142.415665 
	C197.387711,144.833115 195.227097,147.569809 192.565948,150.577850 
	C179.342575,135.506958 163.382416,129.324112 144.382019,130.710846 
	C129.347000,131.808167 116.874382,137.940186 106.921288,149.229507 
	C89.744446,168.712341 90.781929,202.288040 108.962341,222.208466 
	C126.574928,241.506653 166.870850,248.990616 194.026855,218.366608 
	C196.503433,220.519165 199.170288,222.514084 201.382187,224.926208 
	C202.211121,225.830154 202.572235,227.930527 202.126755,229.095352 
	C200.645203,232.969391 198.700470,236.666290 196.760941,240.764313 
z"/>
<path fill="#45B0DC" opacity="1.000000" stroke="none" 
	d="
M14.886646,181.406311 
	C18.131580,148.319611 29.752722,119.029373 50.551308,93.552437 
	C70.061150,69.654129 94.509827,52.802311 123.619720,42.507317 
	C146.758621,34.324024 170.634674,31.259008 194.886139,33.208958 
	C226.476212,35.748974 256.076752,44.960052 283.256470,61.907791 
	C304.428375,75.109367 326.277893,87.223190 347.803955,99.858406 
	C356.695953,105.077797 365.529633,110.396484 374.688538,116.153687 
	C374.977020,117.056114 374.966888,117.474869 374.956757,117.893616 
	C353.384552,107.143005 332.015198,95.957352 310.177704,85.775726 
	C291.811737,77.212669 273.342743,68.423477 254.098053,62.327034 
	C237.298813,57.005272 219.459839,54.495449 201.890701,52.183643 
	C175.144577,48.664299 149.063202,53.750732 123.926559,62.476486 
	C93.607162,73.001350 67.963730,90.687973 47.850300,116.104538 
	C30.618450,137.879745 19.822428,162.329742 15.710087,189.765457 
	C15.587454,190.583603 15.298503,191.376816 14.798456,192.571289 
	C14.509818,192.960907 14.040577,192.914215 14.040577,192.914215 
	C14.329589,189.218231 14.618600,185.522247 14.886646,181.406311 
z"/>
<path fill="#010102" opacity="1.000000" stroke="none" 
	d="
M365.171631,257.330078 
	C364.256866,257.387787 363.342133,257.445496 361.737976,257.520264 
	C360.512634,257.611298 359.976685,257.685272 359.440704,257.759247 
	C358.859894,257.712128 358.279114,257.664978 356.868713,257.579712 
	C351.331207,257.543671 346.623352,257.545715 341.915466,257.547791 
	C341.419250,256.857635 340.923065,256.167450 340.182861,254.881454 
	C336.702423,248.122162 333.466034,241.958710 330.229614,235.795242 
	C330.229614,235.795242 330.199768,235.871964 330.213928,235.544952 
	C329.887787,234.657227 329.547455,234.096512 329.207123,233.535797 
	C328.962524,232.816956 328.717957,232.098099 328.234375,230.829178 
	C327.058472,228.460541 326.121613,226.641983 325.184723,224.823425 
	C325.184723,224.823425 325.146851,224.996750 325.113312,224.532288 
	C323.779114,223.070587 322.492279,221.231628 321.175537,221.209930 
	C311.096344,221.043854 301.011353,221.231537 290.928162,221.309235 
	C285.615540,221.266815 280.302948,221.224396 274.067322,221.145569 
	C267.772827,221.042694 262.401337,220.976227 257.029846,220.909760 
	C257.010864,220.487625 256.991852,220.065491 257.210266,219.084976 
	C260.008545,212.701279 262.569427,206.875977 265.130341,201.050674 
	C265.130341,201.050674 265.554199,200.917618 266.213654,200.857941 
	C300.246674,200.875702 333.620209,200.953140 366.993774,201.030579 
	C366.993774,201.030579 366.988861,200.990662 367.016663,201.373367 
	C366.724030,203.182083 366.403625,204.608093 366.083221,206.034119 
	C366.083221,206.034119 366.015228,206.031815 365.753113,206.245636 
	C364.022369,209.320602 362.553741,212.181763 361.085114,215.042908 
	C360.774078,215.505936 360.463043,215.968948 359.787354,216.909958 
	C357.995575,222.749619 352.848022,220.281570 348.947510,222.092285 
	C350.395813,224.846085 351.727295,227.377792 353.058777,229.909485 
	C353.058777,229.909485 353.008881,229.960037 353.064758,230.321152 
	C355.233185,234.708084 357.345703,238.733917 359.458221,242.759750 
	C359.820282,243.695145 360.182343,244.630539 360.778229,246.157379 
	C362.398590,250.275894 363.785126,253.802994 365.171631,257.330078 
z"/>
<path fill="#010303" opacity="1.000000" stroke="none" 
	d="
M259.218994,136.269791 
	C260.344269,134.275391 261.306396,132.610992 262.578186,130.410934 
	C266.681244,137.892624 270.559998,144.630539 274.018921,151.577484 
	C274.650513,152.845947 273.960052,155.156158 273.223969,156.665680 
	C257.326385,189.267471 241.353577,221.832687 225.295013,254.355469 
	C224.669113,255.623077 223.081863,257.222076 221.886826,257.269806 
	C214.943710,257.546844 207.983902,257.405304 199.527618,257.405304 
	C219.742188,216.382217 239.399017,176.490997 259.218994,136.269791 
z"/>
<path fill="#020304" opacity="1.000000" stroke="none" 
	d="
M332.181061,190.043701 
	C331.352112,190.665665 330.523163,191.287659 328.937134,191.870575 
	C326.442932,191.888748 324.705811,191.945984 322.968689,192.003220 
	C322.536499,191.959320 322.104309,191.915405 320.901764,191.836731 
	C315.657623,190.970276 310.035736,194.002701 307.117554,187.935318 
	C306.584320,186.766891 306.051117,185.598480 305.250793,183.852509 
	C303.716827,180.809006 302.449982,178.343063 301.183105,175.877106 
	C301.006409,175.347961 300.829681,174.818817 300.362640,173.755157 
	C298.734131,170.794510 297.395935,168.368408 296.057709,165.942322 
	C296.057709,165.942322 296.009186,166.004471 295.996460,165.635254 
	C295.004547,163.491867 294.025330,161.717712 293.046082,159.943558 
	C292.844879,159.424744 292.643677,158.905930 292.198608,157.831726 
	C287.231598,148.105713 282.508392,138.935089 277.785217,129.764481 
	C277.785217,129.764481 277.721436,129.337769 277.523224,128.803162 
	C276.231812,126.136497 275.138641,124.004456 274.045471,121.872406 
	C273.886810,121.356689 273.728119,120.840973 273.339722,119.760315 
	C272.138153,116.812653 271.166229,114.429932 269.815063,111.117416 
	C276.737640,111.117416 282.804504,111.281296 288.856506,111.052017 
	C292.148407,110.927307 293.929901,112.087090 295.315857,115.097488 
	C298.627197,122.289795 302.314667,129.308960 305.850250,136.398026 
	C305.850250,136.398026 305.881927,136.717239 306.017853,137.181366 
	C307.125519,139.436081 308.097290,141.226685 309.069031,143.017288 
	C309.266205,143.539368 309.463409,144.061432 309.919220,145.084793 
	C310.736694,146.442444 311.295593,147.298813 311.854462,148.155167 
	C311.854462,148.155167 311.900360,148.088577 311.921997,148.390472 
	C312.240814,148.997910 312.537964,149.303482 312.835114,149.609039 
	C312.835114,149.609039 312.741791,149.823120 312.847351,150.278900 
	C317.486816,159.734375 322.020782,168.734055 326.554718,177.733749 
	C326.498016,178.057983 326.566040,178.353516 326.918121,179.126663 
	C327.729492,180.761963 328.381439,181.890961 329.033386,183.019958 
	C329.330414,183.841080 329.627411,184.662201 330.119019,185.984482 
	C330.418640,186.811829 330.631592,187.035202 330.952423,187.155777 
	C331.107025,187.673874 331.261627,188.191956 331.662018,189.148621 
	C331.998901,189.739334 332.089966,189.891510 332.181061,190.043701 
z"/>
<path fill="#206D9A" opacity="1.000000" stroke="none" 
	d="
M366.705383,200.781021 
	C333.620209,200.953140 300.246674,200.875702 266.402283,200.740585 
	C267.382355,200.133469 268.819366,199.148956 270.286346,199.102188 
	C284.195038,198.658569 298.109131,198.100113 312.021057,198.116211 
	C328.081726,198.134796 344.143127,198.650665 360.200378,199.089355 
	C362.284149,199.146255 364.345337,200.030457 366.705383,200.781021 
z"/>
<path fill="#21719F" opacity="1.000000" stroke="none" 
	d="
M305.885132,135.975327 
	C302.314667,129.308960 298.627197,122.289795 295.315857,115.097488 
	C293.929901,112.087090 292.148407,110.927307 288.856506,111.052017 
	C282.804504,111.281296 276.737640,111.117416 269.815063,111.117416 
	C271.166229,114.429932 272.138153,116.812653 273.150269,119.564384 
	C268.668915,119.059288 267.888763,115.376442 268.310120,111.957268 
	C268.775085,108.183937 272.240417,108.953804 275.086487,108.950920 
	C279.874634,108.946068 284.683411,108.269081 289.440918,108.563354 
	C291.627380,108.698601 294.787628,109.907578 295.658325,111.587471 
	C299.441376,118.886459 302.552307,126.534470 305.870819,134.071793 
	C306.055511,134.491318 305.911224,135.055679 305.885132,135.975327 
z"/>
<path fill="#206D9A" opacity="1.000000" stroke="none" 
	d="
M291.128937,221.631042 
	C301.011353,221.231537 311.096344,221.043854 321.175537,221.209930 
	C322.492279,221.231628 323.779114,223.070587 325.146790,224.449860 
	C316.294739,224.209183 307.372955,223.621582 298.458344,222.940338 
	C296.070923,222.757904 293.705322,222.289825 291.128937,221.631042 
z"/>
<path fill="#21719F" opacity="1.000000" stroke="none" 
	d="
M326.645630,177.313431 
	C322.020782,168.734055 317.486816,159.734375 312.930481,150.360901 
	C315.122192,152.733658 317.951996,155.188828 319.419159,158.288895 
	C322.263397,164.298569 324.341156,170.671005 326.645630,177.313431 
z"/>
<path fill="#21719F" opacity="1.000000" stroke="none" 
	d="
M277.465302,129.840027 
	C282.508392,138.935089 287.231598,148.105713 291.993774,157.637054 
	C290.644318,156.148544 289.062347,154.412506 287.902496,152.429565 
	C283.886261,145.563339 279.997009,138.622162 276.158173,131.655136 
	C275.989716,131.349396 276.794128,130.507629 277.465302,129.840027 
z"/>
<path fill="#206D9A" opacity="1.000000" stroke="none" 
	d="
M330.159943,236.148438 
	C333.466034,241.958710 336.702423,248.122162 339.964508,254.647263 
	C334.803864,249.848846 331.174377,243.856018 330.159943,236.148438 
z"/>
<path fill="#206D9A" opacity="1.000000" stroke="none" 
	d="
M342.083069,257.828278 
	C346.623352,257.545715 351.331207,257.543671 356.457886,257.739380 
	C354.867859,258.960724 352.859039,259.984253 350.497253,261.011292 
	C347.513092,260.046112 344.881866,259.077454 342.083069,257.828278 
z"/>
<path fill="#206D9A" opacity="1.000000" stroke="none" 
	d="
M264.776093,201.107605 
	C262.569427,206.875977 260.008545,212.701279 257.202942,218.767761 
	C257.312073,217.035370 257.282104,214.884186 258.096832,213.123962 
	C259.988403,209.037155 262.287781,205.139099 264.776093,201.107605 
z"/>
<path fill="#206D9A" opacity="1.000000" stroke="none" 
	d="
M353.070679,229.516144 
	C351.727295,227.377792 350.395813,224.846085 348.947510,222.092285 
	C352.848022,220.281570 357.995575,222.749619 359.723755,217.184052 
	C361.507599,223.352371 355.640259,221.967209 352.612000,223.760742 
	C352.772278,225.586792 352.927429,227.354797 353.070679,229.516144 
z"/>
<path fill="#206D9A" opacity="1.000000" stroke="none" 
	d="
M257.025574,221.246658 
	C262.401337,220.976227 267.772827,221.042694 273.608582,221.209198 
	C270.491730,221.923187 266.924042,222.640213 263.324036,223.108658 
	C261.464355,223.350647 259.547302,223.151184 257.237122,223.151184 
	C257.240570,223.176178 257.130951,222.379868 257.025574,221.246658 
z"/>
<path fill="#206D9A" opacity="1.000000" stroke="none" 
	d="
M365.366760,257.447327 
	C363.785126,253.802994 362.398590,250.275894 360.987640,246.377625 
	C363.196655,248.188171 365.430145,250.369888 367.816284,252.861404 
	C367.598175,254.467606 367.290619,255.788300 366.809357,257.042297 
	C366.697754,257.333130 365.993469,257.396515 365.366760,257.447327 
z"/>
<path fill="#206D9A" opacity="1.000000" stroke="none" 
	d="
M359.536987,242.335754 
	C357.345703,238.733917 355.233185,234.708084 353.100281,230.320251 
	C358.491119,232.175232 358.835754,237.162521 359.536987,242.335754 
z"/>
<path fill="#21719F" opacity="1.000000" stroke="none" 
	d="
M306.890747,188.134888 
	C310.035736,194.002701 315.657623,190.970276 320.580566,191.900299 
	C317.118042,192.254791 313.186279,192.845947 309.304077,192.612473 
	C307.604034,192.510223 304.597382,191.559006 306.890747,188.134888 
z"/>
<path fill="#21719F" opacity="1.000000" stroke="none" 
	d="
M300.947998,176.147934 
	C302.449982,178.343063 303.716827,180.809006 305.015076,183.632812 
	C301.329132,182.767471 299.533997,180.444153 300.947998,176.147934 
z"/>
<path fill="#206D9A" opacity="1.000000" stroke="none" 
	d="
M361.420319,214.957474 
	C362.553741,212.181763 364.022369,209.320602 365.770752,206.274719 
	C364.618866,209.017334 363.187195,211.944687 361.420319,214.957474 
z"/>
<path fill="#379AD4" opacity="1.000000" stroke="none" 
	d="
M375.259460,118.076118 
	C374.966888,117.474869 374.977020,117.056114 374.986816,116.322510 
	C377.285278,117.449165 379.584076,118.890694 381.947815,120.666573 
	C379.862549,120.086830 377.712372,119.172729 375.259460,118.076118 
z"/>
<path fill="#21719F" opacity="1.000000" stroke="none" 
	d="
M296.035767,166.339600 
	C297.395935,168.368408 298.734131,170.794510 300.151733,173.568665 
	C296.102966,173.122498 296.568390,169.630112 296.035767,166.339600 
z"/>
<path fill="#21719F" opacity="1.000000" stroke="none" 
	d="
M292.860107,160.199524 
	C294.025330,161.717712 295.004547,163.491867 296.026123,165.607849 
	C294.937042,164.118256 293.805573,162.286880 292.860107,160.199524 
z"/>
<path fill="#21719F" opacity="1.000000" stroke="none" 
	d="
M309.234985,142.762543 
	C308.097290,141.226685 307.125519,139.436081 306.126221,137.299591 
	C307.199432,138.805069 308.300201,140.656433 309.234985,142.762543 
z"/>
<path fill="#206D9A" opacity="1.000000" stroke="none" 
	d="
M366.417480,205.955963 
	C366.403625,204.608093 366.724030,203.182083 367.003296,201.388489 
	C370.170441,202.781891 369.032257,204.354584 366.417480,205.955963 
z"/>
<path fill="#21719F" opacity="1.000000" stroke="none" 
	d="
M274.024109,122.266052 
	C275.138641,124.004456 276.231812,126.136497 277.378082,128.643555 
	C276.288361,126.898941 275.145569,124.779312 274.024109,122.266052 
z"/>
<path fill="#379AD4" opacity="1.000000" stroke="none" 
	d="
M382.174255,121.282608 
	C383.885559,121.796783 385.776337,122.605087 387.844604,123.712250 
	C386.132599,123.199646 384.243195,122.388191 382.174255,121.282608 
z"/>
<path fill="#206D9A" opacity="1.000000" stroke="none" 
	d="
M325.149963,225.193924 
	C326.121613,226.641983 327.058472,228.460541 328.024689,230.632568 
	C327.074402,229.178833 326.094788,227.371628 325.149963,225.193924 
z"/>
<path fill="#21719F" opacity="1.000000" stroke="none" 
	d="
M329.201843,182.782043 
	C328.381439,181.890961 327.729492,180.761963 327.071655,179.300995 
	C327.833954,180.160706 328.602142,181.352417 329.201843,182.782043 
z"/>
<path fill="#21719F" opacity="1.000000" stroke="none" 
	d="
M323.260315,192.215927 
	C324.705811,191.945984 326.442932,191.888748 328.601807,191.946014 
	C327.199707,192.183228 325.375793,192.305939 323.260315,192.215927 
z"/>
<path fill="#1F79B0" opacity="1.000000" stroke="none" 
	d="
M14.032072,193.255371 
	C14.040577,192.914215 14.509818,192.960907 14.745297,192.967529 
	C14.980777,194.062698 14.980777,195.151230 14.980777,196.239777 
	C14.768361,196.254883 14.555946,196.269989 14.343531,196.285095 
	C14.236876,195.388916 14.130221,194.492722 14.032072,193.255371 
z"/>
<path fill="#21719F" opacity="1.000000" stroke="none" 
	d="
M311.883484,147.811020 
	C311.295593,147.298813 310.736694,146.442444 310.134094,145.271484 
	C310.697723,145.793533 311.305115,146.630203 311.883484,147.811020 
z"/>
<path fill="#379AD4" opacity="1.000000" stroke="none" 
	d="
M388.184143,124.211639 
	C388.546082,124.226768 389.114044,124.468048 389.864288,124.974686 
	C389.494446,124.972626 388.942261,124.705208 388.184143,124.211639 
z"/>
<path fill="#206D9A" opacity="1.000000" stroke="none" 
	d="
M329.205872,233.880615 
	C329.547455,234.096512 329.887787,234.657227 330.254028,235.554230 
	C329.921509,235.335464 329.563080,234.780441 329.205872,233.880615 
z"/>
<path fill="#21719F" opacity="1.000000" stroke="none" 
	d="
M332.362610,189.994629 
	C332.089966,189.891510 331.998901,189.739334 331.872986,189.323288 
	C332.073486,189.354797 332.308807,189.650177 332.362610,189.994629 
z"/>
<path fill="#21719F" opacity="1.000000" stroke="none" 
	d="
M312.743164,149.304474 
	C312.537964,149.303482 312.240814,148.997910 311.886536,148.371094 
	C312.103302,148.366516 312.377258,148.683212 312.743164,149.304474 
z"/>
<path fill="#21719F" opacity="1.000000" stroke="none" 
	d="
M330.906067,186.936234 
	C330.631592,187.035202 330.418640,186.811829 330.318695,186.247620 
	C330.569580,186.194412 330.748230,186.430099 330.906067,186.936234 
z"/>
<path fill="#206D9A" opacity="1.000000" stroke="none" 
	d="
M359.615540,257.780701 
	C359.976685,257.685272 360.512634,257.611298 361.298706,257.652893 
	C360.962677,257.779694 360.376495,257.790894 359.615540,257.780701 
z"/>
<path fill="#197BB9" opacity="1.000000" stroke="none" 
	d="
M396.401062,126.304794 
	C396.086975,125.669220 396.019958,125.125946 395.952942,124.582672 
	C396.388000,124.615761 396.823029,124.648857 397.258087,124.681946 
	C397.054779,125.253670 396.851471,125.825386 396.401062,126.304794 
z"/>
<path fill="#197BB9" opacity="1.000000" stroke="none" 
	d="
M398.507263,128.509735 
	C398.486664,128.517593 398.527893,128.501877 398.507263,128.509735 
z"/>
</svg>